<?xml version="1.0" encoding="utf-8"?>
<!-- Generator: Adobe Illustrator 28.5.0, SVG Export Plug-In . SVG Version: 9.03 Build 54727)  -->
<svg version="1.1" id="Layer_1" xmlns="http://www.w3.org/2000/svg" xmlns:xlink="http://www.w3.org/1999/xlink" x="0px" y="0px"
	 viewBox="0 0 1447.1 1498.1" style="enable-background:new 0 0 1447.1 1498.1;" xml:space="preserve">
<style type="text/css">
	.st0{fill:#33FFF5;}
	.st1{fill:#FF33A1;}
	.st2{fill:#FF5733;}
	.st3{fill:#3357FF;}
	.st4{fill:#33FF57;}
	.st5{fill:#225BAF;}
	.st6{fill:#A133FF;}
	.st7{fill:#FFFFFF;}
</style>
<path id="estadoAP" class="st0" d="M799,239.1c-0.2,0-0.4,0-0.5,0c-0.2-1.1,1.4-4.3,2-5.5c0.8-1.6,1.2-2.5,1.3-3.3
	c0.4-4.7-2.3-7.8-4.6-10.5c-1.4-1.6-2.7-3.1-3.3-4.8c-0.2-0.7,0-2.4,0.2-3.6c0.3-2.2,0.6-4.1-0.3-5.5c-1.4-2.2-4.6-2.9-8-3.6
	c-1.9-0.4-4-0.9-4.9-1.5c-3.9-2.6-6.9-6.9-9.8-11c-0.6-0.9-1.2-1.7-1.8-2.6c-1.8-2.4-1.6-5.5-1.3-8.9c0.3-4,0.6-8.4-2.5-12.3
	c-1.6-2-5.3-4-9.3-6.2c-2.3-1.2-5.7-3.1-6.4-3.9c-0.1-0.9,0-3.6,1-11.6c0.3-2.1,0.3-2.3-0.1-2.9c-1.4-2.2-4.8-2.5-7.6-2.5
	c-1.8,0-3.6,0.1-5.1,0.2c-1,0.1-1.9,0.1-2.5,0.1l-0.1,0c-7.9-0.2-27-5.6-29-13.9c-0.8-3.4,1.5-8.1,6.6-13.5c0.8,0.9,1.5,1.8,2.2,2.6
	c2.9,3.4,5.3,6.3,9.4,9.6c2.1,1.7,4.7,2.6,7.8,2.6c5.4,0,11.3-2.9,15.2-5c6.2-3.4,9.8-4.7,12.8-4.7c0.1,0,0.2,0,0.4,0
	c0.3,0,0.5,0,0.8,0c2.3,0,10.3-0.4,17.7-5.2c6.7-4.5,8.8-8,13.1-16.2c2.7-5.2,3.2-8.6,3.7-12.3c0.3-2.5,0.7-5.2,1.9-8.8
	c2.7-8,5.6-11.3,13.5-20.3l1.7-1.9c8.7-9.9,13-11.9,13-11.9c0.3-0.1,0.6-0.3,0.8-0.6c0.1-0.2,3-3.8,3.9-9.2c0-0.1,0-0.2,0-0.3
	c0.6,0.6,1.8,1.9,3.6,4.7c3.1,4.8,7.5,10.9,10.7,13.6c2.1,1.8,2.5,3.3,1.9,7.8c-0.3,2.5-1.2,11.2,0.1,17.7c1.4,6.9,8,13.7,9.9,15.6
	c1.2,1.2,1.8,3.7,2.3,6.4c0.8,3.9,1.7,8.3,5.2,11.4c2.4,2.2,4.3,3,5.8,3.6c1.8,0.7,2.8,1.2,4.6,4.7c0.4,0.9,0.8,1.6,1.1,2.3
	c2.2,4.8,2.5,5.2,6.4,6.9l0.8,0.4c3.2,1.5,3.3,4,3.3,4.2c0,0.1,0,0.2,0,0.3l1.2,9.8l-3.1,6.7c-0.2,0.4-0.2,0.7-0.2,1.1
	c0.5,3.4,0.4,7.1-0.1,7.9c-1.2,1.5-2.6,2.8-4.2,4.3c-0.4,0.4-0.9,0.8-1.3,1.3c-1,1-3.1,2.6-5.1,4.1c-2.2,1.7-4.4,3.4-5.7,4.6
	c-1.5,1.4-3.5,3.9-5.4,6.1c-1.1,1.4-2.2,2.7-2.8,3.3c-0.4,0.4-1,0.9-1.6,1.6c-2.1,1.9-5,4.6-6.5,7.2c-0.5,0.8-1.2,1.7-1.8,2.7
	c-1.1,1.5-2.2,3.1-3.2,5c-0.1,0.1-0.2,0.1-0.3,0.2c-12.7,6.8-20.4,15.7-29.2,28.7c-1.1,1.7-1.7,3.5-2.2,5.2
	c-0.4,1.3-0.8,2.6-1.4,3.6C812.7,234.7,803.2,239.1,799,239.1z"/>
<path id="estadoRO" class="st1" d="M498.9,693.2c-3.1-2.8-7.3-5.3-11.4-7.7c-3.2-1.8-6.2-2.7-9.5-2.7c-1.5,0-3.1,0.2-5,0.6
	c-0.7,0.1-1.6,0.2-2.6,0.2c-5.1,0-13.1-1.7-17.9-4.9c-4-2.6-6.4-3.4-8.1-3.9c-0.8-0.3-1.3-0.4-1.4-0.6c-1.5-1.8-8.1-6-12-7.2
	c-2.9-0.8-7-5.2-8.8-7.7c-1.2-1.7-5.2-6-15.2-8.9c-2.7-0.8-4.7-1.1-6.4-1.4c-3.1-0.5-4.5-0.8-6.7-3.1c-2.8-2.9-7-3.2-10-3.2
	c-2.2,0-4.5,0.2-6.7,0.4c-1.5,0.1-3,0.3-4.3,0.3c-0.4,0-0.8,0-1.1,0c-5.4,0-7.9-1.7-8.9-2.6c-0.6-0.6-1.8-2.5-2.9-4.2
	c-2-3.2-3.5-5.3-4.7-6.3c-0.6-0.5-1.6-1-3.6-2.1c-4.2-2.2-11.3-6-13.8-9.9c-2.6-3.9-4.9-10.8-6.4-15.3c-0.7-2.1-1.2-3.6-1.6-4.4
	c-1-2.2-2.4-9.7-2.8-14.5c-0.2-2.2,0.1-6,0.3-9.7c0.2-4.5,0.5-8.7,0.1-10.8c-0.2-1.1-0.8-1.9-1.5-2.5c4.6-4.6,9-8.2,11.2-9.8
	c1.1-0.7,2.4-1.3,3.8-1.8c2.4-1,5.2-2,7-4.6c2.4-3.2,0.2-6.6-1.5-9c-1.9-2.7-2.4-3.8-1.6-4.9c3-4,8-5.3,13.3-6.8
	c4.8-1.3,9.8-2.7,13.2-6.1c4.3-4.3,3.5-9,2.9-12.8c-0.4-2.6-0.8-4.9,0.2-6.9c0.4-0.8,2.2-2.1,3.4-3c1.1-0.8,2.1-1.5,2.8-2.2
	c8-8.1,12.2-12,19.8-12c2.8,0,6.2,0.5,10.4,1.6c3.8,1,4.9,4.2,6.3,7.9c1.1,3.1,2.2,6.3,5.1,8.4c1.2,0.9,2.8,1.3,4.4,1.8
	c0.8,0.2,1.6,0.4,2.1,0.7c2.1,0.9,4.2,1.9,6.3,2.9c3.2,1.6,6.6,3.2,9.9,4.3c2.2,0.7,4.5,1,6.8,1.3c4.1,0.5,7.7,0.9,10.2,4
	c9.1,11.1,5.8,23.3,2.4,36.2c-3,11.4-6.2,23.1-1.3,34.9c1.6,3.9,6.3,3.9,8.1,3.9c0,0,0,0,0,0c1.3,0,2.6-0.1,3.8-0.2
	c1.2-0.1,2.3-0.2,3.2-0.2c1.5,0,2.2,0.2,2.5,0.4c0.2,0.2,0.3,1.1,0.3,1.6c0.2,1.5,0.5,3.9,2.8,4.8c2.5,1.1,5.3,1.6,8.5,1.6
	c2.8,0,5.7-0.4,8.4-0.8c2.7-0.4,5.3-0.7,7.9-0.7c2.3,0,4.3,0.3,6.1,0.9c2.2,0.7,2.6,1.8,3.4,4.3c0.1,0.4,0.3,0.8,0.4,1.3
	c0.2,0.4,0.3,0.9,0.6,1.5c1.1,2.9,3,7.8,1.4,10.1c-0.4,0.5-0.9,1.1-1.4,1.7c-2,2.3-4.5,5.3-3,9.7c0.7,1.8,1.9,4,3.1,6.3
	c2.3,4.1,5.2,9.3,4.5,12.2c-0.2,0.6-1.5,1.5-2.5,2.2c-1.7,1.1-3.6,2.4-4.2,4.4c-0.6,2,0.1,3.8,0.7,5.4c0.7,1.8,0.9,2.7,0.3,3.5
	c-0.5,0.7-1.9,1-3.3,1.3c-1.9,0.5-4,1-5.3,2.6c-2.5,3.3-2.3,7.7-2.2,11.8c0.1,3.9,0.3,7.5-1.5,10.3
	C504.7,686.9,501.2,690.7,498.9,693.2z"/>
<path id="estadoAC" class="st2" d="M209.6,599.6c-2.6,0-5.5-1.4-7.2-2.7c-1.3-1.1-3.1-3.5-4.8-5.9c-1.4-1.9-2.8-3.9-4.2-5.5
	c-2.8-3.2-7.2-3.9-11.5-4.5c-1.3-0.2-2.7-0.4-4-0.7c-0.9-0.2-2.1-0.3-3.5-0.3c-5.1,0-12.9,1.3-17.6,2.1c-1.5,0.2-2.7,0.4-3.3,0.5
	c-3.5,0.4-9.3,2.8-12,4.5c-0.4,0.3-0.6,0.3-0.7,0.3c-0.6,0-1.6-0.8-2.8-1.6c-0.6-0.4-1.2-0.9-1.8-1.3c-2.7-1.8-3.4-4.1-3.8-7.9
	c-0.1-0.6-1.6-13.8-3.5-18.5c-0.4-1-0.8-1.8-1.3-2.6c-1.2-2.3-2.2-4.2-1.7-8.5c0.8-6.9-0.1-8.6-3.4-11.1c-0.6-0.5-1.3-0.7-2.1-0.7
	c-2.7,0-5.3,2.9-9.1,7.7c-1.1,1.4-2.1,2.6-3.1,3.6c-2,2.2-3.5,4.6-4.8,6.9c-1.3,2.2-2.6,4.3-4.3,6.2c-3.7,3.9-8.1,6.1-11.5,7.5
	c-1.1,0.5-2.4,0.7-3.9,0.7c-2.7,0-5.8-0.8-8.9-2.3c-0.9-0.4-1.9-0.9-2.8-1.3c-4-1.7-7.4-3.2-9.5-6.8l-0.4-0.6
	c-2.9-4.9-4.7-8.1-11.5-10.7c-1.5-0.6-2.9-0.9-4.3-0.9c-1.9,0-3.4,0.5-4.7,1c-1.2,0.4-2.2,0.8-3.5,0.8c-0.5,0-1.1-0.1-1.6-0.2
	c-2.9-0.6-2.8-1.1-2.3-4.4c0.1-0.8,0.3-1.7,0.4-2.6c0.2-1.6,0.4-2.6,0.8-3.8c0.6-2,1.3-4.3,1.4-9.9c0.2-7.2-2.1-9.2-4.7-11.5
	c-1-0.8-1.9-1.7-2.9-2.9c-2.8-3.4-5.3-6.4-8.3-9.8c-1.3-1.4-2.6-3-4-4.6c-1.7-2-3.7-3.8-5.5-5.6c-3.4-3.2-7-6.5-9.4-11.2
	c-3.7-7.1-2.2-9,1.9-11.8c0.7-0.5,1.3-0.9,1.8-1.2c0.4,0.2,0.7,0.3,1,0.5c7.3,3.3,15.2,5.6,22.8,6.7c12.6,1.8,23.7,3.8,32.7,5.8
	c5,1.1,9.7,2.7,14.3,4.3c6.9,2.3,14.1,4.8,22.2,5.6c30.6,3,61,11.8,85.6,24.8c3.4,1.8,6.7,3.6,10,5.3c24.9,13.3,48.4,25.9,75.4,33.9
	c3.9,1.2,7.3,3.2,10.2,6.2c-6,2.8-13.2,7.1-17.1,11.4c-1.2,1.3-3.2,1.9-6.1,1.9c0,0,0,0,0,0c-2.1,0-4.2-0.3-6.1-0.6
	c-1.4-0.2-2.7-0.4-3.7-0.4c-0.4,0-0.7,0-1,0.1c-0.2,0-0.5,0.1-0.8,0.1c-1.5,0-3.8-0.4-6-0.9c-1.9-0.4-3.8-0.7-5.6-0.9
	c-0.2,0-0.3,0-0.5,0c-6.1,0-11.5,11.7-12.2,18c-0.5,4.7-4.1,6.9-7.5,9.1c-0.4,0.2-0.8,0.5-1.1,0.7
	C211.6,599.4,210.7,599.6,209.6,599.6z"/>
<path id="estadoRR" class="st3" d="M462.7,235.2c-0.1,0-0.3,0-0.5-0.1c-2.1-0.5-5.5-3.8-7.8-5.9c-0.8-0.7-1.5-1.4-2.1-1.9
	c-2-1.8-4.7-3.1-7.2-4.4c-3.3-1.7-6.6-3.4-8.3-5.9c-1.1-1.7-0.7-3.5,0-6.2c0.6-2.2,1.3-4.8,0.6-7.5c-1.6-6.5-2.2-11.8-3-18.6l0-0.3
	c-0.4-4-3.5-5.2-5.7-6.1c-2.3-0.9-3.3-1.4-3.5-3.3c-0.2-2,0.4-6.4,1-11.1c1.4-10.5,2.2-17.6,0.2-20.9c-2.1-3.6-5.3-5.6-8.4-7.5
	c-2-1.3-4-2.5-5.6-4.2c-3-3-5.5-6.1-8-9.1c-3.8-4.7-7.5-9.3-12.2-12c0.8-0.7,1.4-1.4,1.8-2.4c0.4-1.1,0.2-2.2-0.4-3.2
	c-2-2.8-8.3-3.2-11.9-3.2c-1.7,0-3.3,0.1-4.7,0.3c-1,0.1-1.9,0.2-2.6,0.2c-2.8,0-4.3-0.8-7.1-4.1c-3.1-3.6-4.2-6.1-4.7-14.8
	c-0.4-6.6,0.3-7.6,3.1-12c0.6-0.9,1.2-1.9,1.9-3.1c5.1-8.4,1.4-14.4-2.4-18.6c-2.7-3-6.9-4.7-10.5-6.1c-1.7-0.7-3.4-1.3-4.5-2
	c0,0,0,0,0,0c0.6-1,3.4-3.1,7.1-4.6c0.7-0.3,1.3-0.4,2-0.4c2.8,0,5.6,2.3,8.6,4.8c2.7,2.3,9.7,7.8,16.7,7.8c2.5,0,5.2,1,8.1,2.1
	c2.7,1,5.6,2.1,8.7,2.6c0.6,0.1,1.2,0.1,1.8,0.1c6.1,0,11.5-4.2,16.5-8.8c3.7-3.4,6.5-4.8,9.7-4.8c0.4,0,0.9,0,1.4,0.1
	c0.6,0.1,1.3,0.1,2.1,0.1c4.2,0,10.3-0.9,15.8-1.8c1.3-0.2,2.6-0.4,3.8-0.6c7.3-1.1,10-2.3,13.7-8.4c2.1-3.4,6.4-4.8,10.3-6.1
	c1.6-0.5,3.1-1,4.4-1.7c4.1-2.1,10.1-10.3,16.4-19.3c1.3-1.8,3.1-2.7,5.6-2.7c3.2,0,6.9,1.4,9.6,2.5c1.3,0.5,2.4,1,3.4,1.2
	c0.1,0,0.5,0.1,0.8,0.9c1,2.5,0.3,8.3-2.4,12.8c-2.3,3.8-1.9,6.8-1.2,8.6c1.1,2.8,3.7,5.1,7.3,6.2c4.6,1.4,13.9,8.8,14.8,11.2
	c0.1,0.3,0.3,2.3-9.5,8.7c-4.6,3-4.4,11-4.1,16.8c0.1,1.8,0.1,3.5,0,4.2c-0.1,0.6-0.2,1.3-0.3,2c-0.5,3.3-1,7.3-3.4,11.7
	c-3.5,6.3-2.1,8.6,1.7,14.8l0.8,1.3c2.4,3.9,4.5,5.2,6.1,6.2c1.4,0.8,1.9,1.2,2.3,3.3c0.4,1.8,0.4,2.7,0.5,3.6
	c0.1,2.1,0.3,3.6,2.8,10c4,10.3,11,12.8,17.8,14.5c2.7,0.6,3.5,1.7,5,3.4c1.3,1.5,2.8,3.4,5.9,5.3c0.8,0.5,1.5,0.8,2.2,1.1
	c0.6,8.9,1,18.7-3.5,25c-1.5,2.1-5.8,2.3-9.4,2.3c-1.8,0-3.6-0.1-5.6-0.1c-2.1-0.1-4.2-0.2-6.3-0.2c-5.4,0-12.1,0.5-16.5,4.3
	c-2.5,2.2-2.8,5.4-3,8.2c-0.1,2-0.3,3.9-1.2,5.1c-0.8,1-2.6,1.4-4.4,1.8c-2.5,0.5-5.6,1.2-7.1,4.1c-1.2,2.4-0.8,5.5-0.3,8.9
	c0.7,5.3,0.9,8.6-2.2,9.6c-1.4,0.5-4.8,1-7.9,1c-3.5,0-5.4-0.6-5.9-1.1c-0.8-0.8-1.6-2.8-2.3-4.6c-1.6-3.8-3.3-8.2-7.1-8.2
	c-0.3,0-0.5,0-0.8,0.1c-4.5,0.7-13.8,8.9-15.5,12.4c-0.7,1.3-0.3,3.1,0.2,5.4c0.2,1,0.6,2.6,0.5,3.2c-0.1,0.5-0.1,1.2-0.1,2
	C464.2,230.8,464,235.2,462.7,235.2L462.7,235.2z"/>
<path id="estadoAM" class="st4" d="M322.2,559.3c-2.7-0.8-6-1.3-9.1-1.8c-2-0.3-3.8-0.6-5-0.9c-1.4-0.4-3.3-0.5-5.7-0.5
	c-5.3,0-13.4,0.9-18.4,2.7c-3.7-4.1-7.9-6.8-13-8.4c-26.6-7.9-49.9-20.4-74.6-33.6c-3.3-1.8-6.7-3.6-10-5.3
	c-25.1-13.3-56-22.3-87.1-25.3c-7.7-0.7-14.3-3-21.3-5.4c-4.7-1.6-9.5-3.2-14.7-4.4c-9.2-2.1-20.3-4-33-5.9
	c-7.1-1-14.7-3.3-21.6-6.3c0.1-0.5,0.2-1.1,0.2-1.7c0-0.7,0-1.6,0.3-3.1l0-0.2c0.9-5.3,1.2-7.3,3.7-10.2c1.6-1.9,4.9-4.2,8.5-6.6
	c2.4-1.6,4.9-3.3,7-5.1c4.4-3.5,5.3-5.1,6.6-7.6c0.3-0.5,0.6-1.1,1-1.8c2-3.5-0.1-5.3-1.4-6.5c-0.8-0.7-1.8-1.6-2.7-3
	c-0.8-1.3,0.1-2.6,2.6-5.8c1.7-2.1,3.8-4.8,5.2-8.2c1.8-4.3,2.2-6.9,2.7-9.5c0.4-2.1,0.7-4.1,1.9-7.1c1.9-4.9,4.6-6.6,8.3-9
	c0.9-0.6,1.8-1.2,2.8-1.8c3-2.1,7-3.8,11.3-5.7c2.6-1.2,5.4-2.3,8-3.7c8.2-4.2,15.2-6.4,22.7-7.4c2.6-0.3,4.5-0.4,6-0.6
	c3.8-0.3,5.6-0.4,9.2-2.9c0.9-0.6,1.8-1.3,2.6-1.9c3.1-2.3,5.3-3.9,8.4-4.3c0.5,0,0.9-0.1,1.4-0.1c2.5,0,5.1,0.7,7.7,1.4
	c1.1,0.3,2.2,0.6,3.4,0.9c2.3,0.5,4,0.8,5.5,0.9c1.6,0.2,3.1,0.4,4.9,0.9c0.8,0.2,1.6,0.4,2.5,0.4c5,0,9.7-3.9,11.1-5.1
	c3.2-2.9,2.9-6.1,2.5-10.6c-0.1-1.2-0.2-2.5-0.3-4c-0.2-3.6,0.8-7.1,1.9-10.8c0.9-3,1.8-6.1,2.1-9.4c0.3-3.9,1.5-7.7,2.7-11.3
	c0.8-2.7,1.6-5.2,2-7.5c0.4-2.2,0.9-5.9,1.4-9.8c0.8-5.7,1.7-12.2,2.4-16.3c0.4-2.2,0.9-4.7,1.3-7.2c1.1-5.5,2.1-11.2,2.6-15
	c0.6-5.6-0.9-7.5-3.7-11c-0.4-0.4-0.7-0.9-1.2-1.4c-1.2-1.5-2.2-2.6-3.1-3.6c-1.7-1.8-2.7-2.9-3.6-5.4c-0.7-1.8-1-3-1.3-4.7
	c-0.4-2.1-0.9-4.6-2.5-9.3c-1.6-5-3-6.4-4.9-7.9c-1-0.8-2-1.6-3.3-4.1c-3-5.9-3-7.8-2.9-11.6l0-0.8c0.1-4.2,0.9-10.5,3.1-15.8
	c0.9-2.1,3.3-3.1,7.9-3.1c1,0,2,0,2.9,0.1c0.8,0,1.5,0.1,2.2,0.1c1,0,1.9,0,2.9,0.1c1,0,2,0.1,2.9,0.1c2.5,0,5-0.2,6.6-1.9
	c2.4-2.5,3.5-10.4,0-15.7c-2.7-4-5.4-4.2-8-4.3c-1-0.1-2-0.1-3.2-0.4c-0.4-0.1-0.8-0.2-1.2-0.3c-3.2-0.7-4-0.9-7.1-5.8
	c-2.3-3.7-2.1-3.9,0.1-6.5c0.6-0.8,1.4-1.7,2.2-2.9c1.6-2.2,2.7-2.4,3.8-2.4c0.6,0,1.2,0.1,1.9,0.1c0.9,0.1,1.9,0.2,2.9,0.2
	c0.8,0,1.6-0.1,2.3-0.2c2.3-0.4,5.4-0.6,8.6-0.6c3.3,0,6.4,0.2,8,0.6c1.1,0.2,2.3,0.3,3.9,0.3c3.1,0,6.9-0.4,11.4-1l2.5-0.3
	c4.2-0.5,5.7-1.7,5.9-4.7c0.1-1.1,0.1-2.2,2.5-3.8c0.5-0.4,1-0.5,1.3-0.5c1.8,0,3.6,5.1,4.6,7.9c0.7,2.1,1.4,3.9,2.2,5
	c0.9,1.2,2.3,1.9,3.8,1.9c4.6,0,9-6.1,10.3-8c1.4-2.1,2.5-3.1,3.2-3.1c0.5,0,1.2,0.3,2.1,0.7l0.6,0.3c3.2,1.3,4.8,2.8,5.6,5.1
	c1,2.9,1.2,7.8,0.6,17.1c-0.2,3.5,0.3,5.7,1.5,7.1c0.8,0.8,1.8,1.3,3,1.3c2.1,0,4.7-1.4,8.2-4.5c0.7-0.6,1.2-0.9,1.7-0.9
	c1.1,0,2.6,1.6,3.9,3.1c1.1,1.2,2.3,2.5,3.6,3.4c0.5,0.3,1,0.7,1.5,1c3,2.1,6.5,4.4,10.6,4.4c0.8,0,1.6-0.1,2.4-0.3
	c0.8-0.2,1.5-0.3,2.4-0.3c1.4,0,2.9,0.2,4.6,0.5c2.4,0.4,5.1,0.8,8.7,0.8c0.5,0,1,0,1.5,0c7.1-0.2,9.1-3.4,11.3-6.8
	c0.8-1.4,1.7-2.8,3-4.2c2.8-3,5.1-3.2,9.3-3.4c2.1-0.1,4.5-0.3,7.4-0.8c8.7-1.6,11.2-5,13.6-8.3c0.3-0.4,0.6-0.8,0.9-1.3
	c0.6-0.7,1.7-1,3.7-1c0.9,0,1.8,0.1,2.7,0.1c1,0.1,2,0.1,3,0.1c1.4,0,3.3-0.1,5-1c3.3-1.8,4.5-4.7,5.5-7.3c0.5-1.2,0.9-2.3,1.6-3.4
	c2.3-3.8,4.8-6.5,8.2-8.9c1.4-1,3.6-1.8,5.7-2.5c0.7-0.3,1.4-0.5,2.2-0.8c5.2,1.9,9,6.7,13.4,12.2c2.5,3.1,5.1,6.3,8.2,9.5
	c2,2,4.2,3.4,6.3,4.7c2.8,1.8,5.4,3.4,7.1,6.2c1.4,2.2,0.1,11.9-0.8,18.3c-0.7,5.1-1.3,9.5-1,12c0.5,4.5,3.8,5.8,6,6.7
	c2.2,0.9,3,1.3,3.1,2.8l0,0.3c0.7,6.7,1.4,12.4,3.1,19.1c0.4,1.7-0.1,3.5-0.6,5.5c-0.8,2.9-1.6,6.2,0.5,9.5c2.3,3.4,6.1,5.3,9.8,7.2
	c2.4,1.2,4.7,2.4,6.4,3.9c0.6,0.5,1.2,1.1,1.9,1.8c2.9,2.7,6.4,6.1,9.6,6.9c0.5,0.1,1,0.2,1.4,0.2c5,0,5.3-6.3,5.5-9.7
	c0-0.6,0.1-1.2,0.1-1.6c0.2-1.3-0.2-2.9-0.6-4.6c-0.2-0.9-0.5-2.3-0.5-2.8c1.5-2.7,9.7-9.6,12.5-10.1c0,0,0.1,0,0.1,0
	c1.1,0,2.6,3.6,3.4,5.7c1,2.4,1.9,4.6,3.2,5.9c1.5,1.5,4.4,2.3,8.7,2.3c3.3,0,7.2-0.5,9.2-1.2c6.4-2.1,5.5-9,4.9-13.9
	c-0.3-2.6-0.7-5.3-0.1-6.6c0.6-1.1,2-1.5,4.3-1.9c2.3-0.5,5-1,6.7-3.2c1.7-2.1,1.9-4.9,2.1-7.3c0.2-2.4,0.3-4.4,1.6-5.5
	c3.4-3,9.2-3.3,13.9-3.3c2,0,4.1,0.1,6.1,0.2c2,0.1,3.9,0.1,5.8,0.1c3.2,0,6.8-0.2,9.5-1.5c4,5.1,6.2,9.6,6.5,13.1
	c0.2,2.5-0.5,4.7-1.3,6.9c-1.2,3.7-2.6,7.9,0.8,13.4c2.4,3.7,6.1,5.5,9.4,7c2.9,1.4,5.7,2.6,7.2,5.1c1.7,2.7,1.5,5.8,1.3,9
	c-0.2,4.3-0.5,9.2,3.8,13.3c4.5,4.4,17.3,5,28.5,5.6c5.2,0.3,10.2,0.5,12.8,1.1c3.2,0.7,3.7,2.4,4.6,4.8c0.7,2.1,1.6,4.8,4.6,6.5
	c0.6,0.3,1.3,0.5,2,0.5c2,0,4.2-1.2,6.5-2.4c1.9-1,4.1-2.2,5.5-2.2c0.4,0,0.9,0,1.2,1.4c1,3.4-0.8,6.6-2.7,10
	c-1.1,2-2.3,4.1-2.9,6.4c-2.1,7.4-5.3,13.4-8.7,19.8c-1.6,3.1-3.3,6.2-4.9,9.6c-1.6,3.4-3.2,6.9-4.7,10.3c-4,8.8-8.1,17.9-13,26.4
	c-6.8,11.7-12.3,24.3-17.6,36.6c-4,9.3-8.1,18.8-12.8,27.9c-1.3,2.5-5.3,6.6-8.9,10.3c-5.2,5.3-7.9,8.2-8.2,10.3
	c-1.3,9.3,1.9,12.4,4.7,15.1c1.7,1.7,3.2,3.1,3.9,6c0.2,0.7-0.2,1.6-0.6,2.7c-0.7,1.8-1.5,4-0.4,6.5c0.7,1.7,2,2.6,3.1,3.3
	c1.1,0.8,1.7,1.3,2,2.2c0.6,2.4,0.6,4.9,0.5,7.6c0,2-0.1,4.1,0.2,6.2c-0.7,3.7-1,8.6-1.2,11.8c-0.1,1.5-0.2,2.9-0.2,3.4
	c-2.2,12.2-5.3,16.8-19.4,19.6c-1.3,0.3-2.6,0.4-4.1,0.4c0,0,0,0,0,0c-3.4,0-6.8-0.7-10.4-1.5c-3-0.6-6-1.3-9.1-1.5
	c-3.6-0.2-7.4-0.4-11.5-0.4c-9.6,0-19.3,0.7-28.7,1.3c-2.2,0.2-4.5,0.3-6.7,0.5c-6.3,0.4-14.4,1.1-21.7,3.1c-1-2.1-2.3-4-3.8-5.9
	c-3.5-4.3-8.5-4.9-12.8-5.4c-2.1-0.3-4.1-0.5-6-1.1c-3.1-1-6.3-2.6-9.4-4.1c-2.1-1-4.3-2.1-6.5-3c-0.8-0.3-1.7-0.6-2.6-0.8
	c-1.2-0.3-2.5-0.7-3.1-1.1c-1.8-1.4-2.7-3.9-3.7-6.5c-1.4-4-3.2-8.9-9-10.4c-4.6-1.2-8.2-1.8-11.4-1.8c-9.2,0-14.3,4.8-22.7,13.2
	c-0.5,0.5-1.4,1.2-2.3,1.8c-1.9,1.4-3.9,2.8-4.7,4.5c-1.5,3.2-1,6.4-0.5,9.3c0.6,3.6,1.1,6.5-1.7,9.3c-2.7,2.7-6.9,3.9-11.4,5.1
	c-5.7,1.6-11.7,3.2-15.4,8.3c-2.6,3.5-0.2,7,1.5,9.5c1.7,2.5,2.2,3.5,1.6,4.4c-1.2,1.6-3.2,2.4-5.3,3.2c-1.5,0.6-3.2,1.3-4.6,2.3
	C332.3,549.9,327.4,554.1,322.2,559.3z"/>
<path id="estadoRN" class="st5" d="M1380.7,435c-1.2,0-3.2-1.2-5-2.5c-2.9-1.9-6.2-4-10-4c-0.6,0-1.2,0.1-1.8,0.2
	c-2.3,0.4-3,2.9-3.5,4.7c-0.1,0.3-0.2,0.8-0.4,1.2c-0.9-0.7-0.8-1.5,0.2-4.2c0.7-1.6,1.4-3.5,1-5.4c-0.3-1.6-1.4-3.5-4.9-3.5
	c1.3-1,3.3-2.2,4.8-3.2c5.4-3.3,10-6.1,9.4-9.8c-0.5-2.9-4.1-4.2-6.8-4.8c-1.5-0.4-2.9-0.5-4.2-0.5c-5.1,0-8.2,2.6-10.9,4.9
	c-1.9,1.6-3.6,3-5.7,3.5c0,0,0,0,0,0c-0.3,0-1.1-0.5-1.6-0.9c-1-0.7-2.3-1.6-3.9-1.6c-1,0-1.9,0.3-2.8,1c-1.2,1-1.8,2.2-2.4,3.4
	c-0.3,0.6-0.6,1.3-0.9,1.7c-4.2,5.1-5.1,5.1-9.2,5.1c-0.4,0-2.6,0-3.2,0h-0.3c-0.8,0-1.6,0.2-2.4,0.3c-0.7,0.1-1.4,0.3-1.9,0.3l0,0
	c-0.5,0-0.7-0.1-0.7-0.2c-0.7-0.6-0.9-1.8-1-2.6c-0.1-2.9,1.4-6.7,2.8-8.2c2.5-2.7,5.7-4.6,9-6.7c4.1-2.6,8.4-5.3,11.6-9.5
	c3.2-4.3,3.6-8,3.9-11.2c0.4-4.5,0.8-7.7,9-11.8c1.8-0.9,3.6-1.6,5.5-2.4c1.8-0.7,3.6-1.4,5.3-2.3c0.8,1,1.5,2,1.9,2.6l0.1,0.1
	c0.3,0.4,0.6,1,1,1.6c1.5,2.6,3.6,6.2,7.3,6.2c0,0,0,0,0,0c0.3,0,0.7,0,1-0.1c0.2,0,0.5-0.1,0.7-0.1c2.6,0,6.6,1.8,7.9,2.6
	c0.2,0.1,0.4,0.2,0.6,0.2c0.5,0.1,12.5,2.1,17,2.5c0.4,0,0.8,0.1,1.3,0.1c1.9,0,4.4-0.3,7-0.6c2.9-0.3,5.8-0.7,8.2-0.7
	c1.4,0,2.5,0.1,3.2,0.3c4.4,1.4,10,5,13.2,8.6c2.7,3,2.8,5.3,2.9,7.9c0,0.4,0,0.8,0.1,1.2c0,0.5,0.1,1.1,0.1,1.8
	c0.1,3.3,0.2,8.2,2.3,12.5c0.7,1.4,1.3,3.3,1.9,5.4c-5,0.4-9.9,0.9-12.3,1.2c-1.4,0.2-2.5,0.9-3.4,1.5c-0.6,0.4-1.2,0.8-1.5,0.8
	c-1.8,0-3.1-1.3-4.6-2.7c-1.4-1.4-3.1-2.9-5.3-3.5c-0.3-0.1-0.6-0.1-0.9-0.1c-2.5,0-4.1,2.3-5.4,4.4c-0.9,1.4-2.1,3.2-3,3.2
	c-0.1,0-0.1,0-0.2,0c-0.2-0.4-0.3-1.5-0.3-2.1c-0.2-2.2-0.5-6.4-4.8-6.4c-0.8,0-1.7,0.2-2.6,0.5c-10.5,3.4-9.7,9.8-9.1,13.9
	c0.5,3.8,0.5,5.1-2.7,6.3C1381,435,1380.9,435,1380.7,435z"/>
<path id="estadoPB" class="st5" d="M1381.1,491.5c-0.5,0-1-0.1-1.6-0.2c-0.9-0.2-1.4-1.5-2.2-3.4c-0.8-1.9-1.6-4.1-3.6-5.3
	c-1.4-0.9-2.5-1.2-3.5-1.2c-1.5,0-2.4,0.9-2.9,1.4c-0.5,0.5-0.7,0.7-1.5,0.8c-0.1,0-0.1,0-0.2,0c-3,0-8-5.1-9.1-8.4
	c0.8-0.4,2.9-0.7,6.2-0.9c0.9,0,1.4-0.1,1.8-0.1c1.6-0.3,2.4-1.2,2.7-1.9c0.9-2-0.3-4.3-1.5-6.5c-0.2-0.5-0.6-1.1-0.8-1.6
	c0.3,0,0.6,0,0.9,0.1c0.6,0,1.2,0.1,1.7,0.1c0.8,0,1.9-0.1,2.8-0.6c1.7-1.1,4.4-3.9,4.1-6.8c-0.1-1-0.6-2.9-3.1-3.9
	c-1.1-0.5-17.6-0.9-17.8-0.9c-0.3,0-1,0-1.6,0.6c-1.6,1.6-2,3.5-2.4,5.2c-0.4,2-0.7,3.1-2.2,3.8l0,0c0,0-0.1,0-0.3,0
	c-0.7,0-1.7-0.3-2.7-0.5c-1.4-0.4-2.8-0.7-4.2-0.7c-0.6,0-1.2,0.1-1.7,0.2c-3.2,0.9-4,4-4.6,6.1c-0.4,1.3-0.7,2.6-1.4,3.2
	c-2,1.5-3.9,2.3-5.8,2.3c-5.8,0-11.1-6.6-14.6-11c-1.4-1.8-1.2-3.4-0.7-6.2c0.3-1.5,0.6-3.2,0.5-5c-0.2-3.6-3.2-4.8-5.2-5.6
	c-1.9-0.7-2.3-1-2.3-1.6c-0.1-1.8,0.2-3.2,0.9-3.9c1.2-1.3,4.1-1.4,6.6-1.4c0.5,0,2.4,0,2.9,0c3.3,0,7-0.2,9.8-2.1
	c2.7-1.9,7.2-5.1,6.1-10.1c-0.2-0.9-0.3-1.9-0.4-3c1.4-1.1,2.7-2.6,4.3-4.5c0.7-0.8,1.1-1.7,1.5-2.5c0.4-0.8,0.7-1.6,1.2-1.9
	c0.1-0.1,0.2-0.2,0.3-0.2c0.3,0,1.1,0.5,1.6,0.9c1,0.7,2.3,1.6,3.9,1.6c0.3,0,0.6,0,0.9-0.1c3.1-0.7,5.3-2.5,7.4-4.3
	c2.5-2.1,4.7-4,8.3-4c1,0,2.1,0.1,3.2,0.4c2.9,0.7,3.6,1.4,3.8,1.6c-0.3,1.3-5,4.2-7.6,5.8c-4.5,2.8-7.3,4.5-8,6.7
	c-0.4,1.3-0.1,2.2,0.3,2.7c0.9,1.2,2.3,1.2,2.9,1.2c0,0,0,0,0,0c0.3,0,0.6,0,0.9,0c0.3,0,0.6,0,0.9,0c0.8,0,1.1,0.1,1.1,0.1
	c0,0,0,0.1,0,0.1c0.1,0.8-0.4,2-0.8,3.2c-1,2.4-2.6,6.5,1.8,9.3c0.7,0.5,1.4,0.7,2.1,0.7c2.6,0,3.3-2.7,3.8-4.5
	c0.2-0.6,0.4-1.5,0.7-1.9c0.3,0,0.5-0.1,0.8-0.1c2.6,0,5.2,1.7,7.8,3.3c2.5,1.6,4.8,3.1,7.2,3.1c0.6,0,1.2-0.1,1.8-0.3
	c6.4-2.3,5.8-7.1,5.3-10.5c-0.6-4.2-1-7.2,6.4-9.6c0.7-0.2,1.2-0.3,1.4-0.3c0.2,0,0.3,0,0.3,0c0.3,0.2,0.4,1.9,0.5,2.7
	c0.2,2,0.4,4.8,2.9,5.6c0.5,0.2,1.1,0.3,1.6,0.3c3,0,4.9-2.7,6.3-4.9c0.6-0.9,1.6-2.5,2.1-2.6c1.2,0.3,2.3,1.3,3.4,2.5
	c1.8,1.7,4,3.8,7.3,3.8c1.6,0,2.8-0.8,3.8-1.5c0.6-0.4,1.2-0.8,1.6-0.9c2.5-0.3,7.9-0.9,13-1.2c1.2,3.9,2.4,7.2,4,9.3
	c1.1,1.5,2.7,4.8,3.7,9.1c-0.4,0.2-0.9,0.3-1.3,0.5c-2.4,0.8-4.9,1.7-7.1,3.3c-2.8,2.1-5.3,5.7-7.6,9.2c-1.3,1.9-2.5,3.7-3.7,5
	c-0.6,0.7-2.7,1-4.3,1.3c-1.9,0.3-3.8,0.6-5.3,1.5c-1.9,1.2-3.5,4.3-5.5,8.6c-0.3,0.6-0.6,1.2-0.9,1.8c-0.1-0.2-0.2-0.3-0.3-0.4
	c-0.9-1.7-2.1-3.7-4.2-4.2c-0.2-0.1-0.5-0.1-0.7-0.1c-2.1,0-4.1,1.9-5.7,3.4c-0.4,0.3-0.8,0.7-1,0.9c-2,1.4-4.1,2.1-6.4,2.9
	c-1.7,0.6-3.5,1.1-5.2,2c-0.3,0.1-0.6,0.3-0.9,0.4c-1.2,0.5-2.8,1.2-3.7,2.3c-0.8,0.9-0.6,1.9-0.1,4.1c0.5,2.2,1.5,6.7,0.3,8.1
	C1382.4,491.2,1382.1,491.5,1381.1,491.5z"/>
<path id="estadoPE" class="st5" d="M1251.7,534.7c-1.3,0-2.8-1.1-3.9-1.9c-1.6-1.2-3.4-2.2-5.2-3.1c-2.1-1.1-4-2.1-5.6-3.5
	c-1.8-1.6-3-3.7-4.3-6c-1.8-3.1-3.8-6.7-7.7-8.8c-0.8-0.4-2.2-0.9-4.6-1.6c-2.5-0.8-8.1-2.6-9.4-3.7c-0.4-4,8.2-6.5,14.5-8.3
	c4.9-1.4,8-2.4,9.5-3.9c4.8-5,10.2-24.9,7.5-31.3c-0.9-2.2-3.3-2.7-5.2-3.1c-0.7-0.2-2-0.5-2.4-0.8c0.3-0.1,0.9-0.3,2.4-0.3
	c2.7,0,6.3,0.7,8.2,1.1c1.1,0.2,1.5,0.3,1.9,0.3c1,0,2,0.2,3.1,0.3c1.3,0.2,2.6,0.4,4,0.4l0.3,0c2.7,0,5-0.9,7.1-1.7
	c2-0.7,3.8-1.4,5.8-1.4c0.9,0,1.7,0.1,2.6,0.4c4.8,1.5,9.1,3.7,11.4,5.9c0.7,0.7,1.5,1.9,2.4,3.1c2,2.8,4.3,6.1,7.6,6.7
	c0.3,0.1,0.7,0.1,1,0.1c3.2,0,5.7-2.8,8-5.5c1.3-1.5,2.7-3.1,3.8-3.6c0,0,0,0,0.1,0c0.4,0,1,0.2,1.7,0.3c1.1,0.3,2.5,0.6,4.1,0.6
	c0,0,0.1,0,0.1,0c4.6,5.6,9.8,10.6,16.1,10.6c0,0,0,0,0,0c2.8,0,5.6-1.1,8.3-3.1c1.8-1.4,2.3-3.5,2.8-5.3c0.5-2.1,0.9-3,1.8-3.3
	c0.2,0,0.4-0.1,0.6-0.1c0.9,0,2.1,0.3,3.2,0.6c1.3,0.3,2.6,0.7,3.8,0.7c0.8,0,1.5-0.1,2.1-0.4c3.2-1.6,3.9-4.4,4.3-6.5
	c0.2-1,0.4-1.9,0.8-2.6c3.4,0.1,13.8,0.5,15.6,0.6c0.3,0.1,0.5,0.3,0.5,0.5c0.1,0.8-1.1,2.4-2.2,3.1c0,0,0,0,0,0c0,0-0.3,0-0.7,0
	c-0.5,0-1,0-1.5-0.1c-0.6,0-1.1-0.1-1.6-0.1c-0.7,0-2.7,0-3.6,1.7c-0.9,1.8,0.2,3.8,1.4,5.9c0.4,0.7,1,1.9,1.3,2.6
	c-0.3,0-0.6,0-0.9,0.1c-4.1,0.2-7.9,0.6-9.4,2.6c-0.6,0.8-0.8,1.7-0.6,2.7c1,4.5,7.5,11.9,13.1,11.9c0.2,0,0.4,0,0.5,0
	c2.2-0.2,3.3-1.3,3.9-1.9c0.1-0.1,0.1-0.1,0.2-0.2c0.2,0.1,0.6,0.2,1.3,0.6c0.8,0.5,1.4,1.9,1.9,3.4c0.9,2.3,2,5.1,5,5.8
	c0.9,0.2,1.7,0.3,2.5,0.3c0,0,0,0,0,0c2.4,0,3.8-1.1,4.5-2c2.4-3,1.3-8.1,0.5-11.5c-0.1-0.3-0.2-0.7-0.2-1c0.5-0.3,1.2-0.6,1.8-0.9
	c0.4-0.2,0.8-0.3,1.1-0.5c1.5-0.8,3-1.3,4.7-1.8c2.5-0.8,5.1-1.7,7.5-3.4c0.4-0.3,0.8-0.7,1.4-1.2c0.7-0.6,2.1-2,2.9-2.3
	c0.4,0.3,1.2,1.6,1.5,2.2c0.9,1.7,2,3.5,4,3.5c0,0,0.2,0,0.2,0c1.6-0.1,2.2-1.5,4-5.1c1-2.2,3-6.2,4.1-6.9c0.8-0.5,2.3-0.7,3.7-0.9
	c2.4-0.4,5.2-0.8,6.8-2.7c1.3-1.5,2.6-3.4,3.9-5.4c2.2-3.2,4.4-6.5,6.7-8.2c1.7-1.3,3.7-2,6-2.7c0.2-0.1,0.5-0.2,0.8-0.3
	c0.4,2.6,0.5,5.8,0,8.7c-0.7,4-0.5,10.5-0.2,16.8c0.2,5.3,0.5,13.3-0.4,14.7c-1.8,2.2-2.8,8.5-4.2,19.2c-0.3,2-0.5,3.6-0.6,4.3
	c0,0.2-0.2,0.9-1.1,2.9c-4.6-2-10.8-3.4-15.4-3.4c-1.9,0-3.5,0.3-4.7,0.8c-1.9,0.8-3.5,2.2-5,3.6c-1.6,1.4-3,2.8-4.7,3.1
	c0,0-0.1,0-0.1,0c-0.5,0-1.2-0.4-2-0.8c-1.2-0.7-2.8-1.5-4.7-1.5c-1.4,0-2.7,0.4-4,1.3c-2.3,1.5-2.6,4.2-3,6.6c-0.3,2.4-0.6,4-1.8,5
	c-2.6,0.3-16.1,1.6-19.1,1.6c-0.1,0-0.2,0-0.2,0c-2.7-0.5-4.3-2.4-6.2-4.6c-2.5-3-5.7-6.6-12.2-6.7c-1.8,0-3,1-3.9,1.7
	c-0.8,0.6-1.1,0.9-1.6,0.9c0,0-0.1,0-0.1,0c-0.4,0-0.6-0.2-1.2-1.9c-0.6-1.9-1.7-5-5.7-5c-1.5,0-3.2,0.4-5.4,1.3
	c-3.3,1.4-4.8,4.1-6.1,6.6c-0.9,1.7-1.8,3.3-3.1,4.3c-0.2,0.2-0.6,0.3-1.3,0.3c-0.3,0-0.7,0-1,0c-0.4,0-0.9-0.1-1.3-0.1
	c-0.9,0-2.2,0.1-3.5,1c-1.5,1-2.7,2.3-3.9,3.5c-2.4,2.4-4.4,4.5-7.9,4.6l-0.1,0c-3.9,0-12.8-2.3-15.6-4.3c-1-0.7-1.3-1.8-1.7-3.5
	c-0.3-1.2-0.7-2.6-1.5-3.9c-3.8-6-11.9-8.7-17.9-8.7c-0.9,0-1.8,0.1-2.6,0.2c-8,1.1-9.9,7-11.7,12.2c-1.5,4.5-2.8,8.4-7.7,9.5
	C1252.1,534.7,1251.9,534.7,1251.7,534.7z"/>
<path id="estadoAL" class="st5" d="M1393.3,575.2c-1.3-0.8-2.6-1.8-3.8-3.1c-1.2-1.4-1.9-3.3-2.6-5.3c-0.8-2.2-1.5-4.4-3.1-6.4
	c-3.6-4.5-7.2-5-10.7-5.5c-2.1-0.3-4-0.5-6.1-1.6c-1.9-1-2.9-2.2-4.1-3.6c-0.8-1-1.6-2-2.8-3c-8.2-7.1-17.6-8.6-26.6-9.2
	c-0.3,0-0.6,0-1,0c-1.9,0-3.9,0.3-6,0.6c-2,0.3-4,0.6-5.8,0.6c-1.3,0-2.3-0.2-3-0.5c-0.2-0.1-0.9-0.9-1.8-2.1c2.5-1.1,4.3-3,6-4.7
	c1.1-1.1,2.2-2.2,3.3-3c0.3-0.2,0.6-0.3,1.2-0.3c0.3,0,0.7,0,1,0c0.4,0,0.9,0.1,1.3,0.1c1,0,2.4-0.1,3.8-1.2c2-1.6,3.2-3.7,4.2-5.6
	c1.2-2.1,2.2-4,4.1-4.8c2-0.9,3.2-1,3.8-1c1,0,1.3,0.3,2,2.3c0.6,1.7,1.5,4.3,4.6,4.6c0.2,0,0.3,0,0.5,0c2,0,3.2-1.1,4.2-1.8
	c0.6-0.5,1-0.8,1.3-0.8c4.7,0,6.8,2.5,9.2,5.3c2.1,2.4,4.5,5.2,8.6,6c0.2,0,0.5,0.1,0.9,0.1c0.2,0,19.8-1.3,21-2.1
	c3.1-2.1,3.5-5.4,3.9-8c0.2-1.7,0.4-3.3,1.2-3.8c0.6-0.4,1.2-0.6,1.7-0.6c0.9,0,1.8,0.5,2.8,1c1.1,0.6,2.4,1.3,3.9,1.3
	c0.3,0,0.6,0,0.9-0.1c2.7-0.6,4.7-2.4,6.6-4.1c1.3-1.2,2.5-2.3,3.8-2.8c0.4-0.2,1.3-0.4,3.1-0.4c4,0,9.7,1.3,13.8,3.1
	c-2.1,4.4-4.8,9.7-6.2,12c-2.2,3.7-8.4,10.1-8.5,10.2c0,0-0.1,0.1-0.1,0.1c-3.2,4-8.5,10.3-9.7,11.5c-1.7,1.6-8.1,6.4-9.8,7.4
	c-1.7,1-2.8,3.7-4.5,8c-0.6,1.5-1.3,3.2-1.7,3.8c-0.2,0.3-0.5,0.8-0.8,1.3C1396.5,570.7,1395.2,573,1393.3,575.2z"/>
<path id="estadoSE" class="st5" d="M1359.2,609.5c-4.3-0.1-7.9-0.5-10.9-2.1c-1-0.6-1.1-1-1-2.8c0.1-1.8,0.3-4.5-2.4-6.5
	c-1-0.8-2.1-1.1-3.6-1.1c-1,0-1.9,0.2-2.8,0.3c-0.8,0.1-1.6,0.3-2.2,0.3c-1,0-1.3-0.3-1.5-0.6c-0.4-0.6-0.4-1-0.2-2.3
	c0.1-0.4,0.1-0.8,0.1-1.3c0.1-0.9-0.1-1.9-0.3-3c-0.2-0.9-0.4-2.5-0.3-2.9c0.9-1.3,2.8-2.4,4.7-3.5c1.8-1,3.6-2.1,4.9-3.5
	c1.6-1.7,1.3-3.6,1.1-4.7c-0.1-0.4-0.1-0.8-0.1-1c0.1-0.4,0.2-0.8,0.3-1.1c0.5-1.3,1-3-0.2-5.3c-0.6-1-1.7-2.2-4.1-2.2
	c-1.3,0-2.7,0.3-4.1,0.7c-1.3,0.3-2.7,0.6-3.8,0.6c-1.1,0-1.5-0.3-1.8-0.6c-2.4-2.5-1.9-4.5-0.8-7.8c0.9-2.5,1.8-5.4,0.1-8.4
	c-1.1-1.8-3.6-3-6.2-4.3c-2.2-1-5.5-2.6-5.6-3.9c0,0,0,0,0-0.1c0.7,0.1,1.4,0.2,2.2,0.2c2,0,4.2-0.3,6.3-0.6
	c1.9-0.3,3.8-0.6,5.3-0.6c0.2,0,0.5,0,0.7,0c8.2,0.5,16.9,1.9,24.2,8.2c0.9,0.8,1.6,1.6,2.3,2.5c1.3,1.5,2.7,3.3,5.4,4.7
	c2.7,1.4,5.2,1.7,7.4,2c3.2,0.4,5.5,0.8,8.2,4c1.2,1.4,1.8,3.3,2.5,5.2c0.8,2.3,1.6,4.7,3.4,6.7c1.2,1.4,2.6,2.5,3.9,3.4
	c-0.3,0.3-0.6,0.5-1,0.8c-2.9,2.1-3.8,2.4-4.8,2.7c-0.7,0.2-1.4,0.4-2.6,1.1c-1.1,0.6-2.4,1.2-3.7,1.8c-2,0.9-4.1,1.8-5.9,3
	c-2.7,1.7-7.7,5.6-10.1,11.9c-0.8,2.1-1.5,4.4-2.1,6.7C1359.8,607.2,1359.5,608.4,1359.2,609.5z"/>
<path id="estadoCE" class="st5" d="M1292.9,469.7c-0.1,0-0.2,0-0.3,0c-1.8-0.3-3.6-2.9-5.1-5.1c-1-1.4-1.9-2.7-2.9-3.6
	c-3.9-3.8-10.4-6-13-6.8c-1.2-0.4-2.5-0.6-3.7-0.6c-2.7,0-5,0.8-7.2,1.7c-2,0.7-3.8,1.4-5.8,1.4l-0.2,0c-1.1,0-2.2-0.2-3.4-0.3
	c-1.2-0.2-2.3-0.3-3.6-0.4c-0.1,0-0.6-0.1-1.2-0.2c-2.1-0.4-5.4-1.1-8.4-1.2c-0.8-1.1-1.3-2.5-0.8-4.2c0.2-0.7,1.9-2.2,2.9-3.1
	c1.2-1,2.3-2,3-3c2.2-3.1,2.2-11.5,0.5-14.5c-1.4-2.6-5.2-2.6-6.4-2.6c-2.3,0-4.7,0.4-6.5,0.6c-0.4,0.1-0.9,0.1-1.2,0.2
	c-1.3-2.8-0.1-8.2,0.9-12.7c0.8-3.4,1.5-6.6,1.3-9c-0.3-3.5-2.6-4.9-4.2-5.9c-1-0.6-1.8-1.1-2.2-1.8c-0.9-1.7-0.9-3.5-0.9-5.5
	c0-1.8,0-3.8-0.6-5.9c-0.6-1.8-1.7-3-2.8-4.1c-0.9-1-1.7-1.8-2.1-2.9c-0.6-1.6-0.2-3.9,0.2-6.2c0.3-1.9,0.7-3.8,0.5-5.6
	c-0.2-2.4-1-4.4-1.8-6.3c-0.9-2.2-1.7-4.1-1.5-6.4c0.2-1.6,1.1-3.1,2-4.8c1.2-2.1,2.4-4.3,2.5-6.9c0.1-4-0.2-13.9-3.5-18.2
	c-1.6-2.1-3.5-2.9-5.1-3.6c-1.1-0.5-2-0.9-2.9-1.6c-2.6-2.2-2.2-5.9-1.8-9.7c0-0.4,0.1-0.9,0.1-1.3c0.3-2.9,1.4-5.7,2.6-8.5
	c12.9-0.8,34.2-4.2,37.6-5c0.5-0.1,1.2-0.2,1.9-0.2c1,0,2,0.1,3.1,0.2c1.2,0.1,2.4,0.3,3.7,0.3c2,0,3.6-0.3,5.1-1
	c0.2-0.1,0.3-0.1,0.5-0.1c1.1,0,2.7,2.5,3.8,4.3c1.1,1.8,2.2,3.5,3.5,4.5c3.2,2.4,8.9,4.5,13.3,5c2.9,0.3,8.2,4,12.1,7.5
	c3.1,2.8,13.4,11.5,20.9,17.8l2.9,2.5c6.2,5.2,15.6,8.4,18.7,9.3l3.4,9.2c0.1,0.4,0.4,0.7,0.8,1c0.2,0.1,4.8,3.1,9.2,3.1
	c0.3,0,0.6,0,1,0c0,0,0,0,0,0c0.5,0,2.1,0.3,5.2,3.7c-1.3,0.6-2.7,1.1-4.1,1.7c-1.9,0.8-3.9,1.5-5.8,2.5
	c-10.2,5.1-10.7,10.1-11.2,15c-0.3,3-0.6,5.8-3.1,9.2c-2.7,3.6-6.5,6-10.5,8.5c-3.4,2.1-6.9,4.3-9.7,7.4c-2.1,2.2-4.1,7-3.9,11.1
	c0.1,2.3,0.9,4.2,2.3,5.4c0.9,0.8,2,1.2,3.4,1.2c0.9,0,1.9-0.2,2.7-0.4c0.6-0.1,1.2-0.2,1.6-0.2l3.5,0c1.6,0,3,0,4.3-0.3
	c0.1,0.7,0.2,1.4,0.3,2c0.5,2.2-1.9,4.1-4.5,6c-1.8,1.3-4.8,1.4-7.5,1.4c-0.5,0-2.4,0-2.9,0c-3.6,0-7.2,0.2-9.5,2.7
	c-1.5,1.6-2.2,3.9-2,6.9c0.2,3.2,3,4.3,4.9,5.1c2,0.8,2.6,1.2,2.7,2.1c0.1,1.3-0.2,2.6-0.4,4c-0.4,2.1-0.9,4.5,0,6.9
	c-0.1,0-0.1,0-0.2,0c-0.9-0.2-1.8-0.5-2.7-0.5c-0.6,0-1.1,0.1-1.6,0.3c-2,0.8-3.6,2.7-5.3,4.7
	C1296.2,467.5,1294.3,469.7,1292.9,469.7z"/>
<path id="estadoRS" class="st5" d="M769,1498.1c-0.1-0.8-0.2-1.9-0.3-2.8c-0.1-1.8-0.3-3.8-0.7-5.3c-0.9-3-0.7-8.2,0.5-15.4
	c0.7-4.2,1.2-6.9,2.5-15l0.6-3.8c0.8-4.6,0.7-6.6-0.4-7.8c-0.5-0.6-1.3-1-2.2-1c-0.5,0-1,0.1-1.4,0.2c-0.1,0-0.3,0.1-0.5,0.1
	c-0.3-0.5-0.7-1.2-1.2-1.9c-2.8-4.6-8.1-13.2-12.7-17.3c-5.6-5-10.2-6.8-14.8-8.3c-2.8-0.9-5.8-5-8.3-8.2c-1.2-1.6-2.3-3-3.3-4.2
	c-3.8-4.2-17.7-12.5-22.7-13.9c-2.1-0.6-4.4-5.9-6-9.8c-1.3-3-2.5-5.9-3.9-7.7c-1-1.3-2.5-3-4.9-3c-1.8,0-3.4,0.9-5.5,2
	c-1.2,0.7-2.6,1.4-4.2,2.1c-0.8,0.4-1.5,0.7-2.1,1c-1.2,0.6-2.1,1-2.7,1c-1.5,0-4.7-3.3-10.1-9.2c-3.2-3.4-4.5-5.1-5.1-5.9
	c0.1-0.2,0.1-0.3,0.1-0.4c0.2-1.3-0.6-2.2-2.7-4.2c-3.4-3.2-4.1-3.6-5.8-3.9c-0.7-0.1-1.7-0.2-5-1.9c-3.6-1.8-5-3.6-6.3-5.1
	c-1.4-1.8-2.9-3.6-6.7-4.1c-0.7-0.1-1.4-0.1-2.1-0.1c-2.1,0-4,0.4-5.8,0.7c-1.7,0.3-3.4,0.7-5.2,0.7c-0.9,0-1.9-0.1-2.8-0.3
	c-0.7-0.1-1.1-0.3-1.3-0.4c0.3-0.7,1.3-2.2,2.1-3.4c1.1-1.5,2.4-3.4,3.7-5.7c3.4-6,6.5-7.7,10.2-9.6c0.9-0.5,1.8-1,2.7-1.5
	c5.1-3.1,14.2-9.5,20.2-14.6c4.6-3.9,8.3-11.7,11-17.4c1.1-2.3,2-4.3,2.8-5.5c2.6-4.3,8.4-10.8,13-16.1c1.6-1.8,2.9-3.8,4.3-5.9
	c2.9-4.4,6.1-9.3,12.8-13.8c6.4-4.3,14.3-6.8,21.3-9c4-1.2,7.7-2.4,10.9-3.8c3.5-1.5,6.2-2.4,8.7-3.2c3.6-1.2,6.8-2.2,10.6-4.8
	c1-0.7,1.9-1.5,2.8-2.5c2.3,0.2,5,0.4,7.6,0.4c4.5,0,10.5-0.4,14.3-2.2c2.9-1.4,5-2,6.8-2c2.2,0,4.2,0.9,7.3,2.4
	c0.9,0.4,2,0.9,3.1,1.4c2.4,1.1,5,1.2,7.5,1.3c2.4,0.1,4.6,0.2,6.4,1.1c2.1,1.2,4.2,2.5,6.3,4c3.2,2.2,6.5,4.4,10.2,5.8
	c3.7,1.4,7.5,1.7,11.2,1.9c4.4,0.3,8.6,0.5,12.1,2.8c0.9,0.6,1.3,1.8,1.7,3.3c0.3,1,0.6,1.9,1.1,2.9c3.1,6,7.1,11.5,10.9,16.7
	c0.6,0.8,1.2,1.7,1.8,2.5c0.8,1,1.2,2.3,1.7,3.6c0.9,2.3,1.9,4.9,4.6,6.7c2,1.3,4.2,1.9,6.9,1.9c3.4,0,6.8-0.9,10.1-1.9
	c2.7-0.7,5.2-1.5,7.2-1.5c1.8,0,2.8,0.6,3.4,2c2.5,5.5-6,16.1-10.6,21.7c-1.1,1.4-2.1,2.5-2.8,3.5c-0.2,0.3-0.9,0.9-1.6,1.5
	c-2.2,2-5.3,4.6-4.2,7.8c0.4,1.1,1.5,3,4.5,3c1.7,0,3.7-0.6,5.8-1.3c2.1-0.7,4.2-1.3,5.9-1.3c0.3,0,0.6,0,0.8,0.1
	c-0.8,1.8-1.6,3.7-2.3,5.5c-0.8,2.1-1.7,4.3-2.3,5.2c-2.2,3.1-3.9,11.1-4.2,12.5c-0.5,1.4-4.5,12.6-5.1,14.5
	c-0.3,1.2-4.3,9.7-7.9,17.2c-0.1,0.1-0.1,0.3-0.1,0.4c0,0.1-1.8,7.3-3.6,10.7c-1,1.9-3.6,4.7-5.6,7c-1.9,2.1-3,3.3-3.5,4.3
	c-0.5,0.8-3.3,4.4-5.4,6.9c-2.2,2.6-4,4.9-4.6,5.9c-0.8,1.2-7.8,6-10.7,8.1c-2,1.4-3.2,2.2-3.7,2.6c-0.3,0.3-0.8,0.6-1.3,1
	c-1.8,1.3-4.5,3.3-6.6,5.9c-1.1,1.4-2.3,2.6-3.4,3.5l-1.1-3.9l5-4.5c1.3-0.5,5-2,7.8-5.1c2.4-2.6,4.5-5.4,5.3-6.5
	c1.3-0.5,4.5-1.9,6.5-2.8c3.3-1.6,4.5-4.5,5.3-8.9c0.4-2,1.1-3.5,1.8-5c0.8-1.6,1.5-3,1.6-4.8c0-0.6,0.4-1,1.9-2.5
	c1.5-1.5,3.8-3.8,6.8-7.9c2.8-3.8,3.6-5.2,2.9-6.7c-0.4-0.7-1.1-1.2-1.9-1.2c0.1,0,0.1,0,0.2-0.1c0.1,0,0.2,0,0.3-0.1
	c0.4-0.1,4.3-1.4,4.8-8c0.1-1.5-0.2-2.5-0.8-3.3c-0.5-0.6-1.3-0.9-2.1-0.9c-1.9,0-4.1,1.7-7.5,4.6c-1,0.9-2.1,1.8-3.1,2.5
	c-1.3,0.9-2.3,1.7-3.2,2.3c-2.1,1.5-3.5,2.5-5.9,4.8c-1.1,1-1.9,1.7-2.6,2.4c-1.5,1.3-2.8,2.4-5,5.2c-3.1,3.8-4.3,7.2-5.5,10.4
	l-0.4,1.1l-0.4,1.1c-1,2.8-1.3,3.6-1.1,7.7c0.1,2.7-2.6,3.8-3,3.9c-0.6,0.2-3.6,1-7.1,2.1l-0.9,0.3c-2.1,0.7-3.2,1.2-3.2,3.7
	c0,0.5,0,1-0.1,1.9c-0.2,1.7-1.1,2.7-2.2,4c-0.8,0.9-1.7,2-2.4,3.4c-0.3,0.6-0.6,1.1-0.9,1.6c-1.3,2.1-2.8,4.5-0.7,9.5
	c1.3,3.1,1.2,5.1,1.1,5.9c-1.6,1.2-6.3,4.6-8.8,7.5c-2.6,3-2.5,6.4-2.4,8.9c0,0.8,0.1,1.6,0,2.2c-0.3,2.7-4.6,9.1-6.6,12.2
	c-2.5,3.8-3.4,4.3-5.8,5.7c-0.6,0.3-1.3,0.7-2.1,1.2c-3.4,2.1-5,4.4-7.3,7.6c-0.7,1-1.6,2.2-2.6,3.5c-2,2.6-3.1,5.2-4.2,7.7
	C772.3,1493.4,771.2,1495.9,769,1498.1z"/>
<path id="estadoSC" class="st5" d="M881,1314.9c-0.6,0-0.6-0.1-0.7-0.4c-0.1-0.3,0.3-1.1,3.1-3.5c0.9-0.8,1.7-1.5,2.2-2.1
	c0.6-0.9,1.6-2,2.6-3.3c5.8-7.2,14.7-18.1,11.1-25.9c-1.3-2.9-3.7-4.3-7.1-4.3c-2.5,0-5.3,0.8-8.3,1.6c-3,0.8-6.2,1.7-9,1.7
	c-1.9,0-3.5-0.4-4.8-1.2c-1.7-1.1-2.3-2.7-3-4.7c-0.5-1.4-1.2-3-2.2-4.5c-0.6-0.8-1.2-1.7-1.8-2.5c-3.8-5.1-7.6-10.5-10.6-16.2
	c-0.3-0.6-0.5-1.4-0.8-2.2c-0.6-1.9-1.2-4.2-3.4-5.5c-4.4-2.8-9.3-3.1-14-3.4c-3.5-0.2-6.9-0.4-10-1.6c-3.3-1.3-6.3-3.3-9.5-5.4
	c-2.1-1.4-4.3-2.9-6.6-4.2c-2.6-1.4-5.4-1.5-8.1-1.6c-2.2-0.1-4.3-0.2-6-0.9c-1.1-0.5-2.1-1-3-1.4c-3.4-1.6-5.9-2.7-9-2.7
	c-2.4,0-5.1,0.7-8.5,2.4c-2.4,1.1-6.9,1.8-12.6,1.8c-1.7,0-3.5-0.1-5.1-0.2c2.2-4.6,3-10.7,2.1-16.9c-0.5-3.5-1.5-6.3-2.4-8.7
	c-1.3-3.4-1.9-5.5-1.1-7.4c0.5-1.1,0.8-2.4,0.9-4.1c4.7,0.7,9.1,1.4,13.6,2.6c1.1,0.3,2.3,0.8,3.5,1.4c2.3,1,4.7,2.1,7.2,2.1
	c0.2,0,0.4,0,0.6,0c2-0.1,3.5-1.4,4.7-2.4c0.9-0.7,1.7-1.4,2.3-1.4c0.1,0,0.2,0,0.3,0c1.7,0.4,3.1,1.9,4.5,3.5
	c1.1,1.2,2.3,2.5,3.8,3.5c0.9,0.5,1.9,0.8,3.2,0.8c0.8,0,1.6-0.1,2.4-0.2c0.7-0.1,1.4-0.2,1.9-0.2c0.4,0,0.7,0,0.9,0.1
	c2.5,0.8,4.9,1.5,7.4,2.3c2.5,0.8,5.1,1.5,7.6,2.3c1.4,0.4,2.9,1,4.5,1.6c4.3,1.6,9.1,3.5,13.8,3.5c2.7,0,5.2-0.6,7.3-1.9
	c3.1-1.9,2.6-5.1,2.2-7c-0.2-1-0.4-2.1-0.1-2.5c0.8-1.1,1.6-2.6,2.4-4.2c1.2-2.2,2.8-5.3,4.1-6c0.8-0.4,1.9-0.6,3-0.9
	c2.1-0.5,4.6-1,6.3-2.8c0.7-0.8,1.4-1.8,2.2-2.9c1.5-2.1,3.3-4.8,5.1-5c0.2,0,0.4,0,0.6,0c1.8,0,3.7,0.7,5.7,1.3
	c1.3,0.4,2.6,0.9,3.9,1.2c0.9,0.2,1.7,0.3,2.7,0.3c1.2,0,2.3-0.1,3.4-0.2c1-0.1,2-0.2,2.9-0.2c1.2,0,2.3,0.2,3.2,0.6
	c1,0.4,2.6,1.8,4.2,3.1c3.1,2.6,6,5.1,8.6,5.1c0,0,0,0,0,0c0.1,0,0.3,0,0.4,0c3.6-0.3,5.8-2.8,7.9-5c1.9-2.1,3.5-3.8,5.9-3.8
	c0.6,0,1.3,0.1,2,0.3c1.5,0.5,3.1,1,4.7,1.5c5.4,1.7,11.5,3.7,17.6,4.8c0.2,0.8,0.3,1.7,0.5,2.7c0.4,3.2-0.9,6.6-2.2,9.5
	c-0.7,1.7-1.4,3.3-1.6,4.7c-0.4,2.2-0.4,7.7-0.5,13.1c0,3.7-0.1,7.1-0.2,8.9c-0.3,3.2,1.6,6.4,3.5,9.4c1.1,1.8,2.1,3.5,2.5,5
	c0.8,3.3-0.1,7.2-3.2,12.8c-3.4,6.1-1,16.6-0.9,17.1c0.1,0.5,0.2,1.8-0.2,2.3c-0.1,0.1-0.3,0.4-1.1,0.4c-6.1,0.4-6.7,5.2-7.1,9.4
	c-0.2,1.5-0.1,2.5-0.1,3.2c0,1.1,0,1.1-1.2,2.2c-0.9,0.8-1.9,1-3.1,1.2c-1.6,0.3-3.6,0.7-5.1,2.8c-1.9,2.6-8.6,9.1-11.2,11.2
	c-1,0.8-2.8,2.3-4.8,3.9c-3.2,2.7-7.2,6.1-9.5,7.7c-0.8,0.6-1.6,1.4-2.4,2.6c-0.9-0.3-1.8-0.5-2.8-0.5c-2.4,0-4.9,0.8-7.1,1.5
	C883.9,1314.4,882.1,1314.9,881,1314.9z"/>
<path id="estadoPI" class="st5" d="M1072.6,584.3c-1.9,0-3.3-0.3-4.3-0.9c-2.4-1.3-3.6-4-4.9-6.9c-1.7-3.6-3.5-7.7-8.2-9.7
	c-1.1-0.5-2.3-0.7-3.5-0.7c-1.9,0-3.7,0.5-5.2,1c-1.3,0.4-2.6,0.7-3.6,0.7c-0.3,0-0.5,0-0.7-0.1c-0.2-2.3,2.2-10,3.5-13.7
	c1.4-4.4,2.2-6.9,2.2-8.2c0.1-3.6-2.2-6.2-4.1-8.5c-1.8-2.1-3.5-4-3.7-6.6c-0.3-3.4,1.1-4.5,3.4-6.2c1.5-1.2,3.2-2.6,4.5-4.8
	c2.6-4.6,2.7-9.8,2.8-14.9c0.1-5.7,0.2-11.1,3.6-15.3c5.1-6.4,13.1-9.6,20.8-12.7c4.8-1.9,9.8-4,14.1-6.7c3.2-2,6.3-5.8,9.3-9.4
	c2.9-3.5,6-7.1,8.3-8.2c0.8-0.4,3.7-0.8,8-0.8c2.6,0,5.2,0.2,6.3,0.4c1.2,0.2,2.5,1.1,3.8,2.1c1.8,1.3,3.9,2.8,6.5,2.8
	c1,0,2.1-0.2,3.1-0.7c3.3-1.6,6-6.5,8.9-12.3c0.6-1.1,1-2.1,1.5-2.8c4.7-8.4,1.8-14.7-1-20.8c-2-4.4-4-8.6-3.3-13.9
	c0.6-4.6,3.6-6.7,7-9.2c2.9-2,6.1-4.3,7.8-8.2c2.8-6.1-1.4-12.2-5-17.4c-2.4-3.5-4.8-7-5-10.1c-0.5-8,4-12.1,9.1-16.8
	c2.6-2.3,5.2-4.8,7.4-7.8c3.5-4.9,7.9-9.1,12.1-13.1c5.5-5.2,11.1-10.6,15.2-17.8c1.1-2,1.9-4.5,2.3-7.1c1,0.3,2.1,0.5,3.3,0.7
	c1.5,0.3,3.2,0.6,5.2,1.1c1.1,0.3,2.7,0.4,4.8,0.4c0.1,0,0.1,0,0.2,0c-1,2.5-1.9,5.1-2.2,7.9c0,0.4-0.1,0.8-0.1,1.3
	c-0.5,4.3-1,9.6,3.2,13.2c1.4,1.2,2.8,1.8,4,2.3c1.4,0.6,2.5,1.1,3.5,2.4c2.1,2.7,2.8,10.2,2.7,15.7c0,1.6-1,3.2-2,5
	c-1.1,1.9-2.2,3.9-2.5,6.3c-0.4,3.3,0.8,6,1.8,8.4c0.7,1.7,1.4,3.3,1.5,5.1c0.1,1.4-0.2,3-0.5,4.7c-0.5,2.7-1,5.6-0.1,8.2
	c0.7,1.9,1.9,3.2,3,4.4c0.8,0.9,1.6,1.6,1.9,2.5c0.5,1.5,0.5,3,0.4,4.6c0,2.3,0,4.9,1.4,7.5c0.9,1.7,2.4,2.6,3.6,3.4
	c1.5,0.9,2.2,1.4,2.3,2.7c0.1,1.8-0.5,4.7-1.2,7.8c-1.4,6.1-2.9,13,0.3,16.9c0.4,0.5,1.1,0.8,1.9,0.8c0.6,0,1.4-0.1,2.6-0.3
	c1.7-0.3,4-0.6,5.9-0.6c2.4,0,2.9,0.5,2.9,0.5c1,1.9,0.8,8.7-0.3,10.3c-0.4,0.6-1.4,1.5-2.3,2.3c-1.8,1.6-3.6,3.2-4.1,4.9
	c-0.6,2-0.4,4,0.4,5.9c-0.8,0.3-1.4,0.7-1.8,1.2c-0.7,0.8-1,1.8-0.9,2.8c0.3,3.2,3.5,4,5.6,4.4c0.8,0.2,2.2,0.5,2.5,0.8
	c2,4.8-3.1,23.1-6.7,26.9c-0.8,0.8-4.6,1.9-7.7,2.8c-7.8,2.2-17.4,5-17.4,11.7c-4.3,3-8,6.8-11.5,10.5c-4.3,4.5-8.8,9.1-14.3,12.2
	c-0.6,0.3-1.4,0.5-2.5,0.5c-1,0-2.2-0.1-3.3-0.3c-1.2-0.1-2.2-0.3-3.3-0.3c-1.5,0-2.6,0.3-3.4,0.9c-1.3,0.9-2.1,2.4-2.8,3.9
	c-0.4,0.8-1,2.1-1.4,2.4c-0.9,0.1-1.8,0.2-2.7,0.2c-3.7,0-6.8-1.1-10.4-3.9c-0.5-0.4-0.9-1-1.3-1.6c-0.9-1.3-2-3-4.3-3.7
	c-0.4-0.1-0.8-0.2-1.2-0.2c-1.5,0-2.9,0.6-4.2,1.2c-0.9,0.4-1.9,0.8-2.5,0.8c-0.1,0-0.1,0-0.2,0c-0.4-0.2-1.2-1-1.8-1.6
	c-1.4-1.5-3-3.3-5.4-3.3c-1.1,0-2.2,0.4-3.2,1.2c-11.1,8.9-7.6,15.4-4.8,20.7c1.9,3.6,3.5,6.7,1.6,10.8
	c-1.7,3.7-14.5,17.1-17.8,18.6c-1,0.5-2.3,0.6-3.7,0.8c-1.7,0.2-3.5,0.3-5.2,1.2c-1.7,0.8-2.7,2.2-3.7,3.5c-0.8,1-1.5,1.9-2.4,2.4
	c-0.6,0.3-1.2,0.4-2.1,0.4c-0.6,0-1.2-0.1-1.9-0.1c-0.7-0.1-1.5-0.1-2.3-0.1c-0.6,0-1.2,0-1.7,0.1c-0.7,0.1-1.5,0.3-2.4,0.4
	C1078.2,583.8,1075.3,584.3,1072.6,584.3z"/>
<path id="estadoBA" class="st5" d="M1273.1,870.9c-2.7-0.4-5.3-1-6.9-1.6c-4.1-1.6-6.7-4-9.5-6.5c-1-0.9-2-1.8-3.1-2.7
	c1.9-4,3.1-7.9,1.2-10.6c-1.1-1.5-2.8-3.6-5.3-3.6c-1.5,0-2.7,0.7-3.8,1.3c-0.6,0.3-1.1,0.6-1.6,0.8c-1.2-3-4-10.5-4.4-11.9
	c0.4-4.6,2.7-14.7,4.5-18.5c0.2-0.4,1-0.7,2.3-1.1c2.1-0.6,5.2-1.6,6.7-5.4c0.9-2.4,0.8-4.9,0.6-7.3c-0.1-2.5-0.3-4.8,0.8-6.7
	c0.4-0.7,2.1-2.1,3.5-3.3c4.1-3.4,8.7-7.2,6.9-11.2c-1.4-3.2-5.8-3.8-9.3-4.3c-1.1-0.2-2.2-0.3-2.9-0.5c-1.1-0.3-1.9-1.5-2.8-2.9
	c-1.2-1.7-2.6-3.7-5-4.7c-1.3-0.5-2.6-0.8-4.3-0.8c-1,0-2,0.1-2.9,0.2c-0.9,0.1-1.8,0.2-2.6,0.2c-1.2,0-2.1-0.2-2.9-0.5
	c-0.4-0.2-1.1-0.7-1.7-1.2c-1.3-1.1-2.9-2.4-4.9-2.4c-0.5,0-1,0.1-1.5,0.3c-2.2,0.8-3.7,2.4-5.1,3.9c-1.7,1.8-2.8,2.8-4.2,2.8
	c-0.9,0-1.9-0.4-3.1-1.2c-1-0.7-1.1-2-1.2-4.1c0-1.1-0.1-2.3-0.4-3.4c-1.5-5.6-5.4-12.9-10.7-16.6c-2.2-1.5-13.3-6.3-17-6.3
	c-2.9,0.1-4.6,2-5.9,3.3c-0.9,1-1.5,1.7-2.1,1.7c-0.3,0-0.7-0.1-1.1-0.4c-1.1-0.6-2.1-1.8-3.1-3c-1-1.1-2-2.3-3.3-3.2
	c-1.6-1.2-3.6-2-5.6-2.7c-2.7-1.1-5.5-2.2-6.7-4.1c-0.4-0.6-0.8-2.7-1.1-4.4c-0.8-4.5-1.7-9.6-5.2-11c-0.7-0.3-1.4-0.4-2.1-0.4
	c-3.4,0-6.8,2.8-10.4,5.8c-3,2.5-6.4,5.3-8.8,5.3c-0.1,0-0.2,0-0.3,0c-3-0.4-3.7-1.9-4.8-4.9c-0.6-1.8-1.4-3.8-3-5.4
	c-1.3-1.3-15.2-2.4-15.4-2.4c-0.1,0-0.3,0-0.4,0c-1.5,0.2-2.5,1.3-3.3,2.2c-0.3,0.3-0.7,0.8-0.9,0.9c-1.1,0.6-2.8,0.7-4.3,0.7
	c-0.5,0-1,0-1.5,0c-0.5,0-1,0-1.5,0c-2.3,0-6.6,0-8.9,3.9c-0.9,1.6-0.8,3.3-0.7,4.7c0.1,0.9,0.1,1.7-0.1,2.2
	c-0.2,0.3-0.5,0.4-1.9,0.5c-1.4,0.1-3.5,0.2-4.7,2.1c-1.1,1.7-1.6,3.2-2.1,4.6c-0.8,2.2-1.3,3.7-3.8,5.2c-4.3,2.7-7.6,3-10.6,3
	c-1.4,0-2.8-0.1-4.3-0.2c-1.7-0.1-3.5-0.2-5.5-0.2c-0.3,0-0.6,0-0.9,0c-1.5,0-2.8,1.2-5.4,3.6c-2.1,1.9-5.5,5.2-7.3,5.2
	c-0.1,0-0.5,0-0.9-1.1c0.1-0.2,0.4-0.7,0.6-1c0.4-0.6,0.9-1.2,1.1-2c3.5-11.1,5.4-22.6,5.3-30.9c-0.1-4-2-6.1-5.7-6.1
	c-0.7,0-1.4,0.1-2.1,0.1c-0.6,0.1-1.1,0.1-1.6,0.1c-0.3,0-0.5,0-0.6,0c-1.2-1.7-1-3-0.8-4.8c0.2-1.6,0.4-3.3-0.3-5.4
	c-0.6-1.6-2-2.5-3.3-3.4c-0.2-0.1-0.5-0.3-0.8-0.5c1.4-0.9,2.3-1.6,2.6-2.6c0.3-1,0.3-2.1,0.3-3.2c0-0.9,0-2.3,0.3-2.7
	c0.6-0.9,1.5-1.7,2.6-2.6c1.2-1,2.4-2.1,3.3-3.5c2.2-3.5,0-5.7-1.2-6.9c-0.8-0.8-1.2-1.2-1.2-1.8c0-0.7,1.3-2.4,2.3-3.6
	c1.7-2.2,3.5-4.5,3.5-7c-0.1-3.4-4-3.9-7.2-4.3c-0.9-0.1-2.2-0.3-3.1-0.5c0.1-0.1,0.1-0.2,0.2-0.2c0.8-1,1.7-2.2,1.7-3.6
	c0-2-1.2-3.6-2.1-5c-0.9-1.3-1.7-2.4-1.7-3.6c0-0.5,0-1.1-0.1-1.8c-0.1-1.9-0.3-5,0.2-6.2c0.5-1.2,2.5-2.3,4.6-3.4
	c4-2.2,9.5-5.2,7.7-11.9c-0.6-2.2-2.1-3.4-4.4-3.4c-1,0-1.9,0.2-2.8,0.4c-0.4,0.1-0.7,0.2-1,0.2c1.5-2.5,3.6-6.9,0.4-11.5
	c-2.3-3.4-5.8-3.4-8.4-3.4c-3.2,0-4.3,0-4.7-3.7c-0.2-2.2,0.3-2.4,3-3.1c2.2-0.6,4.9-1.3,6.6-4c1.7-2.6,0.1-5.8-1.4-8.9
	c-1.1-2.3-2.3-4.8-2.1-6.6c1.2-0.2,3.5-0.5,5.5-0.8c6.7-0.8,10.9-1.4,12.5-2.4c1.6-1,3-2.8,4.3-5.5c0.3-0.1,0.5-0.2,0.8-0.2
	c1.5-0.4,2.8-0.8,4.2-0.8c0.7,0,1.4,0.1,2,0.4c3.2,1.4,4.6,4.4,6.1,7.7c1.5,3.3,3.1,6.7,6.6,8.7c1.6,0.9,3.7,1.4,6.3,1.4
	c3,0,6.3-0.6,8.9-1.1c0.8-0.2,1.6-0.3,2.3-0.4c0.3-0.1,0.7-0.1,1-0.1c0.6,0,1.2,0.1,1.9,0.1c0.7,0.1,1.5,0.1,2.2,0.1
	c1.4,0,2.6-0.2,3.8-0.8c1.8-0.8,2.9-2.3,3.8-3.5c0.7-1,1.4-1.9,2.3-2.3c1-0.5,2.3-0.6,3.7-0.8c1.6-0.2,3.4-0.3,5-1.1
	c4.1-1.9,17.6-15.9,19.7-20.5c2.7-5.9,0.3-10.6-1.7-14.3c-2.7-5.1-4.7-8.9,3.8-15.7c0.3-0.2,0.5-0.3,0.7-0.3c0.6,0,1.7,1.2,2.4,2
	c0.9,1,1.9,2.1,3.2,2.6c0.5,0.2,1.1,0.3,1.7,0.3c1.4,0,2.8-0.6,4.1-1.2c0.9-0.4,1.9-0.9,2.5-0.9c0.1,0,0.1,0,0.2,0
	c0.8,0.2,1.3,0.9,2.1,2c0.6,0.9,1.2,1.8,2.2,2.6c4.4,3.3,8.2,4.8,12.8,4.8c1,0,2.1-0.1,3.3-0.2c2.3-0.3,3.4-2.6,4.4-4.6
	c0.4-0.8,1-2.1,1.5-2.4c0.1,0,0.3-0.2,1.2-0.2c0.8,0,1.8,0.1,2.8,0.2c1.2,0.2,2.5,0.3,3.8,0.3c1.8,0,3.3-0.3,4.5-1
	c6-3.4,10.6-8.2,15.2-12.9c3.4-3.5,6.6-6.9,10.4-9.6c1.8,1.4,5.2,2.6,10.5,4.2c1.6,0.5,3.4,1.1,3.9,1.3c2.9,1.5,4.5,4.3,6.1,7.2
	c1.4,2.5,2.8,5,5.2,7c1.9,1.7,4.2,2.9,6.4,4c1.7,0.9,3.3,1.7,4.7,2.8c1.5,1.1,3.7,2.7,6.3,2.7c0.5,0,1-0.1,1.4-0.2
	c7.1-1.7,8.9-7.3,10.5-12.2c1.8-5.4,3.1-8.7,8.4-9.5c0.7-0.1,1.4-0.1,2.1-0.1c5.1,0,11.7,2.3,14.6,6.8c0.5,0.8,0.7,1.7,1,2.8
	c0.5,1.8,1.1,4.1,3.2,5.7c3.8,2.8,13.7,5.1,18,5.1l0.2,0c0.2,0,0.4,0,0.6,0c0.8,1.2,1.9,2.8,3.1,3.8c-0.2,0.6-0.3,1-0.3,1.3
	c-0.2,4,4.1,6,7.8,7.7c1.8,0.9,4,1.9,4.5,2.7c0.8,1.3,0.3,2.8-0.4,5c-1.1,3.2-2.5,7.5,1.7,11.9c1.1,1.2,2.7,1.8,4.6,1.8
	c1.6,0,3.2-0.4,4.7-0.8c1.2-0.3,2.4-0.6,3.2-0.6c0.6,0,0.6,0.1,0.6,0.2c0.4,0.7,0.3,0.9-0.1,2c-0.1,0.4-0.3,0.9-0.4,1.4
	c-0.2,1-0.1,1.9,0,2.6c0.2,1,0.1,1.1-0.1,1.3c-1,1-2.5,1.9-4.1,2.8c-2.3,1.3-4.7,2.7-6.1,4.9c-1,1.6-0.7,3.7-0.3,5.7
	c0.1,0.8,0.3,1.6,0.3,2c0,0.4-0.1,0.7-0.1,1c-0.2,1.5-0.4,3.3,1,5.2c1.1,1.4,2.7,2.2,4.7,2.2c1,0,1.9-0.2,2.9-0.3
	c0.8-0.1,1.6-0.3,2.2-0.3c0.7,0,1,0.2,1.1,0.3c0.9,0.7,0.9,1.4,0.8,3.1c-0.1,1.9-0.3,4.8,3.1,6.6c3.4,1.9,7.4,2.4,11,2.6
	c0,0,0,0,0,0c-1.3,1.3-3,3.8-4.7,6.4c-1.5,2.3-3.1,4.6-4.4,6.1c-1.8,2.1-3.2,5.2-4.4,8c-0.7,1.5-1.5,3.4-1.9,3.9
	c-0.7,0.8-1.8,2.4-3.1,4.4c-1.9,2.9-4.3,6.5-6.1,8.2c-2,1.8-3.8,4.4-5.3,6.4c-0.9,1.2-1.9,2.5-2.3,2.9c-1.3,1.1-2.3,2.4-3.5,4
	c-0.4,0.5-0.8,1.1-1.3,1.7c-0.1,0.1-0.1,0.1-0.1,0.2c-0.3-0.4-0.8-1.4-1.2-3.5c-0.9-4.9-4.5-6.6-7.5-6.6c-0.3,0-0.7,0-1,0.1
	c-2.6,0.4-3.1,4-3.4,9.1c-0.2,2.9-1.1,7.1-2,8.3c-0.3,0.4-0.8,0.9-1.4,1.5c-1.9,1.9-4.6,4.4-4.5,7.7c0,0.4,0,0.7,0,1.2
	c0.1,3.2,0.3,8-1.6,11.7c-1.6,3.2-1.1,7.2-0.7,10.4c0.2,1.4,0.5,3.6,0.2,4.2c-1,1.8-1.1,4.9-1.2,8.9c0,1.5,0,3.3-0.2,3.9
	c-0.5,1.8,0.1,4.9,1,9.6c0.3,1.6,0.6,3.2,0.7,4.2c0.1,1.1,0.3,2.1,0.5,3.1c0.4,2.1,0.7,4,0.5,5.5c-0.1,0.5-0.2,1.2-0.4,2
	c-0.7,3.6-1.7,8.9-0.7,12.1c0.8,2.5,1.5,8.1,1.8,10.3c0,0-2,13.7-2,13.7c0,0.1-1.2,14.5-4.4,22c-2.1,5-2.1,9.5-2.2,13.4
	c0,2.7-0.1,5.2-0.7,7.6c-1.9,7-2.5,10.9-2.7,12.2c-0.4,2.8,2.2,5.4,4.9,8.2l0.3,0.3c0.4,0.7-1.4,4.3-5.8,8.5c-2,1.9-4.1,3-6.4,4.2
	c-1.1,0.6-2.3,1.2-3.4,1.9C1273.7,862.8,1273.1,866.8,1273.1,870.9z"/>
<path id="estadoPR" class="st5" d="M837.5,1202.9c-4,0-8.4-1.7-12.4-3.2c-1.7-0.6-3.3-1.2-4.8-1.7c-2.5-0.8-5.1-1.5-7.6-2.3
	c-2.5-0.7-4.9-1.5-7.4-2.2c-0.6-0.2-1.3-0.3-2-0.3c-0.8,0-1.6,0.1-2.4,0.2c-0.7,0.1-1.4,0.2-1.9,0.2c-0.7,0-0.9-0.1-1.1-0.2
	c-1-0.6-2-1.7-3-2.8c-1.7-1.9-3.6-4-6.5-4.7c-0.4-0.1-0.8-0.2-1.2-0.2c-2.1,0-3.6,1.3-4.9,2.3c-0.9,0.7-1.7,1.4-2.4,1.4
	c-0.1,0-0.2,0-0.3,0c-1.7,0-3.7-0.9-5.6-1.8c-1.3-0.6-2.7-1.2-4.1-1.6c-4.9-1.3-9.7-2.1-14.5-2.8c-0.1-5.7-1.3-12.4-2.4-17.2
	c-2.4-11-9.4-11.4-13.2-11.6c-0.8,0-1.7-0.1-2.7-0.1c-3.3-0.1-7.9-0.3-9.7-1.2c-1.3-1.7-1.4-11.9,0.7-18.2c0.7-2,1.3-3.9,1.9-5.9
	c1.5-4.7,2.9-9.2,4.7-13.4c2.5-5.8,3-13.7,2.7-19.7c1.3,0.1,2.6,0.2,3.9,0.2c3,0,5.7-0.5,8.2-1.7c6.5-2.9,7.8-10,9-16.3
	c0.6-3,1.1-5.9,2.2-7.9c1.6-3.1,4.3-5.4,7.2-7.9c2.5-2.1,5-4.2,6.9-7c1.1-1.5,1.8-3.8,2.5-6c0.5-1.5,1-3.2,1.6-4.1
	c0.1,0,0.2,0.1,0.3,0.1c0.5,0.1,1.1,0.3,1.8,0.3c0.6,0,1.2-0.2,1.7-0.5c1.2-0.7,1.8-1.7,2.2-2.4c0.4-0.6,0.5-0.8,0.7-0.9
	c0.4-0.1,0.8-0.2,1.3-0.2c1.8,0,3.8,0.8,5.8,1.6c2,0.8,4,1.6,6,1.8c2.3,0.2,4.6,0.3,6.9,0.3c3.3,0,6.4-0.2,9.4-0.6
	c2.9-0.4,4.7-2.6,6.1-4.4c0.9-1.2,1.8-2.3,2.6-2.3c0,0,0,0,0,0c1.2,0,1.8,0.8,3,2.6c1,1.6,2.2,3.4,4.4,4c1.5,0.4,3.4,0.6,5.9,0.6
	c1.5,0,3-0.1,4.6-0.1c1.5-0.1,3.1-0.1,4.6-0.1c2.7,0,6.1,0.2,8.2,1.5c1.4,0.9,2.9,2.7,4.5,4.5c2.4,2.8,4.8,5.5,7.5,6.2
	c0.4,0.1,0.8,0.1,1.2,0.1c2.2,0,4.5-1.3,6.8-2.6c1.6-0.9,3.3-1.9,4.4-2.1c0.8-0.1,1.8-0.2,2.9-0.2c5,0,12.2,1.3,15.7,2.9
	c1.6,0.7,3.6,1.2,5.6,1.7c2,0.5,4.1,1,5.5,1.7c1,1,3.2,5.5,3.3,7.2c-0.5,0.2-1.2,0.2-2,0.2c-1.5,0.1-3.3,0.1-4.8,1.5
	c-3.8,3.8-3.6,27.3-1.4,30.9c4.3,7.1,11.4,7.2,17.6,7.2c4.4,0,8.7,0.1,12,2.2c1.4,0.9,1.5,2.3,1.6,4.7c0.1,1.5,0.2,3.1,0.8,4.6
	c1.9,4.6,5.7,10.8,10.6,14.2c0.7,0.5,1.5,0.7,2.7,0.7c1.3,0,2.9-0.3,4.6-0.6c1.7-0.3,3.5-0.6,4.9-0.6c0.5,0,0.9,0,1.2,0.1
	c0.2,0,0.5,0.1,0.9,0.2c0.3,0,0.8,0.1,1.2,0.2c0,0.2,0,0.4,0,0.6c0.2,1.4,0.9,3.8,2,6.3c-1,1.5-2.9,3.5-4.6,5.3
	c-0.6,0.6-1.1,1.2-1.6,1.7c-0.4,0.5-0.8,0.9-1.1,1.3c-1.4,1.7-1.7,2-4.8,2.2c0-0.1,0.1-0.3,0.1-0.4c0.5-1.4,1.1-3.3,0.5-5.2
	c-0.7-2.4-2.3-2.7-3-2.7c-2,0-3.6,2-5.9,5.7c-1.2,2-1.7,4.6-2.3,7.1c-0.3,1.2-0.5,2.4-0.8,3.3c-0.6,1.9-0.3,3.4,0.1,5.1
	c0.3,1.5,0.7,3.4,0.7,6.6c-0.1,3.9,0.6,6.9,1.3,9.8c-5.2-1.1-10.5-2.8-15.3-4.3c-1.6-0.5-3.2-1-4.7-1.5c-1.1-0.3-2.2-0.5-3.2-0.5
	c-4.2,0-6.7,2.7-8.9,5.1c-1.7,1.9-3.3,3.5-5.3,3.7c-1.1,0-4.2-2.6-6-4.1c-1.9-1.7-3.6-3.1-5.1-3.7c-1.5-0.7-3-1-4.9-1
	c-1.2,0-2.3,0.1-3.3,0.2c-1,0.1-2,0.2-2.9,0.2c-0.7,0-1.3-0.1-1.9-0.2c-1.1-0.2-2.2-0.6-3.4-1c-2.2-0.8-4.5-1.5-7-1.5
	c-0.3,0-0.7,0-1,0c-3.7,0.4-6.1,3.9-8.1,6.7c-0.7,1-1.3,1.9-1.8,2.5c-0.8,0.9-2.5,1.3-4.2,1.6c-1.4,0.3-2.8,0.6-4.1,1.3
	c-2.5,1.3-4.1,4.6-5.8,7.7c-0.7,1.4-1.4,2.8-2.1,3.6c-1.3,1.8-1,3.9-0.7,5.5c0.4,2.2,0.3,2.5-0.4,2.9
	C841.3,1202.5,839.5,1202.9,837.5,1202.9z"/>
<path id="estadoSP" class="st5" d="M966.2,1133.3c-0.2-0.6-0.3-1.1-0.3-1.5c0-0.1,0-0.2,0-0.4c0-0.6-0.1-1.9-1.2-2.9
	c-0.7-0.6-1.8-0.9-3.3-1.1c-0.2,0-0.4-0.1-0.6-0.1c-0.6-0.2-1.4-0.2-2.2-0.2c-1.8,0-3.8,0.4-5.7,0.7c-1.5,0.3-2.9,0.5-3.9,0.5
	c-0.3,0-0.4,0-0.5,0c-4.2-2.9-7.5-8.5-9.1-12.3c-0.4-0.9-0.4-2-0.5-3.2c-0.1-2.6-0.3-5.8-3.5-7.8c-4.4-2.8-9.3-2.8-14.2-2.8
	c-6,0-11.1-0.1-14.2-5.3c-1.5-2.6-1.4-23.4,0.8-26c0.3-0.3,1.2-0.3,2.1-0.4c1.4-0.1,3.2-0.1,4.7-1.3c0.9-0.7,1.2-1.8,1.1-3.3
	c-0.3-3-3.2-9.2-5.3-10.3c-1.8-1-4.2-1.6-6.5-2.1c-1.8-0.5-3.6-0.9-5-1.5c-4.1-1.8-11.7-3.2-17.3-3.2c-1.3,0-2.5,0.1-3.5,0.2
	c-1.9,0.3-3.9,1.4-5.8,2.6c-1.7,1-3.7,2.1-4.8,2.1c-0.1,0-0.2,0-0.2,0c-1.5-0.4-3.6-2.8-5.5-4.9c-1.7-2-3.5-4-5.3-5.2
	c-3-1.9-7.1-2.1-10.4-2.1c-1.6,0-3.2,0.1-4.8,0.1c-1.5,0.1-3,0.1-4.4,0.1c-2.2,0-3.7-0.1-4.9-0.4c-0.7-0.2-1.3-1.2-2-2.3
	c-1.2-1.9-2.9-4.5-6.3-4.5l-0.2,0c-2.7,0.1-4.2,2.1-5.6,3.9c-1.1,1.4-2.1,2.7-3.5,2.9c-2.8,0.4-5.8,0.6-8.9,0.6
	c-2.2,0-4.4-0.1-6.6-0.3c-1.4-0.1-3.1-0.8-4.9-1.5c-2.3-0.9-4.7-1.9-7.2-1.9c1.4-0.5,2.8-1.1,3.8-2.4c1.2-1.6,2.4-3.5,3.5-5.2
	c2.2-3.5,4.6-7.2,7.5-9.4c2.1-1.6,4.4-2.9,6.9-4.3c3.9-2.2,8-4.4,11.2-8.1c6.7-7.9,11.2-17.8,15.5-27.4c5.9-13,11.9-26.4,23.5-34.3
	c3.9-2.7,7.8-2.9,12.2-3.1c2.5-0.1,5.2-0.3,8-0.9c2.7-0.6,5.2-1.8,7.6-2.9c1.9-0.9,3.7-1.8,5.5-2.3c2.3,0,11,6.6,16.7,10.9
	c6.4,4.8,11.9,9,15.1,10.1c3,1,6,1.5,9.2,1.5c7.3,0,13.8-2.8,20.1-5.4c4.3-1.8,8.3-3.5,12.5-4.4c0.7-0.2,1.6-0.2,2.5-0.2
	c0.9,0,1.9,0.1,2.9,0.1c1,0.1,2.1,0.1,3.2,0.1c1.2,0,2.3-0.1,3.2-0.3c0.8-0.2,1.7-0.4,2.6-0.6c1.7-0.4,3.6-1,5.2-1
	c0.5,0,1,0.1,1.4,0.2c0.3,0.3,0.7,1.2,1,1.7c0.3,0.6,0.5,1.1,0.8,1.5c0.3,0.5,0.7,1,1.1,1.5c1.2,1.6,2.7,3.6,2.7,5.1
	c0,1.6-0.5,3.3-0.9,5c-1,3.6-2.1,7.6,1.1,11.8c0.7,0.9,1.6,1.6,2.3,2.2c0.7,0.6,1.4,1.1,1.8,1.7c0.6,0.9,0.9,2.3,1.3,3.8
	c0.5,2.5,1.1,5.3,3.6,7.2c1.6,1.2,3.3,1.4,4.4,1.4c0.7,0,1.3-0.1,1.9-0.1c0.5,0,1-0.1,1.5-0.1c0.6,0,1,0.1,1.3,0.2
	c1.2,0.8,3.2,7.5,3.8,12c0.3,2.5-0.4,6.4-1.3,10.7c-1.8,9.3-3.9,19.8,3.3,24.5c1.6,1,3.6,1.6,5.8,1.6c6,0,13.3-3.7,19.2-6.6
	c2.5-1.2,4.8-2.4,6.5-3c6.8-2.5,12.4-3.6,18.1-3.6c5.7,0,11.2,1,18.1,2.6c0.8,1.9,2.9,3,4.4,3.7c0.4,0.2,1,0.5,1.4,0.7
	c-0.5,1.7-4.3,5.8-6.6,8.3c-3.4,3.7-6.6,7.2-7.5,10c-1.4,4.2,0.4,13.6,0.4,13.7c0.2,1.2,0.6,2.3,0.9,3.4c-0.1,0.2-0.2,0.3-0.3,0.3
	c-2.6,0.6-8.1,3.4-9.6,6.3c-0.8,1.7-0.5,3.9-0.1,6.6c0.3,1.7,0.6,4,0.3,4.9c-0.5,1.1-2.3,2-4.2,2l0,0c-0.5,0-1-0.1-1.4-0.2l-0.4-0.1
	c-1.9-0.6-2-0.7-2.8-3.7c-1.1-4.5-3.9-5.1-6.3-5.6c-0.8-0.2-1.6-0.4-2.5-0.7c-1.1-0.4-2-0.6-3-0.6c-2.2,0-4.1,1-6.6,2.3
	c-1.1,0.6-2.4,1.3-4,2c-3.9,1.8-5.1,3.6-5.9,4.8c-0.6,0.9-0.7,1.1-2.1,1.3c-3,0.5-5.1,1-6.8,1.5c-0.9,0.2-1.7,0.4-2.6,0.6
	c-3.2,0.7-9.4,5.4-11.7,8.5c-1.5,2-5.6,5.8-7.3,7.3c-0.5,0.2-1.8,0.9-3.7,1.8c-1.9,1-5.5,4.7-9.8,9.4c-1.3,1.4-2.4,2.6-3.1,3.3
	c-2,2-7.7,5.4-12.2,7.5C968.6,1129.9,967.1,1131.6,966.2,1133.3z M781.2,1041.2c0.2-0.6,0.4-1,0.6-1.2c0.2-0.2,0.3-0.3,0.5-0.5
	c-0.4,0.5-0.7,0.9-1,1.4C781.3,1041,781.2,1041.1,781.2,1041.2z"/>
<path id="estadoMS" class="st5" d="M741.3,1092.3c-1.4,0-2.8-0.1-4.2-0.3c-0.9-5.7-3.6-6.6-9.6-8.5c-0.8-0.3-1.8-0.6-2.8-0.9
	c-3.4-1.1-5.1-1.7-6.5-1.7c-2.3,0-3.2,1.6-4.1,3.1c-0.5,0.8-1,1.8-2,3.1c-1.6,2.1-3.1,2.3-4.5,2.3c-0.8,0-1.6-0.1-2.5-0.2
	c-0.8-0.1-1.7-0.2-2.6-0.2c-1,0-1.8,0.2-2.6,0.5c-0.1,0-0.2,0.1-0.3,0.1c-1.4,0-3.7-3.3-4.8-4.8c-0.3-0.4-0.6-0.8-0.8-1.2
	c-1.5-2-4.5-9.9-4.6-15.4c-0.1-2.5-0.2-5.8-0.4-9.2c-0.2-4.4-0.5-8.9-0.5-12.2c0-2.6,0-4.5,0.1-6.4c0.1-2.4,0.1-4.8,0.1-8.8
	c-0.1-6.8-3.7-8.6-7.5-10.6c-1.1-0.6-2.3-1.2-3.5-1.9c-1.6-1-3.2-1.5-4.9-1.5c-2.8,0-5.2,1.3-7.2,2.3c-1.1,0.6-2.1,1.1-2.9,1.3
	c-0.2,0-0.4,0.1-0.7,0.1c-1.1,0-2.5-0.4-3.9-0.7c-1.8-0.5-3.8-1-5.9-1c-1,0-2,0.1-2.9,0.4c-3.1,0.9-23.9,1.4-36.9,1.4
	c-2.1,0-3.8,0-4.6,0c-2.5-0.1-7.3-4.2-10.2-7.4c0.4-2.9,1.7-12.2,3.5-16.2c1.6-3.7,2.1-7.4,2.7-11.4c0.3-1.9,0.5-3.9,0.9-5.9
	c1.1-5.2-1.3-13-7.3-24.6c-0.6-1.1-1.1-2.1-1.5-2.9c-0.7-1.2-1.3-2.4-1.5-2.9c0.1-0.1,0.3-0.3,0.7-0.6c3.3-2.6,7.4-9.6,5-18.4
	c-0.4-1.5-0.8-2.9-1.2-4.1c-1.6-5.3-2.4-8.2-0.3-14.8c1.3-4.1,2.7-10.1,4-15.9c1.4-6,3-12.9,3.9-14.5c2.8-5,4.4-9.9,4.8-14.5
	c7.3-5.5,13.2-14.1,17.6-20.5l0.4-0.5c0.6-0.8,1.1-1.8,1.7-2.8c1.5-2.6,3.3-5.6,5.5-6.6c0.5-0.2,1-0.3,1.4-0.3
	c0.9,0,1.6,0.5,2.6,1.3c1.2,0.9,2.6,1.9,4.6,1.9c0.5,0,1-0.1,1.5-0.2c2.1-0.6,3.8-1.8,5.4-3c1.8-1.4,3.4-2.6,5.4-2.6l0.4,0
	c7.1,0,13.9,3.5,21,7.2c7.1,3.7,14.5,7.6,22.3,7.6l0.4,0c4.8-0.1,8.6-2.2,12.3-4.3c3.1-1.7,5.9-3.3,9.3-3.7c0.2,0,0.4,0,0.6,0
	c1.4,0,2.8,0.5,4.4,1c1.7,0.6,3.5,1.2,5.4,1.2c0.8,0,1.6-0.1,2.3-0.3c3-0.9,4.7-3.7,6.2-6.2c1.8-2.9,3-4.7,4.9-4.7
	c0.7,0,1.4,0.2,2.3,0.6c5.8,2.5,5,5.5,3.8,9.9c-0.9,3.2-1.9,6.8,0.7,9.9c2,2.4,5,3.1,7.6,3.7c2.4,0.6,4.5,1.1,5.4,2.6
	c0.6,0.9,0.9,1.9,1.2,2.9c0.6,1.9,1.3,4.1,3.6,6c1.5,1.1,3,1.8,4.4,2.4c1.8,0.8,3.4,1.4,4.6,3c1.5,2,2.4,3.8,3.3,5.7
	c1.6,3.2,3.3,6.5,7.5,9.7c3,2.3,6.1,2.6,8.5,2.6c1,0,1.9-0.1,2.8-0.1c0.9,0,1.7-0.1,2.5-0.1c1.9,0,3.3,0.3,4.4,1
	c1,0.6,2.1,2,3.2,3.4c2,2.5,4.1,5,6.9,5.6c1.5,0.3,3,0.3,4.2,0.3c0.6,0,1.2,0,1.9,0c0.6,0,1.2,0,1.8,0c2.9,0,5.2,0.3,7,1.6
	c1.1,0.9,2.1,2.2,3,3.6c1.5,2.2,3.2,4.7,6.2,5.9l0.9,0.4c5.1,2.1,10.4,4.2,14.1,4.2l0.2,0c0.9,0,1.7-0.4,2.5-0.9
	c-0.6,3.2-2.5,9.8-4,14.9c-2.3,8.1-3.8,13.4-4.1,15.9c-10.2,8.6-15.9,21.2-21.4,33.3c-4.2,9.3-8.6,19-15,26.4
	c-2.7,3.2-6.3,5.1-10.1,7.3c-2.5,1.4-5,2.8-7.4,4.6c-3.5,2.7-6,6.6-8.4,10.5c-1.1,1.8-2.2,3.5-3.3,5c-0.5,0.7-1.8,1-3.1,1.4
	c-1.9,0.5-4,1.1-5.5,2.8c-1,1.1-1.6,2.9-2,4.5c-0.3,0.2-0.6,0.4-0.8,0.6c-1.1,1.3-1.9,3.6-2.6,5.9c-0.6,1.8-1.3,3.9-2,5
	c-1.6,2.3-3.8,4.2-6.2,6.2c-3.1,2.6-6.2,5.3-8.2,9.1c-1.3,2.6-1.9,5.7-2.5,9c-1.1,5.8-2.2,11.3-6.7,13.4
	C745.9,1091.9,743.8,1092.3,741.3,1092.3z"/>
<path id="estadoMG" class="st5" d="M1022.4,1036.1c-1.5,0-2.7-0.3-3.7-0.9c-4.9-3.2-3.1-12.3-1.6-20.3c0.9-4.6,1.7-8.9,1.3-12
	c0-0.1-1.8-12.7-5.7-14.9c-1.2-0.7-2.5-0.8-3.3-0.8c-0.6,0-1.2,0.1-1.8,0.1c-0.6,0-1.1,0.1-1.6,0.1c-0.9,0-1.5-0.2-2-0.5
	c-1.3-1-1.7-2.8-2.1-4.9c-0.4-1.8-0.8-3.7-1.9-5.3c-0.8-1.1-1.8-1.8-2.6-2.5c-0.6-0.5-1.2-1-1.6-1.5c-1.9-2.5-1.4-4.7-0.4-8.3
	c0.5-1.9,1.1-3.9,1.1-6c0-2.8-2-5.4-3.5-7.5c-0.4-0.5-0.7-0.9-1-1.4c-0.1-0.2-0.3-0.6-0.5-1c-0.7-1.4-1.5-3.1-3.2-3.7
	c-0.8-0.3-1.8-0.4-2.8-0.4c-2.1,0-4.3,0.6-6.2,1.1c-0.8,0.2-1.6,0.4-2.3,0.6c-0.7,0.1-1.5,0.2-2.5,0.2c-1,0-1.9-0.1-2.9-0.1
	c-1-0.1-2.1-0.1-3.2-0.1c-1.3,0-2.4,0.1-3.4,0.3c-4.6,1-9,2.9-13.2,4.7c-6.2,2.6-12.1,5.1-18.5,5.1c-2.7,0-5.3-0.4-7.9-1.3
	c-2.6-0.9-8.4-5.3-14-9.5c-9.6-7.3-15.7-11.7-19.2-11.7c-0.4,0-0.8,0.1-1.1,0.2c-2.1,0.6-4.1,1.6-6.1,2.5c-2.3,1.1-4.4,2.2-6.7,2.6
	c-2.5,0.5-5,0.7-7.3,0.8c-4.2,0.2-8.5,0.4-12.9,2.9c0.8-3.1,2-7.3,3.1-11.2c3.5-12,4.5-16.1,4.3-18c5.9-7.8,16.2-14.9,24.1-16.5
	c1.5-0.3,3-0.6,4.7-0.9c10-1.9,22.4-4.3,30.7-9.4c2.3-1.4,4.4-3.3,6.5-5.2c3.3-2.9,6.8-6,10.4-6.9c0.6-0.2,1.2-0.2,1.8-0.2
	c2.2,0,4.1,1.1,6.3,2.3c1.9,1.1,4.1,2.3,6.7,2.8c1.1,0.2,2.2,0.3,3.5,0.3c9.5,0,22.3-6.2,26.9-13.1c2.5-3.7-0.1-6.7-1.7-8.7
	c-1-1.2-1.8-2.2-1.5-2.7c0.8-1.7,2.4-2.2,4.2-2.9c1.9-0.7,4.1-1.5,5.1-3.7c1-2.1,0.6-5-1.1-9.2c-0.7-1.8-2.2-2.7-4.1-2.7
	c-1.4,0-2.9,0.5-4.4,1c-1.1,0.4-2.2,0.7-2.9,0.7c0,0,0,0,0,0c-0.1-0.2-0.1-0.7,0-1.7c0.7-6,5.5-8.3,9.9-10.3c3.3-1.5,6.4-2.9,6.9-6
	c1.6-9.6-3.5-13-7.2-15.6c-3-2.1-4.5-3.2-4-6.1c0.5-2.9,6-5.3,9.3-6.8c0.9-0.4,1.7-0.7,2.3-1.1c3-1.5,3.1-4.4,3.2-6.5
	c0.1-1.2,0.1-2.4,0.6-3.1c0.6-0.9,1.8-1.6,3.1-2.2c1.9-1,4.2-2.2,5.3-4.8c1.3-3.3-0.8-6.2-2.5-8.4c-1-1.4-2.1-2.8-2.2-4
	c0.3-0.4,1.3-1,1.9-1.4c1.8-1.2,4.4-3.1,3.1-5.6c-0.6-1.3-2.1-2.1-3.7-3c-0.6-0.4-1.6-0.9-2-1.3c0.1-3.6,1.9-4.7,7.2-4.7
	c0.4,0,1.7,0,2,0c1.6,0,2.8-0.1,3.8-0.6c1.3-0.7,1.8-1.7,2-2.4c0.5-2.1-0.9-4.3-2.4-6.3c-0.4-0.6-0.9-1.4-1.2-1.9
	c1.5-1.3,2.3-1.5,2.7-1.5c1.4,0,2.8,2.9,3.8,5c1.2,2.5,2.3,4.7,4.3,5.4c2.1,0.7,4.5,1.1,7.2,1.1c-0.4,1.4-0.8,2.7-1.2,4
	c-0.1,0.2-0.4,0.6-0.6,0.9c-0.8,1-1.9,2.6-1.2,4.6c1.2,3.4,3.5,3.9,4.7,3.9c3.3,0,6.9-3.3,10-6.3c1-0.9,2.4-2.2,3-2.6
	c0.2,0,0.4,0,0.6,0c1.8,0,3.6,0.1,5.2,0.2c1.6,0.1,3.1,0.2,4.6,0.2c3.4,0,7.5-0.4,12.7-3.7c3.7-2.3,4.6-4.8,5.4-7.3
	c0.4-1.3,0.9-2.5,1.7-3.8c0.1-0.2,0.9-0.2,1.5-0.2c1.5-0.1,3.8-0.2,5.2-2.5c0.9-1.5,0.7-3.2,0.6-4.5c-0.1-1-0.2-1.8,0.2-2.4
	c0.8-1.4,2.2-1.9,5.4-1.9c0.5,0,1,0,1.5,0c0.5,0,1,0,1.5,0c2.1,0,4.2-0.1,6.1-1.1c0.8-0.4,1.4-1,2-1.6c0.3-0.3,0.8-0.8,1-0.9
	c1.7,0.1,10.5,1.2,12.7,1.6c0.8,0.9,1.2,2.2,1.7,3.5c1,2.9,2.5,6.8,8,7.5c0.3,0,0.6,0.1,0.8,0.1c3.8,0,7.6-3.1,11.3-6.2
	c2.8-2.3,5.9-4.9,7.9-4.9c0.2,0,0.4,0,0.6,0.1c1.4,0.6,2.3,5.4,2.8,8c0.5,2.5,0.8,4.6,1.6,5.8c1.9,3,5.4,4.4,8.6,5.7
	c1.8,0.7,3.5,1.4,4.7,2.3c0.9,0.6,1.7,1.6,2.6,2.6c1.2,1.4,2.5,2.9,4.1,3.8c1.1,0.6,2.1,0.9,3.1,0.9c2.4,0,3.9-1.6,5.1-3
	c1.1-1.2,1.9-2,2.9-2c2.6,0,13,4.3,14.8,5.6c4.5,3.1,7.9,9.6,9.1,14.3c0.2,0.7,0.2,1.6,0.3,2.6c0.1,2.3,0.2,5.5,3,7.3
	c1.9,1.2,3.6,1.8,5.3,1.8c3.2,0,5.3-2.2,7.1-4.1c1.2-1.2,2.3-2.4,3.6-2.9c0.1,0,0.1,0,0.2,0c0.6,0,1.6,0.8,2.4,1.5
	c0.8,0.7,1.7,1.4,2.7,1.8c1.3,0.5,2.7,0.8,4.4,0.8c1,0,2-0.1,2.9-0.2c0.9-0.1,1.7-0.1,2.6-0.1c1.1,0,2,0.1,2.8,0.5
	c1.3,0.5,2.2,1.9,3.2,3.3c1.2,1.7,2.6,3.7,5,4.5c1,0.3,2.2,0.5,3.5,0.7c2.1,0.3,5.6,0.8,6.2,2c0.5,1.2-4.3,5.1-5.8,6.4
	c-2.1,1.7-3.7,3.1-4.4,4.4c-1.7,2.9-1.5,6.1-1.3,8.9c0.1,2.1,0.2,4-0.4,5.7c-0.7,1.9-2,2.4-4.1,3c-1.7,0.5-3.7,1.2-4.7,3.2
	c-2.2,4.7-4.6,15.5-4.9,20.1c0,0.5-0.1,1,2.6,8.1c2.9,7.7,2.9,7.7,4.1,7.9c0.3,0.1,0.7,0.1,1,0.1c1.8,0,3.1-0.8,4.3-1.5
	c0.7-0.4,1.4-0.8,1.8-0.8c0.5,0,1.2,0.7,2,1.8c0.4,0.6,0.5,2.1-1.2,5.9c-2.8-1.8-5.8-2.9-9.3-3.6c-0.3-0.1-0.6-0.1-0.9-0.2
	c-1.5-0.3-3.7-0.8-5.6-0.8c-2.3,0-4,0.7-4.9,2.1c-1.6,2.3-0.8,4.9-0.2,7c0.5,1.9,0.8,3,0.4,3.8c-0.8-0.1-2-0.3-3.4-0.3
	c-5.3,0-7.8,2.2-9,4c-3.3,5.1-0.9,8.1,0.8,10.4c0.9,1.2,1.8,2.3,2,3.7c0.2,1,0.2,1.3-2.7,2c-2,0.5-5.7,1.4-5.2,5.4
	c0.7,5,3.3,8.5,5.6,11.6c2.9,3.8,5.2,6.8,4.2,12.3c-0.5,2.3-2,3.2-4.7,4.4c-2.1,1-4.5,2.1-6.1,4.6c-1.4,2.1-1.6,5.1-1.8,8.2
	c-0.2,3.4-0.5,6.9-2.3,7.9c-1.2,0.7-2.9,0.7-4.6,0.7c-2.3,0-4.9,0-7.1,1.8c-7.2,5.8-7.8,17.3-7.8,21.1c-0.7,0.1-1.5,0.4-2.2,0.7
	c-0.5,0.2-1.4,0.7-3.5,2l-0.3,0.2c-0.5,0.3-1,0.5-1.6,0.8c-0.7,0.3-1.6,0.7-2.4,1.3c-1.9,1.3-2.9,2.6-3.1,4.1
	c-0.3,2.2,1,3.8,2.2,5.3c1.2,1.4,1.9,2.4,1.7,3.3c-0.2,0.7-2.1,1.6-3.4,2.1c-1.9,0.9-3.9,1.7-5,3.3c-2.2,3.2-1.4,6.1-0.8,8.4
	c0.8,2.9,1.4,5.1-4,8.9c0,0-0.1,0-0.2,0c-0.8,0-2-0.2-3.3-0.5c-1.9-0.4-4.1-0.8-6.3-0.8c-1.4,0-2.6,0.2-3.6,0.6
	c-2.9,1.1-5.4,2.8-7.8,4.5c-2.5,1.8-4.9,3.4-7.6,4.2c-3.1,0.9-6.5,1.3-11.2,1.3c-2.2,0-4.6-0.1-6.8-0.2c-2.3-0.1-4.7-0.2-7-0.2
	c-7.9,0-16.9,1-24.1,8.5c-1.3,1.4-2.2,2.6-2.7,3.7c-6.9-1.5-12.4-2.5-18.3-2.5c-6.2,0-12.3,1.2-19.5,3.8c-1.9,0.7-4.3,1.9-7,3.2
	C1034.3,1032.7,1027.4,1036.1,1022.4,1036.1z"/>
<path id="estadoGO" class="st5" d="M858.6,912.1c-3.2,0-9.3-2.5-12.6-3.9l-0.9-0.4c-1.9-0.8-3.1-2.6-4.4-4.5
	c-1.1-1.6-2.3-3.3-3.9-4.6c-2.8-2.1-6.2-2.4-9.4-2.4c-0.6,0-1.2,0-1.9,0c-0.6,0-1.2,0-1.8,0c-1,0-2.3,0-3.5-0.2
	c-1.4-0.2-3-2.3-4.5-4.1c-1.4-1.7-2.7-3.3-4.2-4.3c-2.3-1.4-4.7-1.6-6.5-1.6c-0.9,0-1.8,0.1-2.7,0.1c-0.9,0-1.7,0.1-2.6,0.1
	c-1.9,0-4-0.2-6-1.8c-3.5-2.7-4.8-5.3-6.3-8.4c-1-2-2-4-3.7-6.2c-1.8-2.5-4.2-3.4-6.3-4.3c-1.3-0.5-2.5-1-3.5-1.8
	c-0.8-0.6-1.2-1.3-1.6-2.1c2.1-1.9,4.3-4.3,5.1-7.4c0.8-3.2-1-7.1-2.8-11c-1-2.3-2.1-4.6-2.4-6.2c-0.6-4.3-1.9-13.4,1.7-16.9
	c0.3-0.3,1-0.5,1.6-0.7c1.3-0.4,3.1-1,4-2.8c1-2.1,1.2-4.4,1.3-6.7c0.2-2.5,0.3-4.9,1.7-6.2c1.5-1.5,4-1.7,6.4-1.9
	c2.4-0.2,4.7-0.3,6.3-1.9c2.5-2.5,2.2-5.6,1.9-8.1c-0.1-1.3-0.3-2.5,0-3.4c1.4-3.5,5.8-6.5,9.7-9.2c1.5-1.1,3-2.1,4.3-3.1
	c1.1-0.8,2.3-1,3.8-1c0.5,0,1.1,0,1.6,0c0.6,0,1.2,0,1.7,0c2.1,0,4.9-0.3,7.1-2.6c2.5-2.5,3-7.1,3.6-12c0.5-4.5,1.1-9.2,3-12.1
	c2.7-4,6-4.3,9.9-4.7c3.8-0.4,8.1-0.8,10.7-5.5c3.2-5.7,5.2-10.6,6.2-15.5c0.3-1.5,0-3.4-0.3-5.4c-0.3-1.7-0.7-4.6-0.1-5.3
	c0.7-0.8,1.7-1.6,2.8-2.4c2.1-1.6,4.4-3.3,5.1-6.2c0.7-2.7-0.8-5-2.1-7.1c-1.4-2.2-2-3.3-1.4-4.3c0.5-0.9,1.6-1.6,2.6-2.4
	c1.8-1.2,4-2.8,4.7-5.6c0.5-1.9,0.3-3.8,0.2-5.6c-0.1-1.7-0.3-3.3,0.2-4.7c1-3.1,9.5-18.2,14-24.9c-0.4,1.3-1.2,2.8-2,4.2
	c-1.8,3.5-3.9,7.4-2.3,11.5c1.6,4,10.4,7.3,29.5,11.1l1,0.2c0.4,0.1,0.8,0.1,1.2,0.1c4.6,0,6.2-5,7.6-9.4c1.6-5,2.9-8.3,5.8-8.3
	c0.2,0,0.5,0,0.7,0.1c6.7,1,8,6,8.9,12.1c0.4,2.9,0.7,5.1,2.8,5.7c0.5,0.2,1.1,0.2,1.7,0.2c2.8,0,5.8-1.5,9-3.2c2.9-1.5,5.8-3,8-3
	c0.5,0,0.9,0.1,1.3,0.3c0,0.4-0.2,1.1-0.3,1.6c-0.3,1.4-1.1,4.8,2,5.6c1.1,0.3,2.4,0.4,3.8,0.4c5.1,0,11.5-1.9,17.1-3.5
	c3-0.9,5.8-1.7,7.9-2.1c8-1.4,15.2-3.4,22.2-5.4c5.7-1.6,11.1-3,16.7-4.2c1.3,0.6,3.1,0.8,4.9,1c1.1,0.1,2.9,0.3,3.6,0.7
	c-0.2,1.2-1.5,2.8-2.6,4.2c-1.6,2.1-3.2,4-3.2,6.2c0,2.2,1.4,3.5,2.4,4.5c1.1,1.1,1.1,1.1,0.6,1.9c-0.6,0.9-1.5,1.7-2.6,2.6
	c-1.2,1-2.4,2.1-3.3,3.5c-0.9,1.4-0.9,3.3-0.9,4.9c0,0.6,0,1.3-0.1,1.8c-0.4,0.3-1.3,0.9-1.7,1.2c-1.3,0.8-2.3,1.5-2,2.9
	c0.4,1.8,2,2.9,3.5,3.8c0.6,0.4,1.6,1.1,1.8,1.4c0.4,1.1,0.3,2.3,0.1,3.5c-0.3,2.1-0.6,4.7,1.5,7.7c1.2,1.7,3.1,1.7,3.8,1.7
	c0.7,0,1.3-0.1,2-0.1c0.6-0.1,1.2-0.1,1.7-0.1c1.1,0,1.6,0,1.7,2.1c0.1,5.9-0.9,13.5-2.9,21.6c-0.4,0-0.7,0-1,0
	c-2.3,0-4.2-0.3-5.9-0.9c-0.5-0.3-1.3-2.1-1.9-3.3c-1.6-3.2-3.5-7.2-7.4-7.2c-1.9,0-3.9,1-6.1,3.2c-1.9,1.9-0.1,4.4,1.3,6.5
	c0.5,0.8,1.5,2.1,1.7,2.9c-0.3,0.1-0.8,0.1-1.9,0.1c0,0-1.7,0-2,0c-3.1,0-11.2,0-11.2,9.1c0,2.1,2.1,3.2,4.1,4.4
	c0.5,0.3,1.1,0.6,1.6,1c-0.4,0.3-0.9,0.7-1.3,1c-1.7,1.2-3.6,2.5-3.6,4.5c0,2.6,1.6,4.7,3,6.6c1.5,2,2.4,3.4,2,4.5
	c-0.5,1.2-1.6,1.8-3.4,2.8c-1.6,0.8-3.4,1.8-4.6,3.6c-1.1,1.7-1.2,3.5-1.3,5.2c-0.1,2.1-0.2,2.7-1,3.1c-0.6,0.3-1.3,0.6-2.1,1
	c-4.5,2-10.8,4.8-11.6,9.8c-0.9,5.5,2.7,8,5.7,10c3.6,2.4,6.7,4.5,5.5,11.6c-0.2,1-2.5,2.1-4.6,3c-4.7,2.2-11.2,5.2-12.2,13.5
	c-0.2,1.4-0.2,3.5,1,4.9c0.5,0.6,1.4,1.2,3,1.2c1.3,0,2.7-0.5,4.1-0.9c1.1-0.4,2.3-0.8,3.1-0.8c0.2,0,0.3,0,0.3,0c0,0,0,0,0.1,0.2
	c1.6,3.9,1.4,5.5,1.1,6.1c-0.3,0.7-1.3,1.1-2.8,1.6c-2.1,0.7-4.9,1.7-6.4,4.8c-1.4,2.8,0.6,5.2,2,7c1.9,2.3,2.1,3,1.5,4
	c-3.9,5.8-15.3,11.3-23.6,11.3c-1,0-1.9-0.1-2.7-0.2c-2-0.4-3.7-1.4-5.5-2.4c-2.4-1.4-5-2.8-8.2-2.8c-0.9,0-1.9,0.1-2.8,0.4
	c-4.6,1.2-8.4,4.5-12.1,7.8c-2.1,1.8-4,3.5-6,4.8c-7.6,4.8-19.7,7.1-29.3,8.9c-1.6,0.3-3.2,0.6-4.7,0.9c-8.6,1.7-19.8,9.4-26.3,17.8
	c0,0,0,0,0,0c-1.1,0-2,0.5-2.9,1C859.2,911.8,858.8,912.1,858.6,912.1L858.6,912.1z"/>
<path id="estadoTO" class="st5" d="M962.8,674.4c-0.7,0-1.4,0-2-0.1c0.1-0.3,0.1-0.7,0.2-1c0.4-1.7,1-4.2-1.1-5.6
	c-1.1-0.7-2.4-1.1-3.8-1.1c-3.1,0-6.5,1.7-9.8,3.4c-2.6,1.3-5.4,2.7-7.2,2.7c-0.1,0-0.1,0-0.2,0c-0.2-0.6-0.3-1.7-0.4-2.5
	c-0.7-4.9-2-14-12.2-15.5c-0.4-0.1-0.9-0.1-1.3-0.1c-6.1,0-8.1,6.2-9.7,11.1c-1,3.2-2.1,6.6-3.8,6.6c-0.1,0-0.3,0-0.5,0l-1-0.2
	c-23.3-4.6-26.2-7.8-26.6-8.6c-0.9-2.3,0.6-5.1,2.1-8.1c1.4-2.7,2.9-5.4,2.9-8.3l0-0.2c0.1-1.3,0.1-2.8-0.9-3.8
	c-0.5-0.5-1.1-0.8-1.8-0.8c-0.4,0-0.9,0.1-1.3,0.3c-2,1-7.4,10-10.9,16.2c-2-4.3-2.6-8.5-3.2-12.9c-0.5-3.7-1-7.6-2.5-11.8
	c-0.2-0.6-0.5-1.2-0.7-1.9c-0.6-1.4-1.3-3.2-1.2-4.3c0.1-1,0.8-2.2,1.4-3.5c0.6-1.2,1.2-2.4,1.6-3.6c0.8-2.6-0.4-4.8-1.3-6.8
	c-1-1.9-1.8-3.6-1.3-5.7c0.6-2.5,2.4-5,4.2-7.4c0.9-1.3,1.8-2.5,2.6-3.8c1.6-2.8,3.1-5.5,4.6-8.1c2.5-4.5,4.8-8.7,7.8-13.1
	c1.8-2.5,1.3-6.2,1-9.8c-0.3-2.3-0.5-4.7-0.1-6.1c1-3.5,3.1-7.4,5.2-11.2c1.4-2.5,2.8-5.1,3.8-7.6c1-2.4,3.2-4.2,5.5-6.1
	c1.5-1.3,3.2-2.6,4.5-4.1c1.5-1.8,2.3-3.9,3-5.9c0.6-1.7,1.2-3.4,2.2-4.6c1.1-1.4,2.5-2.7,4-4.1c3.4-3.3,7-6.7,8.3-11.4
	c0.2-0.6,0.2-1.1,0.2-1.5c0-0.1,0-0.2,0-0.3c0.1-1.7-0.6-4.4-1.8-8.3c-0.5-1.7-1-3.3-1.1-4.2c0-0.1,0-0.2,0-0.3
	c-0.1-1-0.2-2-0.9-2.7c-0.5-0.5-1.1-1-1.7-1.4c-0.9-0.6-1.7-1.2-2-1.9c-1.1-2.9,0-4.8,2-7.6c1.4-2,3-4.3,3.1-7.2c0-2-1-4.4-2.1-6.9
	c-0.9-2-2.2-5-1.8-6c2.5-6.7,8.2-8.5,14.8-10.6c7-2.2,14.8-4.7,18.4-14.1c2.8-7.4,4-19.8,1.1-27.1c-0.8-2.1-2.9-3.4-4.8-4.5
	c-1.3-0.8-3.1-1.9-3-2.7c0.5-1.5,7.6-4.6,10.7-4.6c0.1,0,0.1,0,0.2,0l0.3,0c2.6,0.3,10.5,1,12.5,2.7c8.8,7.6,11.5,37.7,10.5,52.3
	c-0.1,1.2-0.7,2.8-1.4,4.5c-1.5,3.7-3.3,8.4-0.2,11.9c3,3.4,6.5,7.1,9.3,8.2c1,0.4,2,0.6,3,0.8c2.4,0.6,4,1,5,2.5
	c0.3,0.6,0.5,3,0.5,4.6c0.2,4.5,0.5,10.1,5,10.2c4.1,0,7.2-4,10-7.6c1.4-1.8,3.7-4.8,4.7-4.8c0.1,0,0.5,0.2,1.1,1.3
	c0.8,1.5,0.2,2.5-1.3,4.8c-1.2,1.8-2.6,3.8-2.2,6.4c0.4,2.3,2.7,2.7,3.9,2.9c0.2,0,0.4,0.1,0.6,0.1c0.9,1.2,3.2,5.3,4.1,7.3
	c-0.1,0-0.2,0-0.2,0c-1.4,0-3.4-0.6-5.3-1.2c-2.2-0.7-4.5-1.4-6.4-1.4c-1.6,0-2.8,0.5-3.7,1.4c-2.4,2.6-1.8,5.9-1.3,8.4
	c0.2,1.2,0.5,2.7,0.2,3.2c-0.3,0.3-1.8,0.6-2.7,0.8c-1.8,0.4-3.6,0.8-4.7,2c-0.5,0.5-0.8,1.3-0.7,2c0.1,2.2,2.5,4.4,7.8,9
	c1.9,1.6,4.4,3.8,4.8,4.5c0.2,0.5-0.7,2.1-1.1,3c-1,2-2.1,4.2-0.9,6.1c1.3,2.1,3.7,2.8,5.9,3.4c1.4,0.4,2.7,0.8,3.4,1.5
	c0.2,0.2,0.3,0.3,0.3,0.3c0,0.2-0.6,0.9-0.9,1.3c-0.7,0.8-2.1,2.5-0.9,4.1c1.2,1.6,4,2.8,8.5,4.7c2.1,0.9,4.3,1.7,5.3,2.4
	c0.2,0.4,0.5,1.7,0.7,2.3c0.4,2,0.8,3.8,2.5,4.3c0.3,0.1,0.7,0.1,1,0.1c1.7,0,3.4-1.1,5-2.1c0.9-0.6,2.1-1.3,2.7-1.4
	c0.2,0,0.4-0.1,0.6-0.1c-1.8,6.3-2.1,10,0.5,11.1c0.5,0.2,1.1,0.4,1.7,0.5c-0.5,0.7-1,1.3-1.5,1.6c-1.1,0.6-7.5,1.4-10.9,1.9
	c-7,0.9-7.9,1-8.5,2.4c-1.5,3.6,0.4,7.4,2,10.7c0.8,1.7,2.1,4.3,1.6,5c-0.9,1.4-2.5,1.8-4.3,2.3c-2.6,0.7-6.6,1.7-6,7.4
	c0.8,7.2,5.5,7.2,8.7,7.3c2.5,0,4,0.1,5.1,1.7c2,2.8,0.6,5.5-1,8c-0.7,1.1-1.4,2.2-0.7,3.5c0.5,0.9,1.6,1.9,3.7,1.9
	c0.9,0,1.9-0.2,2.8-0.4c0.7-0.2,1.5-0.3,2-0.3c0.3,0,0.4,0,0.4,0c0,0,0.1,0.1,0.1,0.4c0.9,3.3-1.2,4.9-5.7,7.3
	c-2.6,1.4-5.3,2.9-6.3,5.4c-0.8,2-0.7,5.3-0.5,7.9c0,0.6,0.1,1.2,0.1,1.7c0,2.5,1.4,4.4,2.4,5.9c0.7,1,1.3,1.9,1.4,2.7
	c-0.1,0.3-0.6,0.8-0.8,1.2c-0.5,0.7-1.2,1.5-1.4,2.5c-5.3,1.1-10.3,2.5-15.6,4c-6.9,1.9-14,3.9-21.8,5.3c-2.3,0.4-5.2,1.3-8.3,2.2
	C973.5,672.6,967.4,674.4,962.8,674.4z"/>
<path id="estadoMA" class="st5" d="M1031.8,559.7c-0.1-0.4-0.2-0.8-0.3-1.1c-0.4-1.9-0.8-3.8-2.2-4.7c-1.4-0.9-3.7-1.9-6.2-2.9
	c-1.8-0.7-4.5-1.8-6-2.7c1-1.2,3.2-4.1,0.2-6.9c-1.4-1.3-3.4-1.9-5.1-2.4c-1.5-0.4-2.9-0.8-3.5-1.6c0.1-0.5,0.6-1.6,1-2.3
	c1-2,2.1-4.2,1.2-6.4c-0.6-1.4-2.4-3-5.9-6.1c-1.9-1.6-4.8-4.1-6-5.6c0.6-0.2,1.4-0.4,1.9-0.5c2-0.4,4-0.9,5.1-2.5
	c1.3-1.9,0.9-4.2,0.5-6.2c-0.4-2.4-0.6-3.9,0.3-4.9c0,0,0.2-0.1,0.8-0.1c1.3,0,3.3,0.6,5.2,1.2c2.2,0.7,4.5,1.4,6.5,1.4
	c2.4,0,3.6-1.1,4.2-1.9c0.7-1,0.7-2-2.1-7.1c-2.7-4.9-3.4-5.4-3.6-5.6c-0.7-0.5-1.5-0.6-2.2-0.8c-0.2,0-0.4-0.1-0.6-0.1
	c0.1-0.8,0.8-1.9,1.5-2.9c1.5-2.2,3.6-5.2,1.5-9c-1.2-2.3-2.8-3.4-4.6-3.4c-2.9,0-5.2,2.9-7.8,6.3c-2.1,2.7-4.7,6.1-6.8,6.1
	c-0.8-0.5-1-4.6-1.1-6.4c-0.1-2.8-0.2-5.2-1.2-6.6c-1.9-2.9-5-3.6-7.4-4.2c-0.9-0.2-1.7-0.4-2.5-0.7c-1.5-0.6-4.1-2.9-7.7-7.1
	c-1.4-1.6-0.6-4.1,0.9-7.8c0.8-2,1.5-3.9,1.6-5.7c0.7-11.5-0.7-45.9-11.9-55.6c-2.6-2.2-8.6-3.1-14.7-3.7l-0.2,0c-0.2,0-0.4,0-0.6,0
	c-2.8,0-7.8,1.6-11.1,3.7c-4.2-7-3.9-10.3-2.8-11.7c0.9-1.2,1.6-1.5,2.5-1.5c0.7,0,1.6,0.2,2.5,0.4c1,0.2,2.1,0.5,3.2,0.5
	c1,0,1.9-0.2,2.7-0.6c2-1,3.5-2.7,4.7-4.2c0.8-1,1.6-2,2.5-2.6c1.3-1,2.8-1.7,4.4-2.5c2.4-1.2,4.9-2.4,6.9-4.6
	c5.1-5.5,10.3-13,14.8-19.6l1.5-2.1c3.7-5.4,3.7-10.9,3.6-16.2c0-2.7,0-5.5,0.5-8.3c0.5-2.8,2.8-8.9,6.9-18.2
	c1.5-3.5,4.3-5.3,7.4-7.4c2.3-1.6,4.8-3.2,6.8-5.6c2-2.4,3.1-5.2,4.1-7.9c0.6-1.6,1.2-3.2,2-4.5c1.1-2,2.5-3.8,4-5.7
	c1.3-1.7,2.7-3.5,3.9-5.4c2.7-4.5,2.3-8.7,2-12.4c-0.3-3-0.5-5.9,0.8-8.9c1-2.2,3-3.7,5.2-5.4c0.7-0.6,1.5-1.1,2.1-1.7
	c0.2-0.1,0.4-0.3,0.5-0.5c0.6,0.7,1.2,1.2,2.2,1.2c0.7,0,1.2-0.3,1.7-0.5c0.7-0.4,1.8-0.9,4.1-0.9l0.2,0c3.8,0,6.7,1.8,8.9,3.2
	c1.5,0.9,2.5,1.6,3.7,1.6c0.9,0,1.5-0.2,2-0.3c-0.1,0.7-0.4,1.6-0.6,2.2c-0.6,2.1-1.2,4.4-0.9,6.4c0.4,2.1,1.9,2.9,3.1,2.9
	c1.7,0,3.4-1.3,5-2.5c0.5-0.3,0.9-0.7,1.2-0.9c1-0.6,2.3-0.9,3.8-1.3c0.9-0.2,1.9-0.4,3.1-0.8c1-0.3,1.7-0.4,2.3-0.4
	c1,0,2.1,0.3,4.5,1.9c1.4,0.9,1.5,1.4,1.8,2.6c0.2,1.1,0.5,2.5,1.7,4.2c2.3,3.4,3.6,7.5,4.6,11.4c1.6,6.4,5.3,7.7,8,7.7
	c0.3,0,0.6,0,0.8,0c0,0.6-0.2,1.5-0.3,2.2c-0.4,2.7-0.9,6,0.6,8.5c1,1.7,2.6,2.6,4.4,2.6c3.4,0,6.7-3.2,7.7-4.9
	c0.3-0.2,1.4-0.4,2.1-0.6c2.3-0.5,5.8-1.4,9.2-4.3c4.3-3.8,5.5-4.4,11.6-7.3c0.8-0.4,1.8-0.9,2.8-1.4c0.6-0.3,1.1-0.5,1.4-0.6
	c0,0.5,0,1.1-0.1,1.6c-0.2,2.7-0.5,7.1,3.9,8.5c4.7,1.5,6.7,2.7,9.1,4.3c0.6,0.4,1.2,0.8,1.9,1.2c0.9,0.5,1.8,1.1,2.8,1.6
	c2.8,1.6,6,3.5,9.1,6.3c1.7,1.5,3.4,2.3,5.4,2.3c1.7,0,3.2-0.5,4.9-1c1.6-0.5,3.2-1,5.1-1.2c0.8-0.1,1.4-0.1,1.9-0.1
	c2.3,0,2.5,0.3,4,2.3c0.3,0.4,0.7,0.9,1.1,1.5c0.6,0.8,1.2,1.4,2,1.9c-0.2,2.6-0.9,5-2,6.9c-3.7,6.7-8.9,11.6-14.4,16.9
	c-4.3,4.2-8.8,8.4-12.6,13.7c-2,2.7-4.5,5-6.9,7.2c-5.4,5-11.1,10.1-10.4,20c0.3,4.2,3,8.2,5.7,12.1c3.3,4.9,6.5,9.4,4.7,13.5
	c-1.3,2.9-3.8,4.7-6.5,6.6c-3.7,2.6-7.9,5.6-8.7,12c-0.8,6.4,1.6,11.6,3.7,16.1c2.7,5.9,4.8,10.5,1.1,17.1c-0.5,0.8-1,1.8-1.5,2.9
	c-1.8,3.5-4.7,9.4-7.1,10.5c-0.5,0.2-1,0.3-1.4,0.3l0,0c-1.3,0-2.7-1-4.2-2.1c-1.5-1.1-3.3-2.3-5.3-2.7c-1.4-0.3-4.2-0.5-7.1-0.5
	c-2.7,0-7.5,0.1-9.6,1.1c-3.2,1.4-6.4,5.2-9.7,9.2c-2.8,3.4-5.8,6.9-8.4,8.6c-4,2.6-8.6,4.4-13.5,6.4c-8.2,3.3-16.7,6.7-22.5,13.9
	c-4.2,5.3-4.4,11.6-4.5,17.7c-0.1,4.8-0.2,9.3-2.3,13.1c-0.9,1.6-2.2,2.6-3.5,3.6c-2.5,2-5.3,4.2-4.9,9.7c0.3,3.9,2.6,6.6,4.6,8.9
	c1.7,2,3.2,3.7,3.2,5.8c0,0.8-1.1,4.3-2,7.1c-0.4,1.1-0.7,2.3-1.1,3.4c-0.3-0.1-0.7-0.1-1-0.1c-0.4,0-0.9,0-1.4,0.1
	c-1.4,0.2-2.8,1.1-4.1,2C1033.5,558.7,1032.5,559.4,1031.8,559.7z"/>
<path id="estadoMT" class="st2" d="M611,862.1c-0.5-2.4-1.6-4.6-2.7-6.8c-0.6-1.3-1.3-2.6-1.9-4c-2-5-5.8-7-10.7-9.6
	c-1.2-0.7-2.5-1.4-3.9-2.2c-5.2-3-5.2-3-5.5-8.5l-0.1-1.4c-0.1-1.9-0.1-3.7-0.2-5.7c-0.1-5.7-0.2-12.1-2.3-20.7
	c-2.2-9-2.8-9.9-4.4-11.7c-0.4-0.4-0.7-0.8-1.3-1.5c-2.7-3.6-7.6-3.7-12.9-3.7c-1.1,0-2.3,0-3.5-0.1c-0.3,0-0.6,0-0.9,0
	c-6.5,0-13,2.8-16.4,4.2c-2,0.8-5.8,1.3-10.8,1.3c-4.1,0-8-0.3-10.5-0.5c-7.7-0.7-11.9-10.1-13.3-14.1c-0.8-2.2-1.4-5.3-2.1-8.6
	c-1.2-6-2.5-12.8-5.5-17.5c-0.1-0.2-0.3-0.4-0.4-0.6c0.9,0.2,1.8,0.4,2.7,0.4c0.8,0,1.5-0.2,2.1-0.5c2.3-1.4,2.8-5.2,3.3-10.5
	c0.1-1,0.2-1.9,0.3-2.5c0.5-3.3-0.3-18.8-1.3-24.7c-1-5.8-4.4-12.4-7.3-16.3c4.3-4.6,6.6-7.3,7.6-8.9c2.4-3.9,2.3-8.5,2.1-12.6
	c-0.1-3.6-0.3-7.1,1.4-9.3c0.4-0.5,1.8-0.9,3-1.1c2-0.5,4.2-1,5.6-2.9c2-2.7,0.9-5.3,0.2-7.3c-0.4-1.1-0.8-2.1-0.6-2.7
	c0.2-0.7,1.5-1.6,2.7-2.3c1.7-1.2,3.7-2.5,4.2-4.6c1.1-4.5-2.1-10.1-4.9-15.1c-1.2-2.2-2.3-4.2-2.9-5.7c-0.8-2.1,0.2-3.4,2.2-5.7
	c0.5-0.6,1-1.2,1.5-1.9c3-4,0.7-9.9-0.8-13.9c-0.2-0.5-0.4-1-0.5-1.4c-0.1-0.4-0.3-0.8-0.4-1.2c-0.9-2.7-1.8-5.4-5.9-6.8
	c-2.2-0.7-4.6-1.1-7.3-1.1c-2.9,0-5.7,0.4-8.5,0.8c-2.7,0.4-5.3,0.7-7.8,0.7c-2.7,0-4.9-0.4-7-1.3c-0.2-0.2-0.3-1.2-0.4-1.7
	c-0.2-1.5-0.5-3.6-2.4-4.6c-1.1-0.6-2.4-0.8-4.4-0.8c-1.1,0-2.3,0.1-3.5,0.2c-1.2,0.1-2.4,0.2-3.5,0.2c-3.4,0-4.1-0.8-4.4-1.5
	c-4.4-10.6-1.4-21.7,1.4-32.4c2.7-10,5.4-20.3,2.2-30.2c6.8-1.8,14.4-2.5,20.4-2.9c2.2-0.1,4.4-0.3,6.7-0.5c9.3-0.6,19-1.3,28.4-1.3
	c4,0,7.7,0.1,11.2,0.4c2.8,0.2,5.6,0.8,8.6,1.4c3.6,0.8,7.4,1.5,11.3,1.5c1.7,0,3.3-0.2,4.9-0.5c14.8-3,19.8-8.1,22.5-22.8
	c0.1-0.7,0.2-1.8,0.3-3.9c0.2-3.1,0.7-12.4,2-14.5c4.8,2.5,6.5,9.8,8,16.3c0.6,2.7,1.2,5.2,2,7.3c5.2,13.9,19.8,46.9,41.6,52.9
	c6.7,1.9,13.8,2.8,21.8,2.8c10.8,0,21.8-1.7,32.4-3.4c10.4-1.6,21.2-3.3,31.8-3.3c0.5,0,1,0,1.4,0c7.7,0.1,15.7,1.3,23.3,2.5
	c8.3,1.3,16.8,2.6,25.4,2.6c2.9,0,5.7-0.2,8.3-0.4c16.8-1.9,31-2.8,43.4-2.8c4,0,7.8,0.1,11.4,0.3c3.7,0.2,7.6,0.6,11.3,1
	c5.4,0.6,10.9,1.2,16.4,1.2c0.4,0,0.9,0,1.3,0c3.8-0.1,7.3-0.4,10.6-0.7c2.5-0.2,5-0.5,7.4-0.6c-0.8,1.8-1.4,3.4-1.9,4.9
	c-0.6,2.2-0.3,5,0,7.7c0.3,2.7,0.6,5.8-0.3,7.1c-3.1,4.5-5.6,9-8,13.4c-1.4,2.6-2.9,5.3-4.5,8c-0.7,1.1-1.5,2.3-2.4,3.6
	c-2,2.7-4,5.6-4.8,8.8c-0.9,3.5,0.5,6.3,1.6,8.5c0.9,1.7,1.4,2.8,1.1,3.9c-0.3,0.9-0.8,1.8-1.3,2.9c-0.8,1.5-1.6,3.1-1.8,4.7
	c-0.3,2.2,0.7,4.5,1.4,6.4c0.2,0.6,0.5,1.2,0.6,1.6c1.3,3.9,1.8,7.6,2.3,11.1c0.7,5.3,1.5,10.7,4.8,16.5c-1.6,2.8-4.3,7.9-4.9,9.9
	c-0.7,2.2-0.5,4.4-0.4,6.3c0.1,1.5,0.3,3-0.1,4.3c-0.3,1.4-1.6,2.3-3.1,3.3c-1.3,0.9-2.8,2-3.8,3.6c-1.9,3.2,0.1,6.3,1.5,8.5
	c0.9,1.5,1.9,3,1.6,4c-0.4,1.5-2,2.7-3.6,4c-1.2,0.9-2.4,1.8-3.4,3c-1.8,2.1-1.3,5.4-0.8,8.5c0.2,1.5,0.5,3.1,0.3,3.9
	c-0.9,4.5-2.7,9-5.7,14.3c-1.6,2.7-3.8,3.1-7.7,3.5c-4,0.4-9.1,0.9-12.8,6.5c-2.5,3.7-3.1,9.1-3.7,13.9c-0.5,4-1,8.2-2.4,9.7
	c-1.2,1.2-2.5,1.4-4.3,1.4c-0.5,0-1.1,0-1.6,0c-0.6,0-1.2,0-1.7,0c-1.9,0-4.2,0.2-6.3,1.9c-1.2,0.9-2.5,1.9-4,2.9
	c-4.4,3-9.3,6.4-11.1,11c-0.7,1.7-0.5,3.5-0.3,5.3c0.3,2.3,0.4,3.7-0.8,4.8c-0.5,0.5-2.3,0.6-3.7,0.7c-2.8,0.2-6.4,0.4-9,3
	c-2.4,2.4-2.6,5.8-2.8,8.8c-0.1,2-0.2,3.8-0.9,5.2c-0.1,0.3-1.1,0.6-1.7,0.8c-1.1,0.4-2.2,0.8-3.2,1.7c-5,5-3.6,15-2.8,20.3
	c0.3,2.2,1.5,4.7,2.7,7.3c1.3,2.9,3,6.5,2.6,8.3c-0.4,1.6-1.4,3-2.6,4.3c-0.2-0.5-0.5-1-0.8-1.6c-1.8-2.9-5-3.7-7.9-4.3
	c-2.2-0.5-4.3-1-5.5-2.4c-1.1-1.4-0.7-3.2,0.1-6.2c1.2-4.3,3-10.8-6.1-14.7c-1.4-0.6-2.7-0.9-3.9-0.9c-4.4,0-6.6,3.7-8.3,6.6
	c-1.2,2-2.4,4-3.9,4.4c-0.4,0.1-0.8,0.2-1.2,0.2c-1.2,0-2.6-0.5-4.1-1c-1.8-0.6-3.6-1.2-5.6-1.2c-0.3,0-0.7,0-1,0.1
	c-4.2,0.5-7.6,2.4-10.8,4.2c-3.4,1.9-6.5,3.7-10.4,3.8l-0.4,0c-6.9,0-13.5-3.5-20.5-7.1c-7.2-3.8-14.7-7.7-22.8-7.7l-0.5,0
	c-3.2,0.1-5.6,1.8-7.7,3.4c-1.4,1-2.7,2-4.1,2.4c-0.2,0-0.3,0.1-0.5,0.1c-0.6,0-1.3-0.4-2.2-1.1c-1.2-0.9-2.8-2-5-2
	c-0.9,0-1.9,0.2-2.9,0.6c-3.4,1.4-5.5,5-7.4,8.2c-0.6,0.9-1.1,1.8-1.6,2.5l-0.4,0.5C621.9,849.7,616.9,856.9,611,862.1z"/>
<g id="estadoPA">
	<path class="st6" d="M864.7,193.6c0,0,0.1,0,0.1-0.1c2.1-0.8,5.8-2.5,7-3.8c1.1-1.2,1.8-2.5,2-3.2c-0.5-0.1-1.1-0.2-1.8-0.2
		c0,0-0.1,0-0.1,0l-3,0.9l-9,5.1c-0.8,0.9-3.2,3.8-5.2,5.6c-0.1,0.1-0.3,0.3-0.4,0.4c0.1,0,0.1-0.1,0.2-0.1
		C857,197.2,864.7,193.6,864.7,193.6z"/>
	<path class="st6" d="M1024.9,226.9c-1.2,0.5-3.6,1.2-6.1,1.2c-1.9,0-3.6-0.5-4.9-1.4c-0.8-0.6-1.6-1.2-2.5-1.9
		c-2.5-2-5.1-4-7.3-4.8c-0.8-0.3-1.6-0.6-2.5-1c-2.6-1.1-5.6-2.3-9.2-3.3c-4.5-1.3-11.3-2.1-13.9-2.1l-0.2,0
		c-2.2,0.1-10,0.7-11.2,0.8l-9.5,2.4c0,2.2-0.9,5.2-4.3,7.4c-3.5,2.3-7.6,7.7-8.8,9.5c0.1,1.5,0.5,5.1,0.8,7.6
		c0.1,0.4,0.1,0.7,0.2,1.1c0.4,2.6,0.8,5-0.6,6.6c-0.5,0.5-1.3,1.2-2.7,1.2c-0.4,0-0.8,0-1.2-0.1c-2.5-0.6-5.2-1.9-6.7-2.7l-6.5,5.1
		c-3.3,4.4-7,9.7-7.3,10.8c-0.1,0.3-0.1,0.4-0.1,0.6c-0.1,1-0.1,1.1-3.9,8.2c-6.1,11.5-7.5,13.2-9.5,13.2c0,0,0,0,0,0
		c-0.6,0-1.2-0.2-1.6-0.7c-0.8-0.8-0.8-1.9-0.8-2.7c0.1-3.8,1.5-6.3,3-9c0.5-0.8,0.9-1.7,1.4-2.6c1.2-2.4,2.5-5.5,3.6-7.9
		c0.7-1.5,1.2-2.7,1.5-3.5c0.3-0.5,0.5-1.5,0.7-2.5l-9,3.4c-0.1,0.1-0.3,0.1-0.5,0.1c-0.1,0-2,0.3-4.4,0.3c-2.3,0-4.3-0.2-5.9-0.7
		c-0.3-0.1-1-0.2-2.2-0.2c-1.2,0-2.7,0.1-4,0.2c-1.2,0.1-2.4,0.2-3.4,0.2c-0.9,0-2.7,0-3.5-1.4c-0.4-0.7-0.5-1.6,0-2.5
		c1.9-3.7,6.6-5.7,13.7-5.7c1.1,0,2.2,0,3.4,0.1l1.8,0.2c2.3,0.2,4,0.4,5.5,0.4c1.2,0,2-0.1,2.7-0.3c1.5-0.5,8.8-4,13.6-6.4l2.8-4.6
		c0.1-0.2,0.3-0.4,0.5-0.6l4.5-3.4l4-9.3c0.1-1.2,0.7-5.4,2.5-8.5c0.6-1,1.4-2.4,2.3-3.8c1.4-2.2,4-6.4,4.2-7.5
		c0.1-1.1,0.1-2.7,0-3.9l-4.1-1.2c-1.4,0.2-5.9,0.9-8.7,0.9c-1,0-1.7-0.1-2.3-0.3c-2.2-0.7-4.8-4.5-6.4-7.3l-8.3,0.7
		c-0.1,0-0.1,0-0.2,0c-0.9,0-1.7-0.6-2-1.6c-0.1-0.3-0.1-0.6,0-0.9c-0.4-0.1-0.8-0.2-1.4-0.3c-1.6-0.4-3.2-0.5-4.7-0.5
		c-3.9,0-6.3,1.2-7.1,2.3c-2,2.5-3.9,2.5-5.6,2.6c-0.6,0-1.3,0-2,0.2c-0.6,0.1-1.3,0.2-2.3,0.4c-2.7,0.5-9,1.6-10.4,2.6
		c-0.8,0.6-1.7,1.1-2.4,1.5c-1.6,0.9-2.4,1.3-2.9,2.7c-0.3,0.8-0.7,1.8-1.1,2.9c-1.1,2.8-2.5,6.3-2.9,9.4c-0.2,1.6,0,2.2,0.1,2.6
		c0.4,1.4,0.2,2.2-0.9,4c-0.3,0.5-0.5,0.9-0.7,1.3c-1.2,2.2-2.1,3.6-5.7,4c-6.3,0.6-12.5,1.5-13.6,2.1c-0.5,0.4-1,0.6-1.6,0.6
		c-0.9,0-1.7-0.6-2.1-1.5c-0.8-2.1,1.5-6,4-8.1c2.4-2.1,5-3.9,7.2-5.4c0.7-0.5,1.4-1,2-1.4c1.6-1.2,3.4-3.3,4.2-4.3l-0.7-5.2
		c0-0.2-0.1-0.3-0.1-0.5c-1.7,1.8-3.9,2.7-6.5,2.7c-1.8,0-3.8-0.4-6.2-1c-0.7-0.2-2.9-0.7-3-2.7c0-0.5,0.1-1,0.4-1.4
		c-0.1-0.1-0.2-0.2-0.3-0.3c-0.2-0.2-0.4-0.5-0.4-1c-10,6.2-16.6,14.2-24.3,25.4c-0.8,1.2-1.2,2.6-1.7,4.1c-0.5,1.5-1,3.1-1.9,4.6
		c-2.1,3.4-13.4,8.1-18.1,8.1c-1,0-1.7-0.2-2.4-0.5c-4-2.1-1.3-7.6,0.3-10.8c0.3-0.7,0.8-1.6,0.9-2c0.2-3-1.6-5.1-3.7-7.4
		c-1.6-1.8-3.3-3.7-4.1-6.2c-0.5-1.5-0.2-3.5,0-5.4c0.1-0.9,0.3-2.3,0.2-2.9c-0.7-0.8-3.6-1.4-5.4-1.8c-2.5-0.5-4.8-1-6.3-2.1
		c-4.5-3-7.8-7.8-10.8-12c-0.6-0.9-1.2-1.7-1.8-2.5c-2.7-3.6-2.3-7.9-2.1-11.6c0.3-3.7,0.5-6.9-1.6-9.5c-1.1-1.3-5-3.5-8.1-5.2
		c-5.2-2.8-7.8-4.3-8.3-6.2c-0.4-1.6-0.2-5.2,0.9-13.4c0-0.2,0-0.3,0.1-0.5c-0.5-0.2-1.6-0.4-3.8-0.4c-1.6,0-3.3,0.1-4.8,0.2
		c-1.1,0.1-2,0.2-2.7,0.2l-0.2,0c-8-0.2-30.1-5.7-32.8-17c-1.2-4.9,1.5-10.8,7.9-17.4c-1-1.2-1.5-2.3-1.7-3.3c-0.6,0-1.4,0-2.4-0.1
		c-5-0.2-7-2.2-8.4-3.6c-0.8-0.8-1-1-1.5-1c-0.3,0-1,0.1-2.2,0.6c-2.1,0.9-3.3,2.3-4.4,3.6c-1.4,1.7-3.1,3.7-6.5,3.7
		c-1.3,0-2.9-0.3-4.8-0.9c-4.4-1.5-7.2-3.5-9-4.9c-0.2-0.2-0.5-0.4-0.7-0.5c-0.1,0.5-0.3,1-0.4,1.4c-0.9,3.5-1.3,4.7,0,9.3
		c0.4,1.4,0.9,2.7,1.4,3.8c0.9,2,1.7,3.9,0.7,5.6c-1.1,1.7-3.4,2.1-5.8,2.2c-1,0-1.9,0.1-2.8,0.1c-2.8,0-5.2-0.2-7.3-0.3
		c-1.7-0.1-3.4-0.3-4.8-0.3c-0.8,0-1.6,0-2.3,0.1c-1.5,0.2-2.3,1-3.5,2.5c-1.2,1.5-2.8,3.4-5.7,3.7c-0.7,0.1-1.6,0.2-2.4,0.3
		c-1.7,0.3-3.6,0.6-5.5,0.6c-3.6,0-6.1-1.1-7.9-3.4c-1-1.4-1.7-2.6-2.2-3.6c-0.3-0.7-0.8-1.6-1.1-1.7c-0.1,0-0.6,0.1-1.6,0.5
		c-1.9,0.9-3,1.8-4.2,2.8c-1.7,1.4-3.6,3-7.5,4.6c-6.6,2.8-14.2,5.2-14.6,5.3c-0.2,0.1-0.4,0.1-0.6,0.1c-0.2,0-0.5,0-0.7-0.1
		c0,0-2.2-0.8-4.6-0.8c-2,0-3.5,0.5-4.5,1.6c-1.7,1.8-2.6,3.5-3.4,5.1c-0.9,1.8-1.8,3.6-3.7,5.1c-0.5,0.4-0.9,0.8-1.4,1.2
		c-1.5,1.3-3.1,2.9-5.7,3c0.6,9.3,0.8,19.4-4.3,26.6c0,0,0,0,0,0c4.6,5.9,7,10.9,7.3,15.3c0.3,3.3-0.7,6.1-1.5,8.5
		c-1.2,3.6-2,6.1,0.4,10c1.7,2.8,4.7,4.1,7.7,5.6c3.3,1.5,6.7,3.1,8.9,6.6c2.4,3.7,2.1,7.8,2,11.4c-0.2,4-0.4,7.4,2.5,10.2
		c3.5,3.3,16.4,4,25.9,4.4c5.6,0.3,10.5,0.5,13.5,1.2c5.3,1.2,6.6,4.8,7.5,7.4c0.7,2.1,1.2,3.4,2.7,4.2c0,0,0,0,0.1,0
		c1,0,2.9-1,4.7-1.9c2.5-1.3,5-2.7,7.4-2.7c1.5,0,4,0.6,5.1,4.3c1.4,5-0.9,9.3-3,13c-1,1.9-2,3.7-2.6,5.5c-2.2,7.8-5.5,14-9,20.6
		c-1.6,3-3.3,6.1-4.8,9.5c-1.6,3.4-3.2,6.9-4.7,10.3c-4,8.9-8.2,18.1-13.2,26.7c-6.7,11.5-12.1,24-17.3,36.1
		c-4,9.3-8.2,19-12.9,28.1c-1.6,3-5.7,7.2-9.6,11.3c-2.9,2.9-6.8,6.9-7.1,8.1c-1,7.3,1,9.2,3.5,11.7c1.9,1.8,4,3.9,5,8
		c0.4,1.9-0.2,3.6-0.7,5c-0.6,1.6-0.9,2.6-0.5,3.6c0.3,0.6,0.8,1,1.7,1.6c1.2,0.9,2.9,2.1,3.5,4.5c0.7,2.8,0.7,5.6,0.7,8.3
		c0.3-0.1,0.6-0.1,0.9-0.1c0.5,0,1,0.1,1.5,0.3c6.9,3.1,9,12,10.6,19.2c0.6,2.5,1.1,4.9,1.8,6.7c3.9,10.4,18.3,44.8,39,50.5
		c6.4,1.8,13.1,2.6,20.7,2.6c10.5,0,21.3-1.7,31.8-3.3c10.6-1.6,21.6-3.4,32.4-3.4c0.5,0,1,0,1.5,0c8,0.1,16.1,1.3,23.9,2.5
		c8.1,1.2,16.5,2.5,24.8,2.5c2.8,0,5.3-0.1,7.9-0.4c16.9-1.9,31.3-2.8,43.8-2.8c4.1,0,8,0.1,11.6,0.3c3.9,0.2,7.7,0.6,11.5,1
		c5.3,0.6,10.7,1.2,15.9,1.2c0.4,0,0.8,0,1.2,0c3.6-0.1,7-0.4,10.3-0.7c3.3-0.3,6.5-0.6,9.8-0.6c0.5-1,1.1-2,1.6-3
		c1.4-2.6,2.7-5,3.7-7.2c1.4-3.3,4.1-5.5,6.6-7.6c1.5-1.2,2.9-2.3,3.9-3.6c1.1-1.3,1.7-2.9,2.3-4.7c0.7-2,1.5-4,2.9-5.8
		c1.3-1.5,2.8-3,4.3-4.4c3-2.9,6.2-6,7.2-9.6c0-0.1,0-0.2,0-0.4c0-0.2,0-0.4,0-0.6c0.1-1.2-0.9-4.6-1.6-6.9c-0.5-1.8-1-3.5-1.2-4.6
		c0-0.1-0.1-0.4-0.1-0.7c0-0.1,0-0.4-0.1-0.6c-0.3-0.2-0.6-0.4-0.9-0.7c-1.2-0.9-2.6-1.9-3.3-3.7c-2-5.1,0.5-8.6,2.5-11.4
		c1.2-1.7,2.3-3.3,2.3-4.9c0-1.1-0.9-3.3-1.8-5.2c-1.5-3.3-2.9-6.5-1.9-9c3.2-8.5,10.4-10.8,17.3-13c6.7-2.1,13-4.1,15.8-11.7
		c2.5-6.7,3.6-18,1.1-24.2c-0.3-0.8-1.8-1.8-3.2-2.6c-2.3-1.4-5.1-3.2-4.9-6.3c0-0.6,0.2-1.2,0.6-1.8c-2.4-3.8-6.7-11.7-3.1-16.9
		c1.5-2.1,3.4-3.1,5.8-3.1c1.2,0,2.3,0.2,3.4,0.5c0.9,0.2,1.7,0.4,2.4,0.4c0.4,0,0.7-0.1,1-0.2c1.2-0.6,2.3-1.8,3.4-3.2
		c1-1.2,2-2.4,3.2-3.3c1.6-1.2,3.3-2,5-2.8c2.2-1.1,4.3-2.1,5.8-3.7c4.9-5.3,10-12.7,14.5-19.2l1.5-2.1c3-4.3,3-8.8,2.9-13.9
		c0-2.9,0-5.9,0.5-9c0.6-3.1,2.9-9.4,7.2-19.1c2-4.6,5.5-6.9,8.8-9.1c2.2-1.5,4.3-2.9,6-4.9c1.6-1.9,2.5-4.2,3.4-6.7
		c0.6-1.7,1.3-3.4,2.2-5c1.2-2.3,2.8-4.3,4.4-6.2c1.3-1.7,2.6-3.3,3.6-5c2-3.4,1.8-6.4,1.5-10c-0.3-3.3-0.6-7,1.2-10.9
		c1.4-3.1,4.1-5.1,6.5-6.9c0.7-0.5,1.4-1,2-1.5c0.3-0.3,0.6-0.6,1-0.9C1031.6,229.8,1027.2,227.8,1024.9,226.9z"/>
	<path class="st6" d="M882.3,179.1c0.8,1.8,4.6-1.8,5.1-2.2c1.5-1.2,11-10.9,8.5-13.5c-4.2-4.3-21.1,4.7-21,11
		C874.9,180,880.2,174.5,882.3,179.1z"/>
	<path class="st6" d="M881.3,187.2c-0.2,1.1,4,0.3,5.6,0.2c1.7-0.1,3.2,1.6,4.9,1.7c2.8,0.2,13.8-3.8,13.9-6.8
		C905.8,173.7,882.2,180.3,881.3,187.2z"/>
</g>
<path id="estadoRJ" class="st5" d="M1089.8,1067.1c-1,0-2.5-0.3-3.8-1.5c-0.9-0.9-1.9-1.3-3-1.3c-1,0-1.9,0.4-2.6,1c0,0,0-0.1,0-0.1
	c-0.6-3.4-1.2-9.6-0.5-11.8c0.6-1.9,3.8-5.4,6.7-8.5c4.8-5.2,7.8-8.6,7.7-11.5c-0.1-2.1-2.1-3.1-3.7-3.9c-1-0.5-2.4-1.2-2.5-1.7
	c0-0.1-0.1-1.1,2.1-3.4c6.1-6.4,13.8-7.3,21.2-7.3c2.3,0,4.6,0.1,6.9,0.2c2.3,0.1,4.7,0.2,7,0.2c5.1,0,8.9-0.5,12.4-1.5
	c3.4-1,6.1-2.9,8.8-4.8c2.3-1.6,4.4-3.1,6.9-4c0.6-0.2,1.3-0.3,2.2-0.3c1.7,0,3.7,0.4,5.5,0.7c1.6,0.3,3,0.6,4.1,0.6
	c1,0,1.8-0.2,2.4-0.6c7.9-5.5,6.6-10.1,5.7-13.4c-0.6-2.2-0.9-3.4,0.2-5c0.5-0.7,2-1.4,3.3-2c2.4-1,5-2.2,5.7-4.8
	c0.7-3-1.1-5.2-2.5-6.8c-0.6-0.7-1.4-1.7-1.4-2.1c0-0.1,0.1-0.5,1.4-1.4c0.5-0.4,1.2-0.6,1.8-0.9c0.6-0.3,1.3-0.6,2-1l0.4-0.2
	c1.7-1,2.7-1.6,3-1.8c0.8-0.3,1.5-0.5,2.1-0.5c2.7,0,4.1,3.9,5.7,9.3c1.3,4.2,2.5,8.2,5.1,10.2c1.1,0.8,3.1,1.3,10.2,1.3
	c1.8,0,3.8,0,5.7-0.1c1.7,0,3.4-0.1,4.9-0.1c0.1,0,0.3,0,0.4,0c-0.5,2-0.5,3.8-0.1,5.5c1.2,4.5,0.6,18.9,0.2,21.3
	c-0.2,1-1.9,2.8-6.4,4.8c-3.6,1.6-9.4,2.9-11.5,3.2c-2.8,0.5-13,7-14.6,8.3c-1.9,1.5-1.8,5.2-1,12.3c0.1,0.7,0.2,1.5,0.2,1.8
	c-0.4,1-2.5,3.8-3.4,4.4c-0.1,0-0.3,0.1-0.5,0.2c-1.3,0.4-4,1.2-6.2,1.2h0c-0.7,0-1.3-0.1-1.7-0.2c-0.9-0.3-1.6-0.7-2.4-1.1
	c-1.8-1-3.7-1.9-7.4-1.9c-1.7,0-4.2,0.1-7,0.2c-3.5,0.1-7.5,0.3-10.4,0.3c-2.6,0-3.2-0.1-3.3-0.2c-0.1,0-0.2,0-0.2-0.1
	c0.8-0.6,1.7-1.1,2.2-1.5c1.3-1,2.8-2.3,2.6-4c-0.1-0.8-0.6-1.9-2.2-2.5c-0.3-0.1-0.7-0.2-1.1-0.2c-3.3,0-9.5,5.9-10.5,7.7
	c-0.3,0.6-2.7,1.5-4.8,1.5c-0.3,0-0.5,0-0.6,0c-1.5-0.2-4.3-0.3-7.3-0.3c-1.6,0-3.2-0.1-4.5-0.1c-0.1,0-0.3,0-0.4,0
	c-3.6,0-5.2,2.1-6.6,3.7c-0.4,0.4-0.7,0.9-1.1,1.2c-2.6,2.6-6.4,5.3-7.6,5.3c-0.1,0-0.2,0-0.3,0c-1.1,0-1.4-0.2-1.5-0.3
	c-0.1-0.1-0.4-0.5-0.3-1.9c0.1-1.1,0.2-1.8,0.3-2.2c0.2-1.4,0.1-2-0.8-3.1l-0.2-0.3c-1.1-1.4-3-2.2-5.1-2.2c-0.8,0-1.6,0.1-2.3,0.3
	c-3.2,1-5.4,6.9-4.6,10.2c0.5,2.1,1.6,2.9,2.5,3.6c0.5,0.4,1,0.8,1.6,1.5c0.3,0.4,0.4,0.6,0.5,0.7c-0.1,0.2-0.3,0.5-0.5,0.7
	c-0.2,0.2-0.3,0.4-0.5,0.6C1091.9,1066.7,1091,1067.1,1089.8,1067.1z M1184.5,1049.9L1184.5,1049.9z"/>
<path id="estadoES" class="st5" d="M1210.2,984.4c-6.2,0-7.6-0.4-7.9-0.6c-1.5-1.1-2.6-4.7-3.6-8.1c-1.4-4.7-3-10-6.9-11.7
	c0-0.1,0-0.1,0-0.2c0-3,0.4-13.3,6.3-18.1c1.1-0.9,2.7-0.9,4.6-0.9c2.1,0,4.4,0,6.5-1.3c3.6-2.1,3.9-6.9,4.3-11.1
	c0.2-2.5,0.4-5.1,1.2-6.4c1-1.5,2.6-2.3,4.4-3.1c2.7-1.3,6-2.8,6.9-7.3c1.4-7.2-1.9-11.6-4.9-15.4c-2.2-2.9-4.3-5.7-4.8-9.6
	c0-0.2,0-0.2,0-0.2c0.2-0.2,1.5-0.6,2.2-0.7c2.3-0.6,6.5-1.6,5.7-6.5c-0.4-2.4-1.7-4.1-2.8-5.5c-1.6-2.1-2.3-3-0.6-5.8
	c0.9-1.4,2.8-2.2,5.6-2.2c1.3,0,2.6,0.2,3.3,0.3c0.4,0.1,0.7,0.1,1,0.1c0.5,0,1.1-0.2,1.5-0.6c2.6-2.7,1.7-6,1-8.4
	c-0.4-1.5-0.8-2.9-0.3-3.7c0-0.1,0.5-0.3,1.6-0.3c1.5,0,3.4,0.4,4.8,0.7c0.4,0.1,0.7,0.2,1,0.2c6.7,1.3,10.1,4.5,13.8,7.8
	c2.9,2.7,6,5.5,10.7,7.3c1.9,0.7,4.7,1.3,8.5,1.9c0,0.4,0.1,0.8,0.1,1.2c0.1,0.8,0.1,1.5,0.1,2.2c0.1,1.5-0.2,3.6-0.6,5.7
	c-0.6,4.2-1.4,8.9,0,13.2c1.4,4.3,1.3,6,1.1,8.5c0,0.8-0.1,1.6-0.1,2.5c-0.1,3-0.5,3.6-2.5,6.5c-0.4,0.5-0.8,1.1-1.2,1.7
	c-2.3,3.2-4.4,4.3-7.3,5.8c-0.6,0.3-1.3,0.6-1.9,1c-2.7,1.4-3.8,2.9-4.8,4.3c-0.7,0.9-1.2,1.7-2.3,2.5c-2.8,2-2.4,6.1-2,10
	c0.2,1.9,0.4,4.1,0,5c-0.2,0.5-0.4,1.3-0.7,2.1c-1,2.8-3.6,10.4-4.5,11.5c-0.5,0.5-1.2,1.5-2.5,3.5c-1.4,2.2-4.1,6.4-5.4,7.1
	c-2.8,1.6-9.2,6.4-11.6,8.5c-1.3,1.2-3.2,3.6-4.6,6.6c-0.5,0-1.1,0-1.8,0c-1.5,0-3.2,0-4.9,0.1C1214,984.4,1212,984.4,1210.2,984.4z
	"/>
<g id="siglaBA">
	<g>
		<path class="st7" d="M1176.3,651c0.8,0.3,1.4,0.8,1.9,1.5c0.5,0.7,0.8,1.5,0.8,2.4c0,1.4-0.5,2.5-1.5,3.3c-1,0.8-2.4,1.2-4.3,1.2
			h-7.6v-16.3h7.6c1.6,0,2.9,0.4,3.8,1.1c0.9,0.8,1.4,1.8,1.4,3.1c0,0.8-0.2,1.5-0.6,2.2S1176.9,650.7,1176.3,651z M1173.3,645.2
			h-5.5v4.8h5.5c0.9,0,1.6-0.2,2.1-0.6c0.5-0.4,0.8-1,0.8-1.8s-0.3-1.4-0.8-1.8C1174.9,645.4,1174.2,645.2,1173.3,645.2z
			 M1173.5,657.3c1,0,1.8-0.2,2.4-0.7c0.6-0.5,0.9-1.1,0.9-1.9c0-0.8-0.3-1.4-0.9-1.9s-1.4-0.7-2.4-0.7h-5.6v5.3H1173.5z"/>
		<path class="st7" d="M1194.7,659.4l-1.6-3.6h-9.1l-1.6,3.6h-2.5l7.3-16.3h2.6l7.3,16.3H1194.7z M1188.6,645.5l-3.6,8.3h7.3
			L1188.6,645.5z"/>
	</g>
</g>
<g id="siglaMG">
	<path class="st7" d="M1094.6,869.7h2.1V886h-2.2v-12.4l-6,7.8h-0.5l-6-7.8V886h-2.3v-16.3h2.1l6.5,8.4L1094.6,869.7z"/>
	<path class="st7" d="M1107.8,876.9h6.9v6.7c-1.8,1.8-4,2.7-6.5,2.7c-2.5,0-4.5-0.8-6.1-2.3c-1.5-1.6-2.3-3.6-2.3-6.1
		c0-2.5,0.8-4.5,2.4-6.1c1.6-1.6,3.6-2.4,6.1-2.4c2.4,0,4.4,0.8,6,2.5l-1.5,1.5c-1.2-1.2-2.7-1.9-4.5-1.9c-1.8,0-3.4,0.6-4.5,1.8
		c-1.2,1.2-1.7,2.7-1.7,4.6c0,1.9,0.6,3.5,1.7,4.6c1.1,1.1,2.6,1.7,4.4,1.7c1.7,0,3.2-0.5,4.4-1.5V879h-4.8V876.9z"/>
</g>
<g id="siglaSP">
	<path class="st7" d="M927.1,1038.4c-2.6,0-4.9-0.8-6.8-2.4l1.2-1.7c0.7,0.6,1.5,1.1,2.5,1.5c1,0.4,2,0.5,3.1,0.5
		c1.3,0,2.3-0.2,3.1-0.7s1.2-1.1,1.2-1.9c0-0.7-0.3-1.3-1-1.8c-0.7-0.4-1.8-0.8-3.4-1c-2.2-0.3-3.8-0.9-4.8-1.6
		c-1-0.8-1.5-1.8-1.5-3.2c0-1.3,0.6-2.4,1.7-3.2c1.2-0.8,2.7-1.3,4.5-1.3c2.3,0,4.3,0.7,6,2.1l-1.2,1.6c-1.4-1.1-3-1.7-4.8-1.7
		c-1.2,0-2.1,0.2-2.9,0.7c-0.7,0.5-1.1,1.1-1.1,1.8c0,0.7,0.3,1.3,1,1.7c0.7,0.4,1.7,0.8,3.2,1c2.3,0.4,4,0.9,5,1.7
		c1,0.7,1.5,1.8,1.5,3.1c0,1.5-0.6,2.7-1.8,3.5C930.7,1038,929.1,1038.4,927.1,1038.4z"/>
	<path class="st7" d="M944.1,1021.8c1.8,0,3.2,0.5,4.2,1.5c1,1,1.6,2.4,1.6,4.1s-0.5,3-1.6,4.1c-1,1-2.4,1.5-4.2,1.5h-5.2v5.1h-2.3
		v-16.3H944.1z M944,1030.9c1.1,0,2-0.3,2.7-1c0.7-0.6,1-1.5,1-2.5s-0.3-1.9-1-2.5s-1.5-1-2.7-1h-5.1v7H944z"/>
</g>
<g id="siglaRS">
	<path class="st7" d="M774.9,1334.6l-5-5.7h-3.7v5.7h-2.3v-16.3h7.5c1.7,0,3.1,0.5,4.1,1.4c1,1,1.6,2.2,1.6,3.8
		c0,1.4-0.4,2.5-1.2,3.5c-0.8,0.9-1.9,1.5-3.3,1.7l5.1,5.8H774.9z M771.5,1320.4h-5.3v6.3h5.3c1,0,1.9-0.3,2.5-0.8
		c0.6-0.6,0.9-1.3,0.9-2.3c0-1-0.3-1.8-0.9-2.3C773.3,1320.7,772.5,1320.4,771.5,1320.4z"/>
	<path class="st7" d="M786.4,1334.9c-2.6,0-4.9-0.8-6.8-2.4l1.2-1.7c0.7,0.6,1.5,1.1,2.5,1.5c1,0.4,2,0.5,3.1,0.5
		c1.3,0,2.3-0.2,3.1-0.7s1.2-1.1,1.2-1.9c0-0.7-0.3-1.3-1-1.8c-0.7-0.4-1.8-0.8-3.4-1c-2.2-0.3-3.8-0.9-4.8-1.6
		c-1-0.8-1.5-1.8-1.5-3.2c0-1.3,0.6-2.4,1.7-3.2c1.2-0.8,2.7-1.3,4.5-1.3c2.3,0,4.3,0.7,6,2.1l-1.2,1.6c-1.4-1.1-3-1.7-4.8-1.7
		c-1.2,0-2.1,0.2-2.9,0.7c-0.7,0.5-1.1,1.1-1.1,1.8c0,0.7,0.3,1.3,1,1.7c0.7,0.4,1.7,0.8,3.2,1c2.3,0.4,4,0.9,5,1.7
		c1,0.7,1.5,1.8,1.5,3.1c0,1.5-0.6,2.7-1.8,3.5C789.9,1334.4,788.4,1334.9,786.4,1334.9z"/>
</g>
<g id="siglaPR">
	<path class="st7" d="M825.9,1104.3c1.8,0,3.2,0.5,4.2,1.5c1,1,1.6,2.4,1.6,4.1s-0.5,3-1.6,4.1c-1,1-2.4,1.5-4.2,1.5h-5.2v5.1h-2.3
		v-16.3H825.9z M825.8,1113.4c1.1,0,2-0.3,2.7-1c0.7-0.6,1-1.5,1-2.5s-0.3-1.9-1-2.5c-0.7-0.6-1.5-1-2.7-1h-5.1v7H825.8z"/>
	<path class="st7" d="M845.4,1120.6l-5-5.7h-3.7v5.7h-2.3v-16.3h7.5c1.7,0,3.1,0.5,4.1,1.4c1,1,1.6,2.2,1.6,3.8
		c0,1.4-0.4,2.5-1.2,3.5c-0.8,0.9-1.9,1.5-3.3,1.7l5.1,5.8H845.4z M842,1106.4h-5.3v6.3h5.3c1,0,1.9-0.3,2.5-0.8
		c0.6-0.6,0.9-1.3,0.9-2.3c0-1-0.3-1.8-0.9-2.3C843.8,1106.7,843,1106.4,842,1106.4z"/>
</g>
<g id="siglaSC">
	<path class="st7" d="M871.3,1232.5c-2.6,0-4.9-0.8-6.8-2.4l1.2-1.7c0.7,0.6,1.5,1.1,2.5,1.5c1,0.4,2,0.5,3.1,0.5
		c1.3,0,2.3-0.2,3.1-0.7s1.2-1.1,1.2-1.9c0-0.7-0.3-1.3-1-1.8c-0.7-0.4-1.8-0.8-3.4-1c-2.2-0.3-3.8-0.9-4.8-1.6
		c-1-0.8-1.5-1.8-1.5-3.2c0-1.3,0.6-2.4,1.7-3.2c1.2-0.8,2.7-1.3,4.5-1.3c2.3,0,4.3,0.7,6,2.1l-1.2,1.6c-1.4-1.1-3-1.7-4.8-1.7
		c-1.2,0-2.1,0.2-2.9,0.7c-0.7,0.5-1.1,1.1-1.1,1.8c0,0.7,0.3,1.3,1,1.7c0.7,0.4,1.7,0.8,3.2,1c2.3,0.4,4,0.9,5,1.7
		c1,0.7,1.5,1.8,1.5,3.1c0,1.5-0.6,2.7-1.8,3.5C874.9,1232.1,873.3,1232.5,871.3,1232.5z"/>
	<path class="st7" d="M888.3,1232.5c-2.5,0-4.5-0.8-6.1-2.4c-1.6-1.6-2.4-3.6-2.4-6.1c0-2.5,0.8-4.5,2.4-6.1
		c1.6-1.6,3.6-2.4,6.1-2.4c2.4,0,4.4,0.8,6,2.5l-1.6,1.4c-1.1-1.2-2.6-1.8-4.4-1.8c-1.8,0-3.4,0.6-4.5,1.8s-1.7,2.7-1.7,4.6
		c0,1.9,0.6,3.4,1.7,4.6s2.7,1.8,4.5,1.8c1.8,0,3.3-0.6,4.5-1.8l1.5,1.5C892.8,1231.7,890.7,1232.5,888.3,1232.5z"/>
</g>
<g id="siglaMS">
	<path class="st7" d="M710,938.3h2.1v16.3h-2.2v-12.4l-6,7.8h-0.5l-6-7.8v12.4H695v-16.3h2.1l6.5,8.4L710,938.3z"/>
	<path class="st7" d="M722,954.9c-2.6,0-4.9-0.8-6.8-2.4l1.2-1.7c0.7,0.6,1.5,1.1,2.5,1.5c1,0.4,2,0.5,3.1,0.5
		c1.3,0,2.3-0.2,3.1-0.7s1.2-1.1,1.2-1.9c0-0.7-0.3-1.3-1-1.8c-0.7-0.4-1.8-0.8-3.4-1c-2.2-0.3-3.8-0.9-4.8-1.6
		c-1-0.8-1.5-1.8-1.5-3.2c0-1.3,0.6-2.4,1.7-3.2c1.2-0.8,2.7-1.3,4.5-1.3c2.3,0,4.3,0.7,6,2.1l-1.2,1.6c-1.4-1.1-3-1.7-4.8-1.7
		c-1.2,0-2.1,0.2-2.9,0.7c-0.7,0.5-1.1,1.1-1.1,1.8c0,0.7,0.3,1.3,1,1.7c0.7,0.4,1.7,0.8,3.2,1c2.3,0.4,4,0.9,5,1.7
		c1,0.7,1.5,1.8,1.5,3.1c0,1.5-0.6,2.7-1.8,3.5C725.6,954.5,724,954.9,722,954.9z"/>
</g>
<g id="siglaGO">
	<path class="st7" d="M869.4,805.2h6.9v6.7c-1.8,1.8-4,2.7-6.5,2.7c-2.5,0-4.5-0.8-6.1-2.3c-1.5-1.6-2.3-3.6-2.3-6.1
		c0-2.5,0.8-4.5,2.4-6.1c1.6-1.6,3.6-2.4,6.1-2.4c2.4,0,4.4,0.8,6,2.5l-1.5,1.5c-1.2-1.2-2.7-1.9-4.5-1.9c-1.8,0-3.4,0.6-4.5,1.8
		c-1.2,1.2-1.7,2.7-1.7,4.6c0,1.9,0.6,3.5,1.7,4.6c1.1,1.1,2.6,1.7,4.4,1.7c1.7,0,3.2-0.5,4.4-1.5v-3.7h-4.8V805.2z"/>
	<path class="st7" d="M893.1,812.2c-1.5,1.6-3.5,2.4-6,2.4s-4.5-0.8-6-2.4c-1.5-1.6-2.3-3.6-2.3-6.1c0-2.5,0.8-4.6,2.3-6.1
		c1.5-1.6,3.5-2.4,6-2.4s4.5,0.8,6,2.4s2.3,3.6,2.3,6.1C895.4,808.6,894.6,810.6,893.1,812.2z M882.7,810.7c1.1,1.2,2.6,1.8,4.4,1.8
		s3.2-0.6,4.4-1.8c1.1-1.2,1.7-2.7,1.7-4.6c0-1.9-0.6-3.4-1.7-4.6c-1.1-1.2-2.6-1.8-4.4-1.8s-3.2,0.6-4.4,1.8s-1.7,2.7-1.7,4.6
		C881.1,808,881.6,809.5,882.7,810.7z"/>
</g>
<g id="siglaDF">
	<path class="st7" d="M932,765.9c2.4,0,4.4,0.7,5.9,2.2c1.5,1.5,2.3,3.5,2.3,5.9c0,2.4-0.8,4.4-2.3,5.9c-1.5,1.5-3.5,2.2-5.9,2.2
		h-6.1v-16.3H932z M932,780.1c1.7,0,3.2-0.6,4.3-1.7c1.1-1.1,1.6-2.6,1.6-4.4c0-1.8-0.5-3.2-1.6-4.4c-1.1-1.1-2.5-1.7-4.3-1.7h-3.8
		v12.1H932z"/>
	<path class="st7" d="M954.6,768.1h-9.1v5.5h8.6v2.1h-8.6v6.6h-2.3v-16.3h11.3V768.1z"/>
</g>
<g id="siglaMT">
	<g>
		<path class="st7" d="M667.7,679.8h2.1v16.3h-2.2v-12.4l-6,7.8h-0.5l-6-7.8v12.4h-2.3v-16.3h2.1l6.5,8.4L667.7,679.8z"/>
		<path class="st7" d="M685.4,679.8v2.1H680v14.2h-2.2v-14.2h-5.5v-2.1H685.4z"/>
	</g>
</g>
<g id="siglaPA">
	<g>
		<path class="st7" d="M766.6,374.7c1.8,0,3.2,0.5,4.2,1.5c1,1,1.6,2.4,1.6,4.1s-0.5,3-1.6,4.1c-1,1-2.5,1.5-4.2,1.5h-5.2v5.1h-2.3
			v-16.3H766.6z M766.5,383.8c1.1,0,2-0.3,2.7-1c0.7-0.6,1-1.5,1-2.5s-0.3-1.9-1-2.5s-1.5-1-2.7-1h-5.1v7H766.5z"/>
		<path class="st7" d="M786.9,391l-1.6-3.6h-9.1l-1.6,3.6h-2.5l7.3-16.3h2.6l7.3,16.3H786.9z M780.8,377l-3.6,8.3h7.3L780.8,377z"/>
	</g>
</g>
<g id="siglaAM">
	<g>
		<path class="st7" d="M345.4,347l-1.6-3.6h-9.1l-1.6,3.6h-2.5l7.3-16.3h2.6l7.3,16.3H345.4z M339.3,333l-3.6,8.3h7.3L339.3,333z"/>
		<path class="st7" d="M365.2,330.7h2.1V347h-2.2v-12.4l-6,7.8h-0.5l-6-7.8V347h-2.3v-16.3h2.1l6.5,8.4L365.2,330.7z"/>
	</g>
</g>
<g id="siglaAP">
	<g>
		<path class="st7" d="M813,139.2l-1.6-3.6h-9.1l-1.6,3.6h-2.5l7.3-16.3h2.6l7.3,16.3H813z M806.9,125.3l-3.6,8.3h7.3L806.9,125.3z"
			/>
		<path class="st7" d="M825.3,122.9c1.8,0,3.2,0.5,4.2,1.5c1,1,1.6,2.4,1.6,4.1s-0.5,3-1.6,4.1c-1,1-2.4,1.5-4.2,1.5h-5.2v5.1h-2.3
			v-16.3H825.3z M825.2,132c1.1,0,2-0.3,2.7-1c0.7-0.6,1-1.5,1-2.5s-0.3-1.9-1-2.5c-0.7-0.6-1.5-1-2.7-1h-5.1v7H825.2z"/>
	</g>
</g>
<g id="siglaAC">
	<g>
		<path class="st7" d="M158,541.5l-1.6-3.6h-9.1l-1.6,3.6h-2.5l7.3-16.3h2.6l7.3,16.3H158z M151.8,527.6l-3.6,8.3h7.3L151.8,527.6z"
			/>
		<path class="st7" d="M169.6,541.8c-2.5,0-4.5-0.8-6.1-2.4c-1.6-1.6-2.4-3.6-2.4-6.1c0-2.5,0.8-4.5,2.4-6.1
			c1.6-1.6,3.6-2.4,6.1-2.4c2.4,0,4.4,0.8,6,2.5l-1.6,1.4c-1.1-1.2-2.6-1.8-4.4-1.8c-1.8,0-3.4,0.6-4.5,1.8
			c-1.2,1.2-1.7,2.7-1.7,4.6c0,1.9,0.6,3.4,1.7,4.6c1.2,1.2,2.7,1.8,4.5,1.8c1.8,0,3.3-0.6,4.5-1.8l1.5,1.5
			C174.1,541,172.1,541.8,169.6,541.8z"/>
	</g>
</g>
<g id="siglaRO">
	<g>
		<path class="st7" d="M398.1,591.5l-5-5.7h-3.7v5.7h-2.3v-16.3h7.5c1.7,0,3.1,0.5,4.1,1.4c1,1,1.6,2.2,1.6,3.8
			c0,1.4-0.4,2.5-1.2,3.5c-0.8,0.9-1.9,1.5-3.3,1.7l5.1,5.8H398.1z M394.7,577.4h-5.3v6.3h5.3c1,0,1.9-0.3,2.5-0.8
			c0.6-0.6,0.9-1.3,0.9-2.3c0-1-0.3-1.8-0.9-2.3C396.5,577.6,395.7,577.4,394.7,577.4z"/>
		<path class="st7" d="M417.1,589.5c-1.5,1.6-3.5,2.4-6,2.4s-4.5-0.8-6-2.4s-2.3-3.6-2.3-6.1c0-2.5,0.8-4.6,2.3-6.1s3.5-2.4,6-2.4
			s4.5,0.8,6,2.4s2.3,3.6,2.3,6.1C419.4,585.9,418.7,588,417.1,589.5z M406.8,588c1.1,1.2,2.6,1.8,4.4,1.8c1.8,0,3.2-0.6,4.4-1.8
			c1.1-1.2,1.7-2.7,1.7-4.6c0-1.9-0.6-3.4-1.7-4.6c-1.1-1.2-2.6-1.8-4.4-1.8c-1.8,0-3.2,0.6-4.4,1.8s-1.7,2.7-1.7,4.6
			C405.1,585.3,405.6,586.8,406.8,588z"/>
	</g>
</g>
<g id="siglaRR">
	<g>
		<path class="st7" d="M466.8,128.2l-5-5.7h-3.7v5.7h-2.3v-16.3h7.5c1.7,0,3.1,0.5,4.1,1.4c1,1,1.6,2.2,1.6,3.8
			c0,1.4-0.4,2.5-1.2,3.5c-0.8,0.9-1.9,1.5-3.3,1.7l5.1,5.8H466.8z M463.4,114h-5.3v6.3h5.3c1,0,1.9-0.3,2.5-0.8
			c0.6-0.6,0.9-1.3,0.9-2.3c0-1-0.3-1.8-0.9-2.3C465.2,114.3,464.4,114,463.4,114z"/>
		<path class="st7" d="M483.5,128.2l-5-5.7h-3.7v5.7h-2.3v-16.3h7.5c1.7,0,3.1,0.5,4.1,1.4c1,1,1.6,2.2,1.6,3.8
			c0,1.4-0.4,2.5-1.2,3.5c-0.8,0.9-1.9,1.5-3.3,1.7l5.1,5.8H483.5z M480.1,114h-5.3v6.3h5.3c1,0,1.9-0.3,2.5-0.8
			c0.6-0.6,0.9-1.3,0.9-2.3c0-1-0.3-1.8-0.9-2.3C481.9,114.3,481.1,114,480.1,114z"/>
	</g>
</g>
<g id="siglaTO">
	<path class="st7" d="M944.2,559.1v2.1h-5.5v14.2h-2.2v-14.2h-5.5v-2.1H944.2z"/>
	<path class="st7" d="M959.6,573.4c-1.5,1.6-3.5,2.4-6,2.4s-4.5-0.8-6-2.4s-2.3-3.6-2.3-6.1c0-2.5,0.8-4.6,2.3-6.1s3.5-2.4,6-2.4
		s4.5,0.8,6,2.4s2.3,3.6,2.3,6.1C961.9,569.8,961.1,571.9,959.6,573.4z M949.2,571.9c1.1,1.2,2.6,1.8,4.4,1.8c1.8,0,3.2-0.6,4.4-1.8
		c1.1-1.2,1.7-2.7,1.7-4.6c0-1.9-0.6-3.4-1.7-4.6c-1.1-1.2-2.6-1.8-4.4-1.8c-1.8,0-3.2,0.6-4.4,1.8c-1.1,1.2-1.7,2.7-1.7,4.6
		C947.5,569.2,948.1,570.7,949.2,571.9z"/>
</g>
<g id="siglaPI">
	<path class="st7" d="M1160.8,466.6c1.8,0,3.2,0.5,4.2,1.5c1,1,1.6,2.4,1.6,4.1s-0.5,3-1.6,4.1c-1,1-2.4,1.5-4.2,1.5h-5.2v5.1h-2.3
		v-16.3H1160.8z M1160.7,475.7c1.1,0,2-0.3,2.7-1c0.7-0.6,1-1.5,1-2.5s-0.3-1.9-1-2.5c-0.7-0.6-1.5-1-2.7-1h-5.1v7H1160.7z"/>
	<path class="st7" d="M1169.4,482.9v-16.3h2.3v16.3H1169.4z"/>
</g>
<g id="siglaMA">
	<path class="st7" d="M1057,373.4h2.1v16.3h-2.2v-12.4l-6,7.8h-0.5l-6-7.8v12.4h-2.3v-16.3h2.1l6.5,8.4L1057,373.4z"/>
	<path class="st7" d="M1076.2,389.7l-1.6-3.6h-9.1l-1.6,3.6h-2.5l7.3-16.3h2.6l7.3,16.3H1076.2z M1070.1,375.7l-3.6,8.3h7.3
		L1070.1,375.7z"/>
</g>
<g id="siglaCE">
	<path class="st7" d="M1263.5,372.4c-2.5,0-4.5-0.8-6.1-2.4s-2.4-3.6-2.4-6.1c0-2.5,0.8-4.5,2.4-6.1c1.6-1.6,3.6-2.4,6.1-2.4
		c2.4,0,4.4,0.8,6,2.5l-1.6,1.4c-1.1-1.2-2.6-1.8-4.4-1.8c-1.8,0-3.4,0.6-4.5,1.8c-1.2,1.2-1.7,2.7-1.7,4.6c0,1.9,0.6,3.4,1.7,4.6
		c1.2,1.2,2.7,1.8,4.5,1.8c1.8,0,3.3-0.6,4.5-1.8l1.5,1.5C1267.9,371.6,1265.9,372.4,1263.5,372.4z"/>
	<path class="st7" d="M1274.7,370h9.7v2.1h-11.9v-16.3h11.8v2.1h-9.5v4.9h9.1v2.1h-9.1V370z"/>
</g>
<g id="siglaRN">
	<path class="st7" d="M1392.1,406.5l-5-5.7h-3.7v5.7h-2.3v-16.3h7.5c1.7,0,3.1,0.5,4.1,1.4c1,1,1.6,2.2,1.6,3.8
		c0,1.4-0.4,2.5-1.2,3.5c-0.8,0.9-1.9,1.5-3.3,1.7l5.1,5.8H1392.1z M1388.7,392.3h-5.3v6.3h5.3c1,0,1.9-0.3,2.5-0.8
		c0.6-0.6,0.9-1.3,0.9-2.3c0-1-0.3-1.8-0.9-2.3C1390.5,392.6,1389.7,392.3,1388.7,392.3z"/>
	<path class="st7" d="M1409.3,390.2h2.3v16.3h-2.1l-9.4-12.4v12.4h-2.3v-16.3h2.1l9.4,12.4V390.2z"/>
</g>
<g id="siglaPB">
	<path class="st7" d="M1396.3,436.3c1.8,0,3.2,0.5,4.2,1.5c1,1,1.6,2.4,1.6,4.1s-0.5,3-1.6,4.1c-1,1-2.4,1.5-4.2,1.5h-5.2v5.1h-2.3
		v-16.3H1396.3z M1396.2,445.4c1.1,0,2-0.3,2.7-1c0.7-0.6,1-1.5,1-2.5s-0.3-1.9-1-2.5c-0.7-0.6-1.5-1-2.7-1h-5.1v7H1396.2z"/>
	<path class="st7" d="M1415.6,444.2c0.8,0.3,1.4,0.8,1.9,1.5c0.5,0.7,0.8,1.5,0.8,2.4c0,1.4-0.5,2.5-1.5,3.3c-1,0.8-2.4,1.2-4.3,1.2
		h-7.6v-16.3h7.6c1.6,0,2.9,0.4,3.8,1.1c0.9,0.8,1.4,1.8,1.4,3.1c0,0.8-0.2,1.5-0.6,2.2S1416.2,443.9,1415.6,444.2z M1412.6,438.3
		h-5.5v4.8h5.5c0.9,0,1.6-0.2,2.1-0.6c0.5-0.4,0.8-1,0.8-1.8s-0.3-1.4-0.8-1.8C1414.2,438.6,1413.5,438.3,1412.6,438.3z
		 M1412.8,450.5c1,0,1.8-0.2,2.4-0.7s0.9-1.1,0.9-1.9c0-0.8-0.3-1.4-0.8-1.9c-0.6-0.5-1.4-0.7-2.4-0.7h-5.6v5.3H1412.8z"/>
</g>
<g id="siglaPE">
	<path class="st7" d="M1309.4,488.1c1.8,0,3.2,0.5,4.2,1.5c1,1,1.6,2.4,1.6,4.1s-0.5,3-1.6,4.1c-1,1-2.5,1.5-4.2,1.5h-5.2v5.1h-2.3
		v-16.3H1309.4z M1309.3,497.2c1.1,0,2-0.3,2.7-1c0.7-0.6,1-1.5,1-2.5s-0.3-1.9-1-2.5s-1.5-1-2.7-1h-5.1v7H1309.3z"/>
	<path class="st7" d="M1320.3,502.3h9.7v2.1H1318v-16.3h11.8v2.1h-9.5v4.9h9.1v2.1h-9.1V502.3z"/>
</g>
<g id="siglaSE">
	<path class="st7" d="M1357.2,580.5c-2.6,0-4.9-0.8-6.8-2.4l1.2-1.7c0.7,0.6,1.5,1.1,2.5,1.5c1,0.4,2,0.5,3.1,0.5
		c1.3,0,2.3-0.2,3.1-0.7s1.2-1.1,1.2-1.9c0-0.7-0.3-1.3-1-1.8c-0.7-0.4-1.8-0.8-3.4-1c-2.2-0.3-3.8-0.9-4.8-1.6
		c-1-0.8-1.5-1.8-1.5-3.2c0-1.3,0.6-2.4,1.7-3.2c1.2-0.8,2.7-1.3,4.5-1.3c2.3,0,4.3,0.7,6,2.1l-1.2,1.6c-1.4-1.1-3-1.7-4.8-1.7
		c-1.2,0-2.1,0.2-2.9,0.7c-0.7,0.5-1.1,1.1-1.1,1.8c0,0.7,0.3,1.3,1,1.7c0.7,0.4,1.7,0.8,3.2,1c2.3,0.4,4,0.9,5,1.7
		c1,0.7,1.5,1.8,1.5,3.1c0,1.5-0.6,2.7-1.8,3.5C1360.8,580,1359.2,580.5,1357.2,580.5z"/>
	<path class="st7" d="M1369,578.1h9.7v2.1h-11.9v-16.3h11.8v2.1h-9.5v4.9h9.1v2.1h-9.1V578.1z"/>
</g>
<g id="siglaAL">
	<path class="st7" d="M1394,550l-1.6-3.6h-9.1l-1.6,3.6h-2.5l7.3-16.3h2.6l7.3,16.3H1394z M1387.9,536l-3.6,8.3h7.3L1387.9,536z"/>
	<path class="st7" d="M1398.9,550v-16.3h2.3v14.2h8.8v2.1H1398.9z"/>
</g>
<g id="siglaES">
	<path class="st7" d="M1233.9,920.4h9.7v2.1h-11.9v-16.3h11.8v2.1h-9.5v4.9h9.1v2.1h-9.1V920.4z"/>
	<path class="st7" d="M1252.7,922.8c-2.6,0-4.9-0.8-6.8-2.4l1.2-1.7c0.7,0.6,1.5,1.1,2.5,1.5c1,0.4,2,0.5,3.1,0.5
		c1.3,0,2.3-0.2,3.1-0.7s1.2-1.1,1.2-1.9c0-0.7-0.3-1.3-1-1.8c-0.7-0.4-1.8-0.8-3.4-1c-2.2-0.3-3.8-0.9-4.8-1.6s-1.5-1.8-1.5-3.2
		c0-1.3,0.6-2.4,1.7-3.2c1.2-0.8,2.7-1.3,4.5-1.3c2.3,0,4.3,0.7,6,2.1l-1.2,1.6c-1.4-1.1-3-1.7-4.8-1.7c-1.2,0-2.1,0.2-2.9,0.7
		c-0.7,0.5-1.1,1.1-1.1,1.8c0,0.7,0.3,1.3,1,1.7c0.7,0.4,1.7,0.8,3.2,1c2.3,0.4,4,0.9,5,1.7c1,0.7,1.5,1.8,1.5,3.1
		c0,1.5-0.6,2.7-1.8,3.5C1256.3,922.3,1254.7,922.8,1252.7,922.8z"/>
</g>
<g id="siglaRJ">
	<path class="st7" d="M1187.5,1019l-5-5.7h-3.7v5.7h-2.3v-16.3h7.5c1.7,0,3.1,0.5,4.1,1.4c1,1,1.6,2.2,1.6,3.8
		c0,1.4-0.4,2.5-1.2,3.5c-0.8,0.9-1.9,1.5-3.3,1.7l5.1,5.8H1187.5z M1184.1,1004.8h-5.3v6.3h5.3c1,0,1.9-0.3,2.5-0.8
		s0.9-1.3,0.9-2.3c0-1-0.3-1.8-0.9-2.3C1186,1005.1,1185.1,1004.8,1184.1,1004.8z"/>
	<path class="st7" d="M1197.2,1002.7h7.8v9.8c0,2-0.6,3.7-1.9,5s-2.9,1.9-4.9,1.9c-2,0-3.7-0.6-4.9-1.9s-1.9-2.9-1.9-5h2.3
		c0,1.5,0.4,2.6,1.2,3.4c0.8,0.8,1.9,1.2,3.3,1.2c1.4,0,2.4-0.4,3.3-1.3c0.8-0.9,1.2-2,1.2-3.5v-7.5h-5.5V1002.7z"/>
</g>
</svg>
